<svg viewBox="0 0 1025 593" fill="none" xmlns="http://www.w3.org/2000/svg">
<rect x="1" y="1" width="1023" height="591" rx="51" fill="url(#paint0_linear_82_261)" stroke="#404040" stroke-width="2"/>
<mask id="mask0_82_261" style="mask-type:alpha" maskUnits="userSpaceOnUse" x="0" y="0">
<rect x="1" y="1" width="1023" height="591" rx="51" fill="url(#paint1_linear_82_261)" stroke="#404040" stroke-width="2"/>
</mask>
<g mask="url(#mask0_82_261)">
<path opacity="0.12" d="M772.54 295.165C772.54 281.607 770.603 269.132 766.729 257.738C762.856 246.231 757.159 236.262 749.64 227.831C742.234 219.4 733.062 212.849 722.125 208.178C711.188 203.393 698.712 201 684.698 201C670.685 201 658.266 203.393 647.442 208.178C636.619 212.849 627.504 219.4 620.099 227.831C612.693 236.262 607.053 246.231 603.18 257.738C599.306 269.132 597.369 281.607 597.369 295.165V298.754C597.369 312.198 599.306 324.674 603.18 336.181C607.053 347.574 612.693 357.543 620.099 366.088C627.618 374.519 636.79 381.07 647.613 385.741C658.551 390.412 671.026 392.748 685.04 392.748C699.054 392.748 711.472 390.412 722.296 385.741C733.119 381.07 742.234 374.519 749.64 366.088C757.159 357.543 762.856 347.574 766.729 336.181C770.603 324.674 772.54 312.198 772.54 298.754V295.165ZM722.15 295.165C722.15 288.177 721.505 281.597 720.219 275.422L719.953 274.192L719.949 274.173C718.686 267.96 716.686 262.461 713.961 257.665L713.399 256.703L713.394 256.692C710.511 251.593 706.699 247.62 701.954 244.751C697.242 241.902 691.505 240.452 684.698 240.452C677.896 240.452 672.161 241.899 667.45 244.745C662.816 247.614 658.998 251.59 655.998 256.699L655.999 256.7C653.099 261.72 650.967 267.54 649.618 274.173V274.176C648.266 280.71 647.588 287.706 647.588 295.165V298.754C647.588 305.962 648.184 312.712 649.373 319.006L649.618 320.259C650.965 326.881 653.092 332.693 655.985 337.708C658.885 342.433 662.607 346.157 667.155 348.896L667.599 349.159C672.312 351.899 678.11 353.296 685.04 353.296V354.296C677.976 354.296 671.995 352.872 667.096 350.023C662.197 347.175 658.209 343.244 655.133 338.231C652.171 333.104 650.006 327.18 648.639 320.458C647.271 313.736 646.588 306.501 646.588 298.754V295.165C646.588 287.646 647.271 280.582 648.639 273.974C650.006 267.252 652.171 261.327 655.133 256.2C658.209 250.959 662.14 246.858 666.925 243.896C671.824 240.933 677.748 239.452 684.698 239.452C691.648 239.452 697.573 240.933 702.472 243.896C707.371 246.858 711.301 250.959 714.264 256.2C717.34 261.327 719.562 267.252 720.929 273.974C722.41 280.582 723.15 287.646 723.15 295.165V298.754C723.15 306.501 722.41 313.736 720.929 320.458C719.562 327.18 717.397 333.104 714.435 338.231C711.472 343.244 707.542 347.175 702.643 350.023C697.743 352.872 691.876 354.296 685.04 354.296V353.296C691.736 353.296 697.422 351.902 702.14 349.159C706.887 346.399 710.696 342.593 713.573 337.723C716.471 332.705 718.601 326.888 719.949 320.259L719.95 320.251L719.952 320.243C721.416 313.6 722.15 306.438 722.15 298.754V295.165ZM773.54 298.754C773.54 312.295 771.589 324.88 767.677 336.5L767.676 336.503C763.884 347.654 758.36 357.468 751.099 365.934L750.391 366.748C742.882 375.296 733.645 381.932 722.692 386.659C711.722 391.394 699.165 393.748 685.04 393.748C671.356 393.748 659.092 391.539 648.264 387.098L647.221 386.661L647.217 386.659C636.608 382.08 627.555 375.711 620.071 367.549L619.353 366.754L619.348 366.748L619.343 366.743C612.081 358.365 606.503 348.639 602.604 337.577L602.233 336.503L602.232 336.5C598.321 324.88 596.369 312.295 596.369 298.754V295.165C596.369 281.511 598.32 268.925 602.233 257.416C606.146 245.795 611.848 235.708 619.348 227.171C626.854 218.625 636.089 211.989 647.038 207.263L648.071 206.815C658.797 202.264 671.012 200 684.698 200C698.822 200 711.435 202.411 722.517 207.258C733.581 211.983 742.877 218.618 750.386 227.165C758.001 235.703 763.762 245.792 767.676 257.416C771.589 268.925 773.54 281.511 773.54 295.165V298.754Z" fill="#3D3D3D"/>
<path opacity="0.12" d="M594.703 291.576C594.703 278.018 592.937 265.714 589.405 254.662C585.873 243.497 580.632 233.926 573.683 225.951C566.847 217.976 558.359 211.824 548.219 207.494C538.079 203.165 526.458 201 513.355 201C499.911 201 487.835 203.336 477.125 208.007C466.415 212.564 457.301 219.115 449.781 227.66C442.376 236.205 436.679 246.288 432.691 257.909C428.704 269.53 426.71 282.348 426.71 296.361V303.197C426.71 315.502 428.818 327.123 433.033 338.061C437.249 348.884 443.287 358.397 451.148 366.601C459.124 374.804 468.808 381.241 480.201 385.912C491.594 390.469 504.469 392.748 518.824 392.748C530.787 392.748 541.44 391.153 550.782 387.963C560.125 384.659 568.1 380.443 574.708 375.316C581.43 370.189 586.728 364.835 590.602 359.252L566.676 333.275C561.093 340.339 554.428 345.637 546.681 349.169C539.047 352.587 530.787 354.296 521.9 354.296V353.296C530.653 353.296 538.77 351.614 546.266 348.259C553.86 344.797 560.402 339.602 565.892 332.655L566.617 331.736L591.88 359.164L591.423 359.822C587.478 365.507 582.103 370.932 575.32 376.105L575.321 376.106C568.615 381.31 560.54 385.572 551.115 388.905L551.105 388.909C541.64 392.141 530.875 393.748 518.824 393.748C504.815 393.748 492.174 391.594 480.915 387.267L479.83 386.841L479.822 386.837C468.671 382.265 459.123 376.012 451.193 368.071L450.432 367.298L450.427 367.293C442.721 359.252 436.748 349.967 432.507 339.445L432.102 338.424L432.101 338.42C427.839 327.362 425.71 315.619 425.71 303.197V296.361C425.71 282.253 427.717 269.324 431.745 257.585C435.771 245.853 441.529 235.655 449.025 227.005L449.03 226.999C456.649 218.341 465.885 211.704 476.726 207.09L477.747 206.653C488.344 202.211 500.218 200 513.355 200C526.568 200 538.326 202.183 548.611 206.574C558.882 210.96 567.496 217.2 574.436 225.294C581.484 233.383 586.789 243.077 590.357 254.357C593.926 265.522 595.703 277.932 595.703 291.576V313.084H477.767C478.269 316.679 479.052 320.11 480.121 323.379C482.248 329.535 485.206 334.832 488.986 339.282C492.878 343.73 497.545 347.176 502.998 349.624C508.548 352.065 514.843 353.296 521.9 353.296V354.296C514.723 354.296 508.285 353.043 502.589 350.536C497.006 348.03 492.221 344.498 488.233 339.94C484.36 335.383 481.34 329.971 479.176 323.705C477.972 320.028 477.125 316.154 476.628 312.084H594.703V291.576ZM545.339 275.512C545.339 269.009 544.185 263.225 541.898 258.14L541.674 257.649L541.668 257.638L541.663 257.626C539.347 252.332 535.828 248.156 531.096 245.075C526.402 242.019 520.341 240.452 512.843 240.452C506.498 240.452 501.102 241.842 496.615 244.578C492.099 247.332 488.396 251.193 485.511 256.188C482.724 261.208 480.592 267.145 479.129 274.011C478.851 275.402 478.603 276.822 478.382 278.271H545.339V275.512ZM546.339 279.271H477.224C477.487 277.402 477.795 275.579 478.15 273.803C479.632 266.853 481.796 260.814 484.645 255.688C487.607 250.561 491.424 246.573 496.095 243.725C500.766 240.876 506.349 239.452 512.843 239.452C520.476 239.452 526.743 241.047 531.642 244.237C536.541 247.427 540.187 251.757 542.579 257.226C545.086 262.58 546.339 268.676 546.339 275.512V279.271Z" fill="#3D3D3D"/>
<path opacity="0.12" d="M363.229 271.239C363.229 263.361 362.166 257.294 360.118 252.96L359.917 252.546C357.739 248.191 354.554 245.178 350.349 243.453L350.334 243.447L350.32 243.441C346.156 241.578 340.95 240.623 334.664 240.623C328.189 240.623 322.604 241.906 317.875 244.436C313.239 246.976 309.371 250.509 306.269 255.05C305.543 256.124 304.861 257.247 304.219 258.415V390.33H253V203.418H301.067L302.667 223.947C309.019 216.312 316.526 210.464 325.183 206.417C334.216 202.133 344.276 200 355.343 200C363.825 200 371.627 201.189 378.741 203.58L379.428 203.815C386.752 206.373 393.038 210.447 398.275 216.03C403.648 221.637 407.705 229.021 410.475 238.136C413.361 247.261 414.79 258.36 414.79 271.41V390.33H363.229V271.239ZM254 389.33H303.219V258.159C303.911 256.884 304.651 255.661 305.44 254.491C308.631 249.82 312.618 246.174 317.403 243.554C322.302 240.933 328.056 239.623 334.664 239.623C341.044 239.623 346.399 240.591 350.729 242.528C355.172 244.351 358.533 247.541 360.812 252.099C363.09 256.656 364.229 263.036 364.229 271.239V389.33H413.79V271.41C413.79 258.422 412.366 247.427 409.518 238.427C406.783 229.426 402.796 222.191 397.555 216.723C392.428 211.254 386.275 207.266 379.098 204.76C371.92 202.253 364.002 201 355.343 201C344.405 201 334.493 203.108 325.606 207.323C316.834 211.425 309.257 217.406 302.877 225.268C302.535 225.682 302.199 226.102 301.865 226.526L300.143 204.418H254V389.33Z" fill="#3D3D3D"/>
<g opacity="0.16">
<path d="M938.551 273.813C948.338 256.219 970.534 249.891 988.128 259.678V259.678L945.082 337.058C935.296 354.651 913.099 360.98 895.506 351.193V351.193L938.551 273.813Z" fill="url(#paint2_linear_82_261)"/>
<path d="M938.551 273.813C948.338 256.219 970.534 249.891 988.128 259.678V259.678L945.082 337.058C935.296 354.651 913.099 360.98 895.506 351.193V351.193L938.551 273.813Z" fill="url(#paint3_linear_82_261)"/>
<path d="M994.206 245.982C1003.99 228.388 1026.19 222.06 1043.78 231.847V231.847L1000.74 309.227C990.95 326.82 968.754 333.149 951.161 323.362V323.362L994.206 245.982Z" fill="url(#paint4_linear_82_261)"/>
<path d="M994.206 245.982C1003.99 228.388 1026.19 222.06 1043.78 231.847V231.847L1000.74 309.227C990.95 326.82 968.754 333.149 951.161 323.362V323.362L994.206 245.982Z" fill="url(#paint5_linear_82_261)"/>
<path d="M1043.85 223.527C1053.64 205.934 1075.84 199.605 1093.43 209.392V209.392L1050.38 286.772C1040.6 304.366 1018.4 310.694 1000.81 300.907V300.907L1043.85 223.527Z" fill="url(#paint6_linear_82_261)"/>
<path d="M1043.85 223.527C1053.64 205.934 1075.84 199.605 1093.43 209.392V209.392L1050.38 286.772C1040.6 304.366 1018.4 310.694 1000.81 300.907V300.907L1043.85 223.527Z" fill="url(#paint7_linear_82_261)"/>
</g>
<g opacity="0.16">
<path d="M229.176 585.007C238.963 567.414 261.159 561.086 278.752 570.873V570.873L235.707 648.253C225.92 665.846 203.724 672.175 186.131 662.388V662.388L229.176 585.007Z" fill="url(#paint8_linear_82_261)"/>
<path d="M229.176 585.007C238.963 567.414 261.159 561.086 278.752 570.873V570.873L235.707 648.253C225.92 665.846 203.724 672.175 186.131 662.388V662.388L229.176 585.007Z" fill="url(#paint9_linear_82_261)"/>
<path d="M284.831 557.176C294.618 539.583 316.814 533.255 334.407 543.041V543.041L291.362 620.422C281.575 638.015 259.379 644.344 241.786 634.557V634.557L284.831 557.176Z" fill="url(#paint10_linear_82_261)"/>
<path d="M284.831 557.176C294.618 539.583 316.814 533.255 334.407 543.041V543.041L291.362 620.422C281.575 638.015 259.379 644.344 241.786 634.557V634.557L284.831 557.176Z" fill="url(#paint11_linear_82_261)"/>
<path d="M334.477 534.722C344.264 517.128 366.46 510.8 384.054 520.587V520.587L341.008 597.967C331.222 615.561 309.025 621.889 291.432 612.102V612.102L334.477 534.722Z" fill="url(#paint12_linear_82_261)"/>
<path d="M334.477 534.722C344.264 517.128 366.46 510.8 384.054 520.587V520.587L341.008 597.967C331.222 615.561 309.025 621.889 291.432 612.102V612.102L334.477 534.722Z" fill="url(#paint13_linear_82_261)"/>
</g>
<g opacity="0.16">
<path d="M34.8624 251.557C52.9616 260.373 60.4869 282.192 51.6706 300.292V300.292L-27.9347 261.515C-46.0339 252.699 -53.5592 230.879 -44.7429 212.78V212.78L34.8624 251.557Z" fill="url(#paint14_linear_82_261)"/>
<path d="M34.8624 251.557C52.9616 260.373 60.4869 282.192 51.6706 300.292V300.292L-27.9347 261.515C-46.0339 252.699 -53.5592 230.879 -44.7429 212.78V212.78L34.8624 251.557Z" fill="url(#paint15_linear_82_261)"/>
<path d="M65.6767 305.617C83.7759 314.433 91.3012 336.252 82.4849 354.352V354.352L2.87963 315.575C-15.2196 306.759 -22.7449 284.94 -13.9286 266.84V266.84L65.6767 305.617Z" fill="url(#paint16_linear_82_261)"/>
<path d="M65.6767 305.617C83.7759 314.433 91.3012 336.252 82.4849 354.352V354.352L2.87963 315.575C-15.2196 306.759 -22.7449 284.94 -13.9286 266.84V266.84L65.6767 305.617Z" fill="url(#paint17_linear_82_261)"/>
<path d="M90.7962 353.97C108.895 362.786 116.421 384.605 107.604 402.705V402.705L27.9991 363.928C9.89991 355.112 2.37461 333.293 11.1909 315.193V315.193L90.7962 353.97Z" fill="url(#paint18_linear_82_261)"/>
<path d="M90.7962 353.97C108.895 362.786 116.421 384.605 107.604 402.705V402.705L27.9991 363.928C9.89991 355.112 2.37461 333.293 11.1909 315.193V315.193L90.7962 353.97Z" fill="url(#paint19_linear_82_261)"/>
</g>
<g opacity="0.16">
<path d="M731.862 -44.4433C749.961 -35.627 757.487 -13.8077 748.67 4.29157V4.29157L669.065 -34.4849C650.966 -43.3012 643.441 -65.1205 652.257 -83.2198V-83.2198L731.862 -44.4433Z" fill="url(#paint20_linear_82_261)"/>
<path d="M731.862 -44.4433C749.961 -35.627 757.487 -13.8077 748.67 4.29157V4.29157L669.065 -34.4849C650.966 -43.3012 643.441 -65.1205 652.257 -83.2198V-83.2198L731.862 -44.4433Z" fill="url(#paint21_linear_82_261)"/>
<path d="M762.677 9.61676C780.776 18.4331 788.301 40.2524 779.485 58.3516V58.3516L699.88 19.5752C681.78 10.7589 674.255 -11.0605 683.071 -29.1597V-29.1597L762.677 9.61676Z" fill="url(#paint22_linear_82_261)"/>
<path d="M762.677 9.61676C780.776 18.4331 788.301 40.2524 779.485 58.3516V58.3516L699.88 19.5752C681.78 10.7589 674.255 -11.0605 683.071 -29.1597V-29.1597L762.677 9.61676Z" fill="url(#paint23_linear_82_261)"/>
<path d="M787.796 57.9698C805.896 66.7861 813.421 88.6054 804.605 106.705V106.705L724.999 67.9282C706.9 59.1119 699.375 37.2925 708.191 19.1933V19.1933L787.796 57.9698Z" fill="url(#paint24_linear_82_261)"/>
<path d="M787.796 57.9698C805.896 66.7861 813.421 88.6054 804.605 106.705V106.705L724.999 67.9282C706.9 59.1119 699.375 37.2925 708.191 19.1933V19.1933L787.796 57.9698Z" fill="url(#paint25_linear_82_261)"/>
</g>
<path d="M492.076 293.386C496.093 271.683 516.658 257.4 538.01 261.483L525.254 330.4C521.237 352.103 500.672 366.386 479.32 362.304L492.076 293.386Z" fill="url(#paint26_linear_82_261)"/>
<path d="M472.2 230C454.969 230 441 244.198 441 261.712L552.8 261.712C570.031 261.712 584 247.514 584 230L472.2 230Z" fill="url(#paint27_linear_82_261)"/>
<path d="M472.2 230C454.969 230 441 244.198 441 261.712L552.8 261.712C570.031 261.712 584 247.514 584 230L472.2 230Z" fill="url(#paint28_linear_82_261)" fill-opacity="0.2"/>
</g>
<defs>
<linearGradient id="paint0_linear_82_261" x1="24" y1="24" x2="1023" y2="579.5" gradientUnits="userSpaceOnUse">
<stop stop-color="white"/>
<stop offset="0.5" stop-color="#F2F2F2"/>
<stop offset="1" stop-color="white"/>
</linearGradient>
<linearGradient id="paint1_linear_82_261" x1="24" y1="24" x2="1023" y2="579.5" gradientUnits="userSpaceOnUse">
<stop stop-color="white"/>
<stop offset="0.5" stop-color="#E3E3E3"/>
<stop offset="1" stop-color="white"/>
</linearGradient>
<linearGradient id="paint2_linear_82_261" x1="952.936" y1="344.29" x2="945.719" y2="256.623" gradientUnits="userSpaceOnUse">
<stop stop-color="#D7FFAF"/>
<stop offset="0.589182" stop-color="#8BDFD7"/>
<stop offset="1" stop-color="#3FBFFF"/>
</linearGradient>
<linearGradient id="paint3_linear_82_261" x1="943.524" y1="320.071" x2="987.016" y2="284.333" gradientUnits="userSpaceOnUse">
<stop stop-color="#9BFF37"/>
<stop offset="1" stop-color="#47C2FA"/>
</linearGradient>
<linearGradient id="paint4_linear_82_261" x1="1008.59" y1="316.459" x2="1001.37" y2="228.792" gradientUnits="userSpaceOnUse">
<stop stop-color="#D7FFAF"/>
<stop offset="0.589182" stop-color="#8BDFD7"/>
<stop offset="1" stop-color="#3FBFFF"/>
</linearGradient>
<linearGradient id="paint5_linear_82_261" x1="999.179" y1="292.24" x2="1042.67" y2="256.502" gradientUnits="userSpaceOnUse">
<stop stop-color="#9BFF37"/>
<stop offset="1" stop-color="#47C2FA"/>
</linearGradient>
<linearGradient id="paint6_linear_82_261" x1="1058.24" y1="294.004" x2="1051.02" y2="206.337" gradientUnits="userSpaceOnUse">
<stop stop-color="#D7FFAF"/>
<stop offset="0.589182" stop-color="#8BDFD7"/>
<stop offset="1" stop-color="#3FBFFF"/>
</linearGradient>
<linearGradient id="paint7_linear_82_261" x1="1048.83" y1="269.785" x2="1092.32" y2="234.047" gradientUnits="userSpaceOnUse">
<stop stop-color="#9BFF37"/>
<stop offset="1" stop-color="#47C2FA"/>
</linearGradient>
<linearGradient id="paint8_linear_82_261" x1="243.561" y1="655.485" x2="236.344" y2="567.818" gradientUnits="userSpaceOnUse">
<stop stop-color="#D7FFAF"/>
<stop offset="0.589182" stop-color="#8BDFD7"/>
<stop offset="1" stop-color="#3FBFFF"/>
</linearGradient>
<linearGradient id="paint9_linear_82_261" x1="234.149" y1="631.266" x2="277.641" y2="595.528" gradientUnits="userSpaceOnUse">
<stop stop-color="#9BFF37"/>
<stop offset="1" stop-color="#47C2FA"/>
</linearGradient>
<linearGradient id="paint10_linear_82_261" x1="299.216" y1="627.654" x2="291.998" y2="539.987" gradientUnits="userSpaceOnUse">
<stop stop-color="#D7FFAF"/>
<stop offset="0.589182" stop-color="#8BDFD7"/>
<stop offset="1" stop-color="#3FBFFF"/>
</linearGradient>
<linearGradient id="paint11_linear_82_261" x1="289.804" y1="603.435" x2="333.296" y2="567.697" gradientUnits="userSpaceOnUse">
<stop stop-color="#9BFF37"/>
<stop offset="1" stop-color="#47C2FA"/>
</linearGradient>
<linearGradient id="paint12_linear_82_261" x1="348.862" y1="605.199" x2="341.645" y2="517.532" gradientUnits="userSpaceOnUse">
<stop stop-color="#D7FFAF"/>
<stop offset="0.589182" stop-color="#8BDFD7"/>
<stop offset="1" stop-color="#3FBFFF"/>
</linearGradient>
<linearGradient id="paint13_linear_82_261" x1="339.45" y1="580.98" x2="382.942" y2="545.242" gradientUnits="userSpaceOnUse">
<stop stop-color="#9BFF37"/>
<stop offset="1" stop-color="#47C2FA"/>
</linearGradient>
<linearGradient id="paint14_linear_82_261" x1="-34.7293" y1="269.75" x2="52.4162" y2="257.78" gradientUnits="userSpaceOnUse">
<stop stop-color="#D7FFAF"/>
<stop offset="0.589182" stop-color="#8BDFD7"/>
<stop offset="1" stop-color="#3FBFFF"/>
</linearGradient>
<linearGradient id="paint15_linear_82_261" x1="-11.0574" y1="259.036" x2="26.9915" y2="300.522" gradientUnits="userSpaceOnUse">
<stop stop-color="#9BFF37"/>
<stop offset="1" stop-color="#47C2FA"/>
</linearGradient>
<linearGradient id="paint16_linear_82_261" x1="-3.91492" y1="323.81" x2="83.2306" y2="311.84" gradientUnits="userSpaceOnUse">
<stop stop-color="#D7FFAF"/>
<stop offset="0.589182" stop-color="#8BDFD7"/>
<stop offset="1" stop-color="#3FBFFF"/>
</linearGradient>
<linearGradient id="paint17_linear_82_261" x1="19.7569" y1="313.096" x2="57.8058" y2="354.582" gradientUnits="userSpaceOnUse">
<stop stop-color="#9BFF37"/>
<stop offset="1" stop-color="#47C2FA"/>
</linearGradient>
<linearGradient id="paint18_linear_82_261" x1="21.2046" y1="372.163" x2="108.35" y2="360.193" gradientUnits="userSpaceOnUse">
<stop stop-color="#D7FFAF"/>
<stop offset="0.589182" stop-color="#8BDFD7"/>
<stop offset="1" stop-color="#3FBFFF"/>
</linearGradient>
<linearGradient id="paint19_linear_82_261" x1="44.8764" y1="361.449" x2="82.9253" y2="402.935" gradientUnits="userSpaceOnUse">
<stop stop-color="#9BFF37"/>
<stop offset="1" stop-color="#47C2FA"/>
</linearGradient>
<linearGradient id="paint20_linear_82_261" x1="662.271" y1="-26.2498" x2="749.416" y2="-38.2205" gradientUnits="userSpaceOnUse">
<stop stop-color="#D7FFAF"/>
<stop offset="0.589182" stop-color="#8BDFD7"/>
<stop offset="1" stop-color="#3FBFFF"/>
</linearGradient>
<linearGradient id="paint21_linear_82_261" x1="685.942" y1="-36.9638" x2="723.991" y2="4.52155" gradientUnits="userSpaceOnUse">
<stop stop-color="#9BFF37"/>
<stop offset="1" stop-color="#47C2FA"/>
</linearGradient>
<linearGradient id="paint22_linear_82_261" x1="693.085" y1="27.8102" x2="780.231" y2="15.8396" gradientUnits="userSpaceOnUse">
<stop stop-color="#D7FFAF"/>
<stop offset="0.589182" stop-color="#8BDFD7"/>
<stop offset="1" stop-color="#3FBFFF"/>
</linearGradient>
<linearGradient id="paint23_linear_82_261" x1="716.757" y1="17.0962" x2="754.806" y2="58.5816" gradientUnits="userSpaceOnUse">
<stop stop-color="#9BFF37"/>
<stop offset="1" stop-color="#47C2FA"/>
</linearGradient>
<linearGradient id="paint24_linear_82_261" x1="718.205" y1="76.1632" x2="805.35" y2="64.1926" gradientUnits="userSpaceOnUse">
<stop stop-color="#D7FFAF"/>
<stop offset="0.589182" stop-color="#8BDFD7"/>
<stop offset="1" stop-color="#3FBFFF"/>
</linearGradient>
<linearGradient id="paint25_linear_82_261" x1="741.877" y1="65.4493" x2="779.925" y2="106.935" gradientUnits="userSpaceOnUse">
<stop stop-color="#9BFF37"/>
<stop offset="1" stop-color="#47C2FA"/>
</linearGradient>
<linearGradient id="paint26_linear_82_261" x1="501.233" y1="338.79" x2="518.463" y2="272.957" gradientUnits="userSpaceOnUse">
<stop stop-color="#9BFF37"/>
<stop offset="0.460602" stop-color="#00D7C2"/>
<stop offset="1" stop-color="#0BAEFF"/>
</linearGradient>
<linearGradient id="paint27_linear_82_261" x1="545.433" y1="256.867" x2="485.01" y2="214.41" gradientUnits="userSpaceOnUse">
<stop stop-color="#80FF00"/>
<stop offset="0.440209" stop-color="#00FFE7"/>
<stop offset="1" stop-color="#00AAFF"/>
</linearGradient>
<linearGradient id="paint28_linear_82_261" x1="526.182" y1="253.344" x2="471.613" y2="281.614" gradientUnits="userSpaceOnUse">
<stop stop-color="#47C2FA"/>
<stop offset="1"/>
</linearGradient>
</defs>
</svg>
