<svg width="2021" height="1168" viewBox="0 0 2021 1168" fill="none" xmlns="http://www.w3.org/2000/svg">
<rect x="1" y="1" width="2018.39" height="1165.23" rx="51" fill="url(#paint0_linear_82_312)" stroke="#404040" stroke-width="2"/>
<mask id="mask0_82_312" style="mask-type:alpha" maskUnits="userSpaceOnUse" x="0" y="0" width="2021" height="1168">
<rect x="1" y="1" width="2018.39" height="1165.23" rx="51" fill="url(#paint1_linear_82_312)" stroke="url(#paint2_linear_82_312)" stroke-width="2"/>
</mask>
<g mask="url(#mask0_82_312)">
<path d="M164.371 166.811C168.754 143.515 191.192 128.182 214.488 132.565L200.57 206.542C196.188 229.838 173.75 245.17 150.454 240.788L164.371 166.811Z" fill="url(#paint3_linear_82_312)"/>
<path d="M142.686 98.7715C123.886 98.7715 108.646 114.012 108.646 132.812L230.624 132.812C249.424 132.812 264.664 117.571 264.664 98.7715L142.686 98.7715Z" fill="url(#paint4_linear_82_312)"/>
<path d="M142.686 98.7715C123.886 98.7715 108.646 114.012 108.646 132.812L230.624 132.812C249.424 132.812 264.664 117.571 264.664 98.7715L142.686 98.7715Z" fill="url(#paint5_linear_82_312)" fill-opacity="0.2"/>
<g opacity="0.12">
<mask id="path-5-outside-1_82_312" maskUnits="userSpaceOnUse" x="1127.08" y="840" width="972" height="365" fill="black">
<rect fill="white" x="1127.08" y="840" width="972" height="365"/>
<path d="M1223.13 923.907V1194H1131.72V850.592H1217.42L1223.13 923.907ZM1209.8 1010.24H1185.04C1185.04 984.845 1188.32 961.993 1194.88 941.681C1201.44 921.157 1210.65 903.701 1222.49 889.312C1234.34 874.713 1248.41 863.604 1264.71 855.987C1281.21 848.159 1299.62 844.244 1319.93 844.244C1336.01 844.244 1350.72 846.572 1364.05 851.227C1377.38 855.882 1388.8 863.287 1398.32 873.443C1408.06 883.6 1415.46 897.035 1420.54 913.751C1425.83 930.466 1428.48 950.885 1428.48 975.006V1194H1336.43V974.688C1336.43 959.454 1334.32 947.605 1330.09 939.142C1325.86 930.678 1319.61 924.754 1311.36 921.368C1303.32 917.771 1293.38 915.973 1281.53 915.973C1269.26 915.973 1258.57 918.406 1249.47 923.272C1240.58 928.139 1233.18 934.91 1227.25 943.585C1221.54 952.049 1217.2 961.993 1214.24 973.419C1211.28 984.845 1209.8 997.117 1209.8 1010.24ZM1623.54 1200.35C1596.88 1200.35 1572.97 1196.12 1551.81 1187.65C1530.65 1178.98 1512.67 1167.02 1497.86 1151.79C1483.26 1136.55 1472.04 1118.89 1464.21 1098.79C1456.38 1078.47 1452.47 1056.89 1452.47 1034.04V1021.34C1452.47 995.318 1456.17 971.515 1463.58 949.933C1470.98 928.351 1481.56 909.625 1495.32 893.756C1509.28 877.887 1526.21 865.72 1546.1 857.257C1565.99 848.582 1588.42 844.244 1613.38 844.244C1637.72 844.244 1659.3 848.264 1678.13 856.305C1696.96 864.345 1712.72 875.771 1725.42 890.582C1738.33 905.393 1748.06 923.167 1754.62 943.902C1761.18 964.426 1764.46 987.278 1764.46 1012.46V1050.54H1491.51V989.605H1674.64V982.623C1674.64 969.928 1672.31 958.608 1667.66 948.663C1663.21 938.507 1656.44 930.466 1647.34 924.542C1638.24 918.618 1626.61 915.655 1612.43 915.655C1600.37 915.655 1590 918.3 1581.33 923.59C1572.65 928.88 1565.56 936.285 1560.06 945.807C1554.77 955.328 1550.75 966.542 1548 979.449C1545.46 992.145 1544.19 1006.11 1544.19 1021.34V1034.04C1544.19 1047.79 1546.1 1060.49 1549.91 1072.12C1553.93 1083.76 1559.53 1093.81 1566.73 1102.28C1574.13 1110.74 1583.02 1117.3 1593.39 1121.95C1603.97 1126.61 1615.92 1128.94 1629.25 1128.94C1645.76 1128.94 1661.1 1125.76 1675.27 1119.42C1689.66 1112.86 1702.04 1103.02 1712.41 1089.9L1756.84 1138.14C1749.65 1148.51 1739.81 1158.45 1727.32 1167.97C1715.05 1177.5 1700.24 1185.32 1682.89 1191.46C1665.54 1197.39 1645.76 1200.35 1623.54 1200.35ZM1769.41 1025.79V1019.12C1769.41 993.943 1773.01 970.774 1780.2 949.615C1787.39 928.245 1797.87 909.731 1811.62 894.073C1825.37 878.416 1842.3 866.249 1862.4 857.574C1882.5 848.688 1905.57 844.244 1931.59 844.244C1957.62 844.244 1980.79 848.688 2001.1 857.574C2021.41 866.249 2038.44 878.416 2052.2 894.073C2066.16 909.731 2076.74 928.245 2083.93 949.615C2091.13 970.774 2094.73 993.943 2094.73 1019.12V1025.79C2094.73 1050.75 2091.13 1073.92 2083.93 1095.29C2076.74 1116.45 2066.16 1134.97 2052.2 1150.84C2038.44 1166.49 2021.52 1178.66 2001.42 1187.33C1981.31 1196.01 1958.25 1200.35 1932.23 1200.35C1906.2 1200.35 1883.03 1196.01 1862.72 1187.33C1842.62 1178.66 1825.58 1166.49 1811.62 1150.84C1797.87 1134.97 1787.39 1116.45 1780.2 1095.29C1773.01 1073.92 1769.41 1050.75 1769.41 1025.79ZM1860.81 1019.12V1025.79C1860.81 1040.18 1862.08 1053.61 1864.62 1066.09C1867.16 1078.58 1871.18 1089.58 1876.68 1099.1C1882.4 1108.41 1889.8 1115.71 1898.9 1121C1908 1126.29 1919.11 1128.94 1932.23 1128.94C1944.92 1128.94 1955.82 1126.29 1964.92 1121C1974.01 1115.71 1981.31 1108.41 1986.82 1099.1C1992.32 1089.58 1996.34 1078.58 1998.88 1066.09C2001.63 1053.61 2003 1040.18 2003 1025.79V1019.12C2003 1005.16 2001.63 992.039 1998.88 979.767C1996.34 967.283 1992.21 956.28 1986.5 946.759C1981 937.026 1973.7 929.409 1964.6 923.907C1955.5 918.406 1944.5 915.655 1931.59 915.655C1918.68 915.655 1907.68 918.406 1898.58 923.907C1889.7 929.409 1882.4 937.026 1876.68 946.759C1871.18 956.28 1867.16 967.283 1864.62 979.767C1862.08 992.039 1860.81 1005.16 1860.81 1019.12Z"/>
</mask>
<path d="M1223.13 923.907H1227.13V923.752L1227.12 923.596L1223.13 923.907ZM1223.13 1194V1198H1227.13V1194H1223.13ZM1131.72 1194H1127.72V1198H1131.72V1194ZM1131.72 850.592V846.592H1127.72V850.592H1131.72ZM1217.42 850.592L1221.4 850.281L1221.12 846.592H1217.42V850.592ZM1209.8 1010.24V1014.24H1213.8V1010.24H1209.8ZM1185.04 1010.24H1181.04V1014.24H1185.04V1010.24ZM1194.88 941.681L1198.69 942.91L1198.69 942.898L1194.88 941.681ZM1222.49 889.312L1225.58 891.855L1225.59 891.844L1225.6 891.833L1222.49 889.312ZM1264.71 855.987L1266.4 859.611L1266.41 859.606L1266.42 859.601L1264.71 855.987ZM1398.32 873.443L1395.41 876.179L1395.42 876.195L1395.44 876.211L1398.32 873.443ZM1420.54 913.751L1416.71 914.914L1416.72 914.936L1416.73 914.958L1420.54 913.751ZM1428.48 1194V1198H1432.48V1194H1428.48ZM1336.43 1194H1332.43V1198H1336.43V1194ZM1330.09 939.142L1333.66 937.353L1330.09 939.142ZM1311.36 921.368L1309.73 925.019L1309.79 925.045L1309.84 925.069L1311.36 921.368ZM1249.47 923.272L1247.59 919.745L1247.57 919.755L1247.55 919.764L1249.47 923.272ZM1227.25 943.585L1223.95 941.329L1223.95 941.338L1223.94 941.347L1227.25 943.585ZM1223.13 923.907H1219.13V1194H1223.13H1227.13V923.907H1223.13ZM1223.13 1194V1190H1131.72V1194V1198H1223.13V1194ZM1131.72 1194H1135.72V850.592H1131.72H1127.72V1194H1131.72ZM1131.72 850.592V854.592H1217.42V850.592V846.592H1131.72V850.592ZM1217.42 850.592L1213.43 850.903L1219.14 924.218L1223.13 923.907L1227.12 923.596L1221.4 850.281L1217.42 850.592ZM1209.8 1010.24V1006.24H1185.04V1010.24V1014.24H1209.8V1010.24ZM1185.04 1010.24H1189.04C1189.04 985.185 1192.28 962.758 1198.69 942.91L1194.88 941.681L1191.08 940.451C1184.37 961.228 1181.04 984.504 1181.04 1010.24H1185.04ZM1194.88 941.681L1198.69 942.898C1205.12 922.783 1214.1 905.795 1225.58 891.855L1222.49 889.312L1219.41 886.77C1207.19 901.606 1197.76 919.53 1191.07 940.463L1194.88 941.681ZM1222.49 889.312L1225.6 891.833C1237.09 877.681 1250.68 866.96 1266.4 859.611L1264.71 855.987L1263.01 852.364C1246.15 860.249 1231.6 871.745 1219.39 886.792L1222.49 889.312ZM1264.71 855.987L1266.42 859.601C1282.33 852.054 1300.14 848.244 1319.93 848.244V844.244V840.244C1299.09 840.244 1280.09 844.263 1262.99 852.373L1264.71 855.987ZM1319.93 844.244V848.244C1335.62 848.244 1349.88 850.515 1362.73 855.003L1364.05 851.227L1365.37 847.45C1351.56 842.628 1336.4 840.244 1319.93 840.244V844.244ZM1364.05 851.227L1362.73 855.003C1375.46 859.448 1386.33 866.501 1395.41 876.179L1398.32 873.443L1401.24 870.708C1391.27 860.074 1379.3 852.315 1365.37 847.45L1364.05 851.227ZM1398.32 873.443L1395.44 876.211C1404.64 885.817 1411.77 898.657 1416.71 914.914L1420.54 913.751L1424.37 912.588C1419.15 895.414 1411.47 881.382 1401.21 870.676L1398.32 873.443ZM1420.54 913.751L1416.73 914.958C1421.86 931.167 1424.48 951.152 1424.48 975.006H1428.48H1432.48C1432.48 950.618 1429.8 929.766 1424.35 912.544L1420.54 913.751ZM1428.48 975.006H1424.48V1194H1428.48H1432.48V975.006H1428.48ZM1428.48 1194V1190H1336.43V1194V1198H1428.48V1194ZM1336.43 1194H1340.43V974.688H1336.43H1332.43V1194H1336.43ZM1336.43 974.688H1340.43C1340.43 959.17 1338.29 946.61 1333.66 937.353L1330.09 939.142L1326.51 940.93C1330.34 948.6 1332.43 959.738 1332.43 974.688H1336.43ZM1330.09 939.142L1333.66 937.353C1329.03 928.081 1322.08 921.444 1312.88 917.667L1311.36 921.368L1309.84 925.069C1317.14 928.063 1322.68 933.275 1326.51 940.93L1330.09 939.142ZM1311.36 921.368L1312.99 917.717C1304.3 913.825 1293.76 911.973 1281.53 911.973V915.973V919.973C1293 919.973 1302.35 921.717 1309.73 925.019L1311.36 921.368ZM1281.53 915.973V911.973C1268.72 911.973 1257.36 914.515 1247.59 919.745L1249.47 923.272L1251.36 926.8C1259.78 922.297 1269.79 919.973 1281.53 919.973V915.973ZM1249.47 923.272L1247.55 919.764C1238.09 924.945 1230.22 932.153 1223.95 941.329L1227.25 943.585L1230.56 945.841C1236.14 937.666 1243.08 931.333 1251.39 926.781L1249.47 923.272ZM1227.25 943.585L1223.94 941.347C1217.94 950.241 1213.43 960.617 1210.37 972.415L1214.24 973.419L1218.11 974.423C1220.98 963.37 1225.15 953.856 1230.57 945.823L1227.25 943.585ZM1214.24 973.419L1210.37 972.415C1207.31 984.203 1205.8 996.815 1205.8 1010.24H1209.8H1213.8C1213.8 997.418 1215.25 985.487 1218.11 974.423L1214.24 973.419ZM1551.81 1187.65L1550.29 1191.35L1550.31 1191.36L1550.32 1191.37L1551.81 1187.65ZM1497.86 1151.79L1494.97 1154.56L1494.98 1154.57L1494.99 1154.58L1497.86 1151.79ZM1464.21 1098.79L1460.48 1100.22L1460.49 1100.24L1464.21 1098.79ZM1463.58 949.933L1459.79 948.634L1463.58 949.933ZM1495.32 893.756L1492.31 891.113L1492.3 891.125L1492.29 891.136L1495.32 893.756ZM1546.1 857.257L1547.66 860.937L1547.68 860.93L1547.7 860.923L1546.1 857.257ZM1678.13 856.305L1676.56 859.983L1678.13 856.305ZM1725.42 890.582L1722.38 893.185L1722.39 893.198L1722.4 893.21L1725.42 890.582ZM1754.62 943.902L1750.8 945.109L1750.81 945.12L1754.62 943.902ZM1764.46 1050.54V1054.54H1768.46V1050.54H1764.46ZM1491.51 1050.54H1487.51V1054.54H1491.51V1050.54ZM1491.51 989.605V985.605H1487.51V989.605H1491.51ZM1674.64 989.605V993.605H1678.64V989.605H1674.64ZM1667.66 948.663L1663.99 950.266L1664.01 950.313L1664.03 950.359L1667.66 948.663ZM1560.06 945.807L1556.6 943.806L1556.58 943.835L1556.57 943.864L1560.06 945.807ZM1548 979.449L1544.09 978.615L1544.08 978.64L1544.08 978.665L1548 979.449ZM1549.91 1072.12L1546.1 1073.37L1546.11 1073.4L1546.13 1073.43L1549.91 1072.12ZM1566.73 1102.28L1563.68 1104.87L1563.7 1104.89L1563.72 1104.91L1566.73 1102.28ZM1593.39 1121.95L1591.75 1125.6L1591.76 1125.61L1591.78 1125.62L1593.39 1121.95ZM1675.27 1119.42L1676.91 1123.07L1676.92 1123.06L1676.93 1123.05L1675.27 1119.42ZM1712.41 1089.9L1715.35 1087.19L1712.17 1083.74L1709.27 1087.42L1712.41 1089.9ZM1756.84 1138.14L1760.13 1140.42L1761.95 1137.79L1759.78 1135.43L1756.84 1138.14ZM1727.32 1167.97L1724.9 1164.79L1724.88 1164.8L1724.87 1164.81L1727.32 1167.97ZM1682.89 1191.46L1684.18 1195.25L1684.2 1195.24L1684.22 1195.23L1682.89 1191.46ZM1623.54 1200.35V1196.35C1597.3 1196.35 1573.91 1192.18 1553.3 1183.94L1551.81 1187.65L1550.32 1191.37C1572.03 1200.05 1596.46 1204.35 1623.54 1204.35V1200.35ZM1551.81 1187.65L1553.33 1183.95C1532.64 1175.47 1515.12 1163.81 1500.72 1149L1497.86 1151.79L1494.99 1154.58C1510.21 1170.23 1528.67 1182.49 1550.29 1191.35L1551.81 1187.65ZM1497.86 1151.79L1500.74 1149.02C1486.52 1134.17 1475.58 1116.96 1467.94 1097.33L1464.21 1098.79L1460.49 1100.24C1468.5 1120.82 1480 1138.93 1494.97 1154.56L1497.86 1151.79ZM1464.21 1098.79L1467.95 1097.35C1460.3 1077.52 1456.47 1056.42 1456.47 1034.04H1452.47H1448.47C1448.47 1057.36 1452.47 1079.43 1460.48 1100.22L1464.21 1098.79ZM1452.47 1034.04H1456.47V1021.34H1452.47H1448.47V1034.04H1452.47ZM1452.47 1021.34H1456.47C1456.47 995.699 1460.12 972.341 1467.36 951.231L1463.58 949.933L1459.79 948.634C1452.23 970.688 1448.47 994.938 1448.47 1021.34H1452.47ZM1463.58 949.933L1467.36 951.231C1474.62 930.092 1484.95 911.825 1498.34 896.376L1495.32 893.756L1492.29 891.136C1478.18 907.425 1467.35 926.609 1459.79 948.634L1463.58 949.933ZM1495.32 893.756L1498.32 896.398C1511.88 880.989 1528.31 869.172 1547.66 860.937L1546.1 857.257L1544.53 853.576C1524.1 862.269 1506.68 874.785 1492.31 891.113L1495.32 893.756ZM1546.1 857.257L1547.7 860.923C1567.01 852.499 1588.88 848.244 1613.38 848.244V844.244V840.244C1587.95 840.244 1564.96 844.665 1544.5 853.59L1546.1 857.257ZM1613.38 844.244V848.244C1637.28 848.244 1658.31 852.191 1676.56 859.983L1678.13 856.305L1679.7 852.626C1660.29 844.338 1638.16 840.244 1613.38 840.244V844.244ZM1678.13 856.305L1676.56 859.983C1694.85 867.795 1710.11 878.864 1722.38 893.185L1725.42 890.582L1728.46 887.979C1715.34 872.678 1699.07 860.895 1679.7 852.626L1678.13 856.305ZM1725.42 890.582L1722.4 893.21C1734.91 907.565 1744.39 924.84 1750.8 945.109L1754.62 943.902L1758.43 942.696C1751.72 921.493 1741.74 903.222 1728.43 887.954L1725.42 890.582ZM1754.62 943.902L1750.81 945.12C1757.22 965.191 1760.46 987.623 1760.46 1012.46H1764.46H1768.46C1768.46 986.933 1765.13 963.662 1758.43 942.685L1754.62 943.902ZM1764.46 1012.46H1760.46V1050.54H1764.46H1768.46V1012.46H1764.46ZM1764.46 1050.54V1046.54H1491.51V1050.54V1054.54H1764.46V1050.54ZM1491.51 1050.54H1495.51V989.605H1491.51H1487.51V1050.54H1491.51ZM1491.51 989.605V993.605H1674.64V989.605V985.605H1491.51V989.605ZM1674.64 989.605H1678.64V982.623H1674.64H1670.64V989.605H1674.64ZM1674.64 982.623H1678.64C1678.64 969.433 1676.22 957.52 1671.28 946.967L1667.66 948.663L1664.03 950.359C1668.4 959.696 1670.64 970.423 1670.64 982.623H1674.64ZM1667.66 948.663L1671.32 947.06C1666.57 936.205 1659.29 927.55 1649.53 921.19L1647.34 924.542L1645.16 927.894C1653.59 933.383 1659.85 940.809 1663.99 950.266L1667.66 948.663ZM1647.34 924.542L1649.53 921.19C1639.61 914.731 1627.15 911.655 1612.43 911.655V915.655V919.655C1626.07 919.655 1636.88 922.504 1645.16 927.894L1647.34 924.542ZM1612.43 915.655V911.655C1599.77 911.655 1588.66 914.436 1579.24 920.175L1581.33 923.59L1583.41 927.005C1591.35 922.164 1600.97 919.655 1612.43 919.655V915.655ZM1581.33 923.59L1579.24 920.175C1569.95 925.841 1562.41 933.754 1556.6 943.806L1560.06 945.807L1563.53 947.808C1568.72 938.817 1575.35 931.918 1583.41 927.005L1581.33 923.59ZM1560.06 945.807L1556.57 943.864C1551.05 953.797 1546.91 965.4 1544.09 978.615L1548 979.449L1551.91 980.283C1554.6 967.685 1558.5 956.859 1563.56 947.749L1560.06 945.807ZM1548 979.449L1544.08 978.665C1541.48 991.659 1540.19 1005.89 1540.19 1021.34H1544.19H1548.19C1548.19 1006.33 1549.44 992.63 1551.92 980.234L1548 979.449ZM1544.19 1021.34H1540.19V1034.04H1544.19H1548.19V1021.34H1544.19ZM1544.19 1034.04H1540.19C1540.19 1048.16 1542.15 1061.28 1546.1 1073.37L1549.91 1072.12L1553.71 1070.88C1550.05 1059.69 1548.19 1047.42 1548.19 1034.04H1544.19ZM1549.91 1072.12L1546.13 1073.43C1550.29 1085.49 1556.13 1095.99 1563.68 1104.87L1566.73 1102.28L1569.78 1099.69C1562.94 1091.64 1557.56 1082.04 1553.69 1070.82L1549.91 1072.12ZM1566.73 1102.28L1563.72 1104.91C1571.51 1113.81 1580.86 1120.72 1591.75 1125.6L1593.39 1121.95L1595.03 1118.31C1585.18 1113.88 1576.76 1107.67 1569.74 1099.64L1566.73 1102.28ZM1593.39 1121.95L1591.78 1125.62C1602.94 1130.53 1615.45 1132.94 1629.25 1132.94V1128.94V1124.94C1616.39 1124.94 1605 1122.69 1595 1118.29L1593.39 1121.95ZM1629.25 1128.94V1132.94C1646.28 1132.94 1662.18 1129.66 1676.91 1123.07L1675.27 1119.42L1673.64 1115.76C1660.01 1121.87 1645.23 1124.94 1629.25 1124.94V1128.94ZM1675.27 1119.42L1676.93 1123.05C1691.93 1116.22 1704.81 1105.97 1715.54 1092.38L1712.41 1089.9L1709.27 1087.42C1699.27 1100.07 1687.39 1109.49 1673.61 1115.78L1675.27 1119.42ZM1712.41 1089.9L1709.46 1092.61L1753.9 1140.85L1756.84 1138.14L1759.78 1135.43L1715.35 1087.19L1712.41 1089.9ZM1756.84 1138.14L1753.55 1135.86C1746.65 1145.81 1737.13 1155.47 1724.9 1164.79L1727.32 1167.97L1729.75 1171.16C1742.49 1161.44 1752.64 1151.2 1760.13 1140.42L1756.84 1138.14ZM1727.32 1167.97L1724.87 1164.81C1712.99 1174.03 1698.58 1181.67 1681.56 1187.69L1682.89 1191.46L1684.22 1195.23C1701.9 1188.98 1717.11 1180.96 1729.78 1171.13L1727.32 1167.97ZM1682.89 1191.46L1681.6 1187.68C1664.74 1193.43 1645.41 1196.35 1623.54 1196.35V1200.35V1204.35C1646.11 1204.35 1666.34 1201.34 1684.18 1195.25L1682.89 1191.46ZM1780.2 949.615L1783.99 950.903L1783.99 950.891L1780.2 949.615ZM1811.62 894.073L1808.61 891.433L1811.62 894.073ZM1862.4 857.574L1863.99 861.247L1864 861.24L1864.02 861.233L1862.4 857.574ZM2001.1 857.574L1999.49 861.239L1999.51 861.246L1999.53 861.253L2001.1 857.574ZM2052.2 894.073L2049.19 896.713L2049.2 896.724L2049.21 896.736L2052.2 894.073ZM2083.93 949.615L2080.14 950.891L2080.15 950.903L2083.93 949.615ZM2083.93 1095.29L2087.72 1096.58L2087.73 1096.57L2083.93 1095.29ZM2052.2 1150.84L2049.19 1148.19L2049.19 1148.2L2052.2 1150.84ZM2001.42 1187.33L1999.83 1183.66L2001.42 1187.33ZM1862.72 1187.33L1861.13 1191.01L1861.14 1191.01L1861.15 1191.01L1862.72 1187.33ZM1811.62 1150.84L1808.6 1153.46L1808.62 1153.48L1808.63 1153.5L1811.62 1150.84ZM1780.2 1095.29L1776.41 1096.57L1776.41 1096.58L1780.2 1095.29ZM1876.68 1099.1L1873.22 1101.1L1873.25 1101.15L1873.27 1101.19L1876.68 1099.1ZM1986.82 1099.1L1990.26 1101.14L1990.27 1101.12L1990.28 1101.1L1986.82 1099.1ZM1998.88 1066.09L1994.97 1065.23L1994.96 1065.27L1994.96 1065.3L1998.88 1066.09ZM1998.88 979.767L1994.96 980.564L1994.96 980.603L1994.97 980.641L1998.88 979.767ZM1986.5 946.759L1983.02 948.727L1983.04 948.772L1983.07 948.817L1986.5 946.759ZM1898.58 923.907L1896.51 920.484L1896.5 920.495L1896.48 920.506L1898.58 923.907ZM1876.68 946.759L1873.23 944.734L1873.23 944.746L1873.22 944.758L1876.68 946.759ZM1864.62 979.767L1868.54 980.577L1868.54 980.564L1864.62 979.767ZM1769.41 1025.79H1773.41V1019.12H1769.41H1765.41V1025.79H1769.41ZM1769.41 1019.12H1773.41C1773.41 994.326 1776.95 971.598 1783.99 950.903L1780.2 949.615L1776.41 948.328C1769.06 969.95 1765.41 993.56 1765.41 1019.12H1769.41ZM1780.2 949.615L1783.99 950.891C1791.03 929.982 1801.25 911.941 1814.63 896.713L1811.62 894.073L1808.61 891.433C1794.48 907.521 1783.76 926.508 1776.41 948.339L1780.2 949.615ZM1811.62 894.073L1814.63 896.713C1827.97 881.523 1844.4 869.699 1863.99 861.247L1862.4 857.574L1860.82 853.902C1840.2 862.799 1822.78 875.308 1808.61 891.433L1811.62 894.073ZM1862.4 857.574L1864.02 861.233C1883.53 852.609 1906.02 848.244 1931.59 848.244V844.244V840.244C1905.11 840.244 1881.48 844.766 1860.78 853.916L1862.4 857.574ZM1931.59 844.244V848.244C1957.16 848.244 1979.77 852.608 1999.49 861.239L2001.1 857.574L2002.7 853.91C1981.8 844.767 1958.07 840.244 1931.59 840.244V844.244ZM2001.1 857.574L1999.53 861.253C2019.32 869.708 2035.86 881.531 2049.19 896.713L2052.2 894.073L2055.2 891.433C2041.03 875.3 2023.5 862.791 2002.67 853.896L2001.1 857.574ZM2052.2 894.073L2049.21 896.736C2062.79 911.961 2073.11 929.994 2080.14 950.891L2083.93 949.615L2087.73 948.339C2080.37 926.496 2069.53 907.501 2055.18 891.411L2052.2 894.073ZM2083.93 949.615L2080.15 950.903C2087.18 971.598 2090.73 994.326 2090.73 1019.12H2094.73H2098.73C2098.73 993.56 2095.07 969.95 2087.72 948.328L2083.93 949.615ZM2094.73 1019.12H2090.73V1025.79H2094.73H2098.73V1019.12H2094.73ZM2094.73 1025.79H2090.73C2090.73 1050.37 2087.19 1073.1 2080.14 1094.02L2083.93 1095.29L2087.73 1096.57C2095.07 1074.75 2098.73 1051.14 2098.73 1025.79H2094.73ZM2083.93 1095.29L2080.15 1094.01C2073.11 1114.7 2062.79 1132.74 2049.19 1148.19L2052.2 1150.84L2055.2 1153.48C2069.53 1137.19 2080.37 1118.21 2087.72 1096.58L2083.93 1095.29ZM2052.2 1150.84L2049.19 1148.2C2035.85 1163.39 2019.42 1175.21 1999.83 1183.66L2001.42 1187.33L2003 1191.01C2023.62 1182.11 2041.04 1169.6 2055.2 1153.48L2052.2 1150.84ZM2001.42 1187.33L1999.83 1183.66C1980.31 1192.08 1957.81 1196.35 1932.23 1196.35V1200.35V1204.35C1958.69 1204.35 1982.31 1199.94 2003 1191.01L2001.42 1187.33ZM1932.23 1200.35V1196.35C1906.65 1196.35 1884.03 1192.09 1864.29 1183.66L1862.72 1187.33L1861.15 1191.01C1882.04 1199.94 1905.76 1204.35 1932.23 1204.35V1200.35ZM1862.72 1187.33L1864.3 1183.66C1844.71 1175.21 1828.17 1163.38 1814.61 1148.17L1811.62 1150.84L1808.63 1153.5C1823 1169.61 1840.52 1182.11 1861.13 1191.01L1862.72 1187.33ZM1811.62 1150.84L1814.64 1148.22C1801.25 1132.76 1791.02 1114.71 1783.99 1094.01L1780.2 1095.29L1776.41 1096.58C1783.76 1118.2 1794.48 1137.17 1808.6 1153.46L1811.62 1150.84ZM1780.2 1095.29L1783.99 1094.02C1776.95 1073.1 1773.41 1050.37 1773.41 1025.79H1769.41H1765.41C1765.41 1051.14 1769.06 1074.75 1776.41 1096.57L1780.2 1095.29ZM1860.81 1019.12H1856.81V1025.79H1860.81H1864.81V1019.12H1860.81ZM1860.81 1025.79H1856.81C1856.81 1040.41 1858.1 1054.11 1860.7 1066.89L1864.62 1066.09L1868.54 1065.3C1866.06 1053.11 1864.81 1039.94 1864.81 1025.79H1860.81ZM1864.62 1066.09L1860.7 1066.89C1863.32 1079.73 1867.47 1091.15 1873.22 1101.1L1876.68 1099.1L1880.15 1097.1C1874.89 1088.01 1871.01 1077.42 1868.54 1065.3L1864.62 1066.09ZM1876.68 1099.1L1873.27 1101.19C1879.32 1111.05 1887.2 1118.82 1896.89 1124.46L1898.9 1121L1900.91 1117.54C1892.41 1112.6 1885.47 1105.78 1880.09 1097.01L1876.68 1099.1ZM1898.9 1121L1896.89 1124.46C1906.73 1130.18 1918.57 1132.94 1932.23 1132.94V1128.94V1124.94C1919.64 1124.94 1909.27 1122.4 1900.91 1117.54L1898.9 1121ZM1932.23 1128.94V1132.94C1945.48 1132.94 1957.1 1130.17 1966.93 1124.46L1964.92 1121L1962.91 1117.54C1954.53 1122.41 1944.36 1124.94 1932.23 1124.94V1128.94ZM1964.92 1121L1966.93 1124.46C1976.63 1118.82 1984.42 1111.02 1990.26 1101.14L1986.82 1099.1L1983.37 1097.07C1978.21 1105.81 1971.4 1112.61 1962.91 1117.54L1964.92 1121ZM1986.82 1099.1L1990.28 1101.1C1996.03 1091.15 2000.18 1079.73 2002.8 1066.89L1998.88 1066.09L1994.96 1065.3C1992.49 1077.42 1988.61 1088.01 1983.35 1097.1L1986.82 1099.1ZM1998.88 1066.09L2002.78 1066.96C2005.6 1054.16 2007 1040.43 2007 1025.79H2003H1999C1999 1039.92 1997.65 1053.07 1994.97 1065.23L1998.88 1066.09ZM2003 1025.79H2007V1019.12H2003H1999V1025.79H2003ZM2003 1019.12H2007C2007 1004.89 2005.6 991.481 2002.78 978.892L1998.88 979.767L1994.97 980.641C1997.65 992.597 1999 1005.42 1999 1019.12H2003ZM1998.88 979.767L2002.8 978.969C2000.18 966.105 1995.91 954.664 1989.93 944.701L1986.5 946.759L1983.07 948.817C1988.52 957.896 1992.49 968.461 1994.96 980.564L1998.88 979.767ZM1986.5 946.759L1989.98 944.791C1984.16 934.491 1976.39 926.36 1966.67 920.484L1964.6 923.907L1962.53 927.33C1971.01 932.457 1977.83 939.56 1983.02 948.727L1986.5 946.759ZM1964.6 923.907L1966.67 920.484C1956.82 914.532 1945.07 911.655 1931.59 911.655V915.655V919.655C1943.92 919.655 1954.18 922.28 1962.53 927.33L1964.6 923.907ZM1931.59 915.655V911.655C1918.11 911.655 1906.36 914.532 1896.51 920.484L1898.58 923.907L1900.65 927.33C1909.01 922.28 1919.26 919.655 1931.59 919.655V915.655ZM1898.58 923.907L1896.48 920.506C1886.99 926.377 1879.25 934.486 1873.23 944.734L1876.68 946.759L1880.13 948.784C1885.54 939.566 1892.4 932.44 1900.69 927.308L1898.58 923.907ZM1876.68 946.759L1873.22 944.758C1867.47 954.707 1863.32 966.128 1860.7 978.969L1864.62 979.767L1868.54 980.564C1871.01 968.438 1874.89 957.853 1880.15 948.76L1876.68 946.759ZM1864.62 979.767L1860.71 978.956C1858.11 991.523 1856.81 1004.92 1856.81 1019.12H1860.81H1864.81C1864.81 1005.4 1866.06 992.554 1868.54 980.577L1864.62 979.767Z" fill="black" mask="url(#path-5-outside-1_82_312)"/>
</g>
<g opacity="0.25">
<path d="M1851.61 538.81C1870.94 504.064 1914.77 491.566 1949.52 510.894V510.894L1857.42 676.465C1842 704.168 1807.05 714.133 1779.35 698.723L1766.6 691.63L1851.61 538.81Z" fill="url(#paint6_linear_82_312)"/>
<path d="M1851.61 538.81C1870.94 504.064 1914.77 491.566 1949.52 510.894V510.894L1857.42 676.465C1842 704.168 1807.05 714.133 1779.35 698.723L1766.6 691.63L1851.61 538.81Z" fill="url(#paint7_linear_82_312)"/>
<path d="M1961.52 483.846C1980.85 449.1 2024.69 436.602 2059.43 455.93V455.93L1967.33 621.501C1951.92 649.205 1916.97 659.17 1889.26 643.759L1876.51 636.666L1961.52 483.846Z" fill="url(#paint8_linear_82_312)"/>
<path d="M1961.52 483.846C1980.85 449.1 2024.69 436.602 2059.43 455.93V455.93L1967.33 621.501C1951.92 649.205 1916.97 659.17 1889.26 643.759L1876.51 636.666L1961.52 483.846Z" fill="url(#paint9_linear_82_312)"/>
<path d="M2059.57 439.5C2078.9 404.755 2122.74 392.257 2157.48 411.585V411.585L2065.38 577.156C2049.97 604.859 2015.02 614.824 1987.31 599.413L1974.56 592.32L2059.57 439.5Z" fill="url(#paint10_linear_82_312)"/>
<path d="M2059.57 439.5C2078.9 404.755 2122.74 392.257 2157.48 411.585V411.585L2065.38 577.156C2049.97 604.859 2015.02 614.824 1987.31 599.413L1974.56 592.32L2059.57 439.5Z" fill="url(#paint11_linear_82_312)"/>
</g>
<g opacity="0.25">
<path d="M1443.42 -89.7215C1479.16 -72.3101 1494.02 -29.2187 1476.61 6.52578V6.52578L1306.28 -76.4443C1277.78 -90.3268 1265.93 -124.684 1279.81 -153.184L1286.2 -166.302L1443.42 -89.7215Z" fill="url(#paint12_linear_82_312)"/>
<path d="M1443.42 -89.7215C1479.16 -72.3101 1494.02 -29.2187 1476.61 6.52578V6.52578L1306.28 -76.4443C1277.78 -90.3268 1265.93 -124.684 1279.81 -153.184L1286.2 -166.302L1443.42 -89.7215Z" fill="url(#paint13_linear_82_312)"/>
<path d="M1504.27 17.0421C1540.02 34.4536 1554.88 77.545 1537.47 113.289V113.289L1367.14 30.3194C1338.64 16.4369 1326.79 -17.9208 1340.67 -46.4206L1347.06 -59.5382L1504.27 17.0421Z" fill="url(#paint14_linear_82_312)"/>
<path d="M1504.27 17.0421C1540.02 34.4536 1554.88 77.545 1537.47 113.289V113.289L1367.14 30.3194C1338.64 16.4369 1326.79 -17.9208 1340.67 -46.4206L1347.06 -59.5382L1504.27 17.0421Z" fill="url(#paint15_linear_82_312)"/>
<path d="M1553.88 112.536C1589.63 129.948 1604.49 173.039 1587.08 208.784V208.784L1416.75 125.814C1388.25 111.931 1376.4 77.5734 1390.28 49.0736L1396.67 35.9559L1553.88 112.536Z" fill="url(#paint16_linear_82_312)"/>
<path d="M1553.88 112.536C1589.63 129.948 1604.49 173.039 1587.08 208.784V208.784L1416.75 125.814C1388.25 111.931 1376.4 77.5734 1390.28 49.0736L1396.67 35.9559L1553.88 112.536Z" fill="url(#paint17_linear_82_312)"/>
</g>
<path d="M165.831 593.891C165.831 598.771 169.789 602.729 174.669 602.729C179.549 602.729 183.507 598.771 183.507 593.891L183.507 576.216C183.507 571.335 179.549 567.378 174.669 567.378C169.789 567.378 165.831 571.335 165.831 576.216L165.831 593.891ZM150.809 621.637C154.3 625.051 159.892 624.99 163.311 621.503C164.994 619.782 165.831 617.55 165.831 615.319C165.831 613.028 164.942 610.736 163.177 609.002C156.113 602.094 152.376 592.406 152.911 582.312C153.395 573.5 157.05 565.297 163.204 559.216C166.682 555.781 166.708 550.188 163.282 546.719C159.851 543.245 154.254 543.21 150.784 546.641C141.497 555.811 135.987 568.135 135.262 581.353C134.432 596.556 140.12 611.164 150.809 621.637Z" fill="#AAAAAA"/>
<path d="M147.093 634.057C147.093 631.774 146.218 629.495 144.461 627.765C132.093 615.557 125.516 598.442 126.397 580.974C127.222 565.611 133.642 551.224 144.483 540.462C147.944 537.026 147.969 531.425 144.526 527.964C141.086 524.499 135.494 524.482 132.028 527.921C118.073 541.773 109.805 560.281 108.747 580.05C107.608 602.61 116.096 624.601 132.05 640.348C135.524 643.775 141.116 643.74 144.547 640.262C146.248 638.54 147.093 636.3 147.093 634.057Z" fill="#AAAAAA"/>
<path d="M239.456 558.362V608.128H232.962V558.362H239.456ZM255.452 558.362V563.763H217V558.362H255.452ZM276.288 601.805V582.767C276.288 581.308 275.992 580.044 275.399 578.973C274.83 577.879 273.964 577.036 272.802 576.443C271.64 575.851 270.204 575.555 268.495 575.555C266.9 575.555 265.499 575.828 264.291 576.375C263.106 576.922 262.172 577.64 261.488 578.528C260.827 579.417 260.497 580.374 260.497 581.399H254.174C254.174 580.078 254.516 578.768 255.199 577.469C255.883 576.17 256.863 574.996 258.139 573.948C259.438 572.877 260.987 572.034 262.787 571.419C264.61 570.781 266.638 570.462 268.871 570.462C271.56 570.462 273.93 570.918 275.98 571.829C278.054 572.741 279.672 574.119 280.834 575.965C282.019 577.788 282.611 580.078 282.611 582.835V600.062C282.611 601.292 282.714 602.602 282.919 603.992C283.147 605.382 283.477 606.578 283.91 607.581V608.128H277.313C276.994 607.399 276.744 606.43 276.562 605.223C276.379 603.992 276.288 602.853 276.288 601.805ZM277.382 585.706L277.45 590.149H271.059C269.258 590.149 267.652 590.298 266.239 590.594C264.826 590.867 263.642 591.289 262.685 591.858C261.728 592.428 260.998 593.146 260.497 594.012C259.996 594.855 259.745 595.846 259.745 596.985C259.745 598.147 260.007 599.207 260.531 600.164C261.055 601.121 261.841 601.884 262.89 602.454C263.961 603.001 265.271 603.274 266.82 603.274C268.757 603.274 270.466 602.864 271.947 602.044C273.428 601.224 274.602 600.221 275.468 599.036C276.356 597.851 276.835 596.701 276.903 595.584L279.604 598.626C279.444 599.583 279.011 600.643 278.305 601.805C277.598 602.967 276.653 604.083 275.468 605.154C274.306 606.202 272.916 607.08 271.298 607.786C269.703 608.47 267.903 608.812 265.897 608.812C263.391 608.812 261.192 608.322 259.301 607.342C257.432 606.362 255.974 605.052 254.926 603.411C253.9 601.748 253.388 599.891 253.388 597.84C253.388 595.857 253.775 594.114 254.55 592.61C255.325 591.084 256.441 589.819 257.899 588.816C259.358 587.791 261.112 587.016 263.163 586.492C265.214 585.968 267.504 585.706 270.033 585.706H277.382ZM295.381 578.255V622.347H289.023V571.146H294.834L295.381 578.255ZM320.298 589.329V590.047C320.298 592.736 319.979 595.231 319.341 597.532C318.703 599.811 317.769 601.793 316.538 603.479C315.33 605.166 313.838 606.476 312.061 607.41C310.283 608.344 308.244 608.812 305.942 608.812C303.595 608.812 301.522 608.424 299.722 607.649C297.922 606.875 296.395 605.747 295.142 604.266C293.888 602.785 292.886 601.007 292.134 598.934C291.405 596.86 290.903 594.524 290.63 591.927V588.099C290.903 585.364 291.416 582.915 292.168 580.75C292.92 578.585 293.911 576.74 295.142 575.213C296.395 573.663 297.91 572.49 299.688 571.692C301.465 570.872 303.516 570.462 305.84 570.462C308.164 570.462 310.226 570.918 312.026 571.829C313.826 572.718 315.342 573.994 316.572 575.657C317.803 577.321 318.726 579.314 319.341 581.639C319.979 583.94 320.298 586.504 320.298 589.329ZM313.94 590.047V589.329C313.94 587.483 313.747 585.752 313.359 584.134C312.972 582.493 312.368 581.058 311.548 579.827C310.75 578.574 309.725 577.594 308.472 576.888C307.218 576.159 305.726 575.794 303.994 575.794C302.399 575.794 301.009 576.067 299.824 576.614C298.662 577.161 297.671 577.902 296.851 578.836C296.03 579.747 295.358 580.796 294.834 581.98C294.333 583.143 293.957 584.35 293.706 585.604V594.456C294.162 596.051 294.8 597.555 295.62 598.968C296.44 600.358 297.534 601.486 298.901 602.352C300.269 603.195 301.989 603.616 304.062 603.616C305.771 603.616 307.241 603.263 308.472 602.557C309.725 601.827 310.75 600.836 311.548 599.583C312.368 598.33 312.972 596.894 313.359 595.276C313.747 593.636 313.94 591.893 313.94 590.047ZM372.189 579.759V585.125H345.256V579.759H372.189ZM346.281 558.362V608.128H339.685V558.362H346.281ZM377.932 558.362V608.128H371.369V558.362H377.932ZM400.545 608.812C397.97 608.812 395.634 608.379 393.538 607.513C391.465 606.624 389.676 605.382 388.172 603.787C386.691 602.192 385.551 600.301 384.754 598.113C383.956 595.926 383.558 593.533 383.558 590.936V589.5C383.558 586.492 384.002 583.815 384.891 581.468C385.779 579.098 386.987 577.093 388.514 575.452C390.04 573.812 391.772 572.57 393.709 571.727C395.646 570.883 397.651 570.462 399.725 570.462C402.368 570.462 404.646 570.918 406.561 571.829C408.497 572.741 410.081 574.017 411.312 575.657C412.542 577.275 413.453 579.189 414.046 581.399C414.638 583.587 414.935 585.979 414.935 588.577V591.414H387.317V586.253H408.611V585.774C408.52 584.134 408.178 582.539 407.586 580.989C407.016 579.44 406.105 578.164 404.852 577.161C403.598 576.159 401.889 575.657 399.725 575.657C398.289 575.657 396.967 575.965 395.76 576.58C394.552 577.173 393.515 578.061 392.649 579.246C391.784 580.431 391.111 581.878 390.633 583.587C390.154 585.296 389.915 587.267 389.915 589.5V590.936C389.915 592.69 390.154 594.342 390.633 595.892C391.134 597.418 391.852 598.763 392.786 599.925C393.743 601.087 394.894 601.998 396.238 602.659C397.605 603.32 399.155 603.65 400.887 603.65C403.12 603.65 405.011 603.195 406.561 602.283C408.11 601.372 409.466 600.153 410.628 598.626L414.456 601.668C413.659 602.876 412.645 604.026 411.414 605.12C410.184 606.214 408.668 607.103 406.868 607.786C405.091 608.47 402.983 608.812 400.545 608.812ZM425.141 576.956V608.128H418.817V571.146H424.97L425.141 576.956ZM436.693 570.94L436.659 576.819C436.135 576.705 435.634 576.637 435.155 576.614C434.7 576.569 434.175 576.546 433.583 576.546C432.125 576.546 430.837 576.774 429.721 577.229C428.604 577.685 427.659 578.323 426.884 579.144C426.109 579.964 425.494 580.944 425.038 582.083C424.605 583.2 424.32 584.43 424.184 585.774L422.406 586.8C422.406 584.567 422.623 582.47 423.056 580.511C423.511 578.551 424.206 576.819 425.141 575.315C426.075 573.789 427.26 572.604 428.695 571.761C430.154 570.895 431.885 570.462 433.891 570.462C434.346 570.462 434.87 570.519 435.463 570.633C436.055 570.724 436.465 570.826 436.693 570.94ZM453.701 608.812C451.126 608.812 448.791 608.379 446.694 607.513C444.621 606.624 442.832 605.382 441.328 603.787C439.847 602.192 438.708 600.301 437.91 598.113C437.113 595.926 436.714 593.533 436.714 590.936V589.5C436.714 586.492 437.158 583.815 438.047 581.468C438.936 579.098 440.143 577.093 441.67 575.452C443.197 573.812 444.928 572.57 446.865 571.727C448.802 570.883 450.807 570.462 452.881 570.462C455.524 570.462 457.803 570.918 459.717 571.829C461.654 572.741 463.237 574.017 464.468 575.657C465.698 577.275 466.61 579.189 467.202 581.399C467.795 583.587 468.091 585.979 468.091 588.577V591.414H440.474V586.253H461.768V585.774C461.676 584.134 461.335 582.539 460.742 580.989C460.173 579.44 459.261 578.164 458.008 577.161C456.755 576.159 455.046 575.657 452.881 575.657C451.445 575.657 450.124 575.965 448.916 576.58C447.708 577.173 446.672 578.061 445.806 579.246C444.94 580.431 444.268 581.878 443.789 583.587C443.311 585.296 443.071 587.267 443.071 589.5V590.936C443.071 592.69 443.311 594.342 443.789 595.892C444.29 597.418 445.008 598.763 445.942 599.925C446.899 601.087 448.05 601.998 449.395 602.659C450.762 603.32 452.311 603.65 454.043 603.65C456.276 603.65 458.167 603.195 459.717 602.283C461.266 601.372 462.622 600.153 463.784 598.626L467.612 601.668C466.815 602.876 465.801 604.026 464.57 605.12C463.34 606.214 461.825 607.103 460.024 607.786C458.247 608.47 456.139 608.812 453.701 608.812Z" fill="#AAAAAA"/>
<g opacity="0.25">
<path d="M987.212 1053.76C1022.96 1071.17 1037.82 1114.26 1020.41 1150V1150L850.075 1067.03C821.575 1053.15 809.725 1018.79 823.608 990.292L829.998 977.175L987.212 1053.76Z" fill="url(#paint18_linear_82_312)"/>
<path d="M987.212 1053.76C1022.96 1071.17 1037.82 1114.26 1020.41 1150V1150L850.075 1067.03C821.575 1053.15 809.725 1018.79 823.608 990.292L829.998 977.175L987.212 1053.76Z" fill="url(#paint19_linear_82_312)"/>
<path d="M1048.07 1160.52C1083.81 1177.93 1098.67 1221.02 1081.26 1256.77V1256.77L910.93 1173.8C882.431 1159.91 870.581 1125.56 884.463 1097.06L890.853 1083.94L1048.07 1160.52Z" fill="url(#paint20_linear_82_312)"/>
<path d="M1048.07 1160.52C1083.81 1177.93 1098.67 1221.02 1081.26 1256.77V1256.77L910.93 1173.8C882.431 1159.91 870.581 1125.56 884.463 1097.06L890.853 1083.94L1048.07 1160.52Z" fill="url(#paint21_linear_82_312)"/>
</g>
</g>
<defs>
<linearGradient id="paint0_linear_82_312" x1="45.4481" y1="45.4482" x2="2018.39" y2="1142.51" gradientUnits="userSpaceOnUse">
<stop stop-color="white"/>
<stop offset="0.5" stop-color="#E6E6E6"/>
<stop offset="1" stop-color="white"/>
</linearGradient>
<linearGradient id="paint1_linear_82_312" x1="45.4481" y1="45.4482" x2="2018.39" y2="1142.51" gradientUnits="userSpaceOnUse">
<stop/>
<stop offset="0.5" stop-color="#101010"/>
<stop offset="1"/>
</linearGradient>
<linearGradient id="paint2_linear_82_312" x1="84.9465" y1="77.0469" x2="1962.11" y2="1202.75" gradientUnits="userSpaceOnUse">
<stop stop-color="#404040"/>
<stop offset="1" stop-color="#A6A6A6"/>
</linearGradient>
<linearGradient id="paint3_linear_82_312" x1="174.363" y1="215.548" x2="192.596" y2="144.737" gradientUnits="userSpaceOnUse">
<stop stop-color="#9BFF37"/>
<stop offset="0.460602" stop-color="#00D7C2"/>
<stop offset="1" stop-color="#0BAEFF"/>
</linearGradient>
<linearGradient id="paint4_linear_82_312" x1="222.586" y1="127.611" x2="157.375" y2="81.0381" gradientUnits="userSpaceOnUse">
<stop stop-color="#80FF00"/>
<stop offset="0.440209" stop-color="#00FFE7"/>
<stop offset="1" stop-color="#00AAFF"/>
</linearGradient>
<linearGradient id="paint5_linear_82_312" x1="201.582" y1="123.829" x2="142.46" y2="154.962" gradientUnits="userSpaceOnUse">
<stop stop-color="#47C2FA"/>
<stop offset="1"/>
</linearGradient>
<linearGradient id="paint6_linear_82_312" x1="1880.02" y1="677.997" x2="1865.77" y2="504.861" gradientUnits="userSpaceOnUse">
<stop stop-color="#D7FFAF"/>
<stop offset="0.589182" stop-color="#8BDFD7"/>
<stop offset="1" stop-color="#3FBFFF"/>
</linearGradient>
<linearGradient id="paint7_linear_82_312" x1="1861.43" y1="630.166" x2="1947.32" y2="559.586" gradientUnits="userSpaceOnUse">
<stop stop-color="#9BFF37"/>
<stop offset="1" stop-color="#47C2FA"/>
</linearGradient>
<linearGradient id="paint8_linear_82_312" x1="1989.93" y1="623.033" x2="1975.68" y2="449.897" gradientUnits="userSpaceOnUse">
<stop stop-color="#D7FFAF"/>
<stop offset="0.589182" stop-color="#8BDFD7"/>
<stop offset="1" stop-color="#3FBFFF"/>
</linearGradient>
<linearGradient id="paint9_linear_82_312" x1="1971.35" y1="575.202" x2="2057.24" y2="504.622" gradientUnits="userSpaceOnUse">
<stop stop-color="#9BFF37"/>
<stop offset="1" stop-color="#47C2FA"/>
</linearGradient>
<linearGradient id="paint10_linear_82_312" x1="2087.98" y1="578.687" x2="2073.73" y2="405.552" gradientUnits="userSpaceOnUse">
<stop stop-color="#D7FFAF"/>
<stop offset="0.589182" stop-color="#8BDFD7"/>
<stop offset="1" stop-color="#3FBFFF"/>
</linearGradient>
<linearGradient id="paint11_linear_82_312" x1="2069.39" y1="530.857" x2="2155.29" y2="460.277" gradientUnits="userSpaceOnUse">
<stop stop-color="#9BFF37"/>
<stop offset="1" stop-color="#47C2FA"/>
</linearGradient>
<linearGradient id="paint12_linear_82_312" x1="1305.98" y1="-53.791" x2="1478.08" y2="-77.432" gradientUnits="userSpaceOnUse">
<stop stop-color="#D7FFAF"/>
<stop offset="0.589182" stop-color="#8BDFD7"/>
<stop offset="1" stop-color="#3FBFFF"/>
</linearGradient>
<linearGradient id="paint13_linear_82_312" x1="1352.73" y1="-74.9502" x2="1427.87" y2="6.97999" gradientUnits="userSpaceOnUse">
<stop stop-color="#9BFF37"/>
<stop offset="1" stop-color="#47C2FA"/>
</linearGradient>
<linearGradient id="paint14_linear_82_312" x1="1366.84" y1="52.9727" x2="1538.94" y2="29.3316" gradientUnits="userSpaceOnUse">
<stop stop-color="#D7FFAF"/>
<stop offset="0.589182" stop-color="#8BDFD7"/>
<stop offset="1" stop-color="#3FBFFF"/>
</linearGradient>
<linearGradient id="paint15_linear_82_312" x1="1413.59" y1="31.8135" x2="1488.73" y2="113.744" gradientUnits="userSpaceOnUse">
<stop stop-color="#9BFF37"/>
<stop offset="1" stop-color="#47C2FA"/>
</linearGradient>
<linearGradient id="paint16_linear_82_312" x1="1416.44" y1="148.467" x2="1588.55" y2="124.826" gradientUnits="userSpaceOnUse">
<stop stop-color="#D7FFAF"/>
<stop offset="0.589182" stop-color="#8BDFD7"/>
<stop offset="1" stop-color="#3FBFFF"/>
</linearGradient>
<linearGradient id="paint17_linear_82_312" x1="1463.19" y1="127.308" x2="1538.34" y2="209.238" gradientUnits="userSpaceOnUse">
<stop stop-color="#9BFF37"/>
<stop offset="1" stop-color="#47C2FA"/>
</linearGradient>
<linearGradient id="paint18_linear_82_312" x1="849.774" y1="1089.69" x2="1021.88" y2="1066.04" gradientUnits="userSpaceOnUse">
<stop stop-color="#D7FFAF"/>
<stop offset="0.589182" stop-color="#8BDFD7"/>
<stop offset="1" stop-color="#3FBFFF"/>
</linearGradient>
<linearGradient id="paint19_linear_82_312" x1="896.524" y1="1068.53" x2="971.667" y2="1150.46" gradientUnits="userSpaceOnUse">
<stop stop-color="#9BFF37"/>
<stop offset="1" stop-color="#47C2FA"/>
</linearGradient>
<linearGradient id="paint20_linear_82_312" x1="910.629" y1="1196.45" x2="1082.73" y2="1172.81" gradientUnits="userSpaceOnUse">
<stop stop-color="#D7FFAF"/>
<stop offset="0.589182" stop-color="#8BDFD7"/>
<stop offset="1" stop-color="#3FBFFF"/>
</linearGradient>
<linearGradient id="paint21_linear_82_312" x1="957.379" y1="1175.29" x2="1032.52" y2="1257.22" gradientUnits="userSpaceOnUse">
<stop stop-color="#9BFF37"/>
<stop offset="1" stop-color="#47C2FA"/>
</linearGradient>
</defs>
</svg>
