<svg viewBox="0 0 1025 593" fill="none" xmlns="http://www.w3.org/2000/svg">
<rect x="1" y="1" width="1023" height="591" rx="51" fill="url(#paint0_linear_82_312)" stroke="#404040" stroke-width="2"/>
<mask id="mask0_82_312" style="mask-type:alpha" maskUnits="userSpaceOnUse" x="0" y="0">
<rect x="1" y="1" width="1023" height="591" rx="51" fill="url(#paint1_linear_82_312)" stroke="url(#paint2_linear_82_312)" stroke-width="2"/>
</mask>
<g mask="url(#mask0_82_312)">
<path d="M84.2166 85.4517C86.4358 73.6559 97.7972 65.8924 109.593 68.1115L102.546 105.57C100.327 117.366 88.9656 125.129 77.1697 122.91L84.2166 85.4517Z" fill="url(#paint3_linear_82_312)"/>
<path d="M73.2364 51C63.717 51 56 58.717 56 68.2364L117.764 68.2364C127.283 68.2364 135 60.5194 135 51L73.2364 51Z" fill="url(#paint4_linear_82_312)"/>
<path d="M73.2364 51C63.717 51 56 58.717 56 68.2364L117.764 68.2364C127.283 68.2364 135 60.5194 135 51L73.2364 51Z" fill="url(#paint5_linear_82_312)" fill-opacity="0.2"/>
<g opacity="0.12">
<mask id="path-5-outside-1_82_312" maskUnits="userSpaceOnUse" x="574" y="395" width="521" height="195" fill="black">
<rect fill="white" x="574" y="395" width="521" height="195"/>
<path d="M624.334 439.565V585H575.115V400.088H621.258L624.334 439.565ZM617.156 486.05H603.826C603.826 472.378 605.592 460.073 609.124 449.136C612.656 438.084 617.612 428.685 623.992 420.938C630.372 413.076 637.949 407.095 646.722 402.993C655.608 398.778 665.521 396.67 676.458 396.67C685.117 396.67 693.035 397.923 700.213 400.43C707.391 402.936 713.543 406.924 718.67 412.393C723.911 417.861 727.898 425.096 730.633 434.097C733.481 443.097 734.905 454.092 734.905 467.08V585H685.345V466.909C685.345 458.706 684.205 452.326 681.927 447.769C679.648 443.211 676.287 440.021 671.844 438.198C667.514 436.261 662.16 435.293 655.779 435.293C649.171 435.293 643.418 436.603 638.519 439.224C633.733 441.844 629.746 445.49 626.556 450.161C623.479 454.718 621.144 460.073 619.549 466.226C617.954 472.378 617.156 478.986 617.156 486.05ZM839.939 588.418C825.584 588.418 812.71 586.139 801.316 581.582C789.923 576.911 780.239 570.474 772.264 562.271C764.402 554.067 758.364 544.554 754.148 533.73C749.933 522.793 747.825 511.172 747.825 498.867V492.031C747.825 478.018 749.819 465.2 753.807 453.579C757.794 441.958 763.491 431.875 770.896 423.33C778.416 414.785 787.531 408.234 798.24 403.677C808.95 399.006 821.027 396.67 834.471 396.67C847.573 396.67 859.194 398.835 869.334 403.164C879.474 407.493 887.962 413.646 894.798 421.621C901.748 429.596 906.989 439.167 910.521 450.332C914.052 461.383 915.818 473.688 915.818 487.246V507.754H768.846V474.941H867.454V471.182C867.454 464.346 866.201 458.25 863.694 452.896C861.302 447.427 857.656 443.097 852.757 439.907C847.858 436.717 841.591 435.122 833.958 435.122C827.464 435.122 821.881 436.546 817.21 439.395C812.539 442.243 808.722 446.23 805.76 451.357C802.911 456.484 800.747 462.523 799.266 469.473C797.898 476.309 797.215 483.828 797.215 492.031V498.867C797.215 506.273 798.24 513.109 800.291 519.375C802.456 525.641 805.475 531.053 809.349 535.61C813.336 540.168 818.121 543.7 823.704 546.206C829.401 548.713 835.838 549.966 843.016 549.966C851.902 549.966 860.162 548.257 867.796 544.839C875.543 541.307 882.208 536.009 887.791 528.945L911.717 554.922C907.843 560.505 902.545 565.859 895.823 570.986C889.215 576.113 881.24 580.329 871.897 583.633C862.555 586.823 851.902 588.418 839.939 588.418ZM918.484 494.424V490.835C918.484 477.277 920.421 464.801 924.295 453.408C928.169 441.901 933.808 431.932 941.214 423.501C948.619 415.07 957.734 408.519 968.558 403.848C979.381 399.062 991.8 396.67 1005.81 396.67C1019.83 396.67 1032.3 399.062 1043.24 403.848C1054.18 408.519 1063.35 415.07 1070.75 423.501C1078.27 431.932 1083.97 441.901 1087.84 453.408C1091.72 464.801 1093.66 477.277 1093.66 490.835V494.424C1093.66 507.868 1091.72 520.343 1087.84 531.851C1083.97 543.244 1078.27 553.213 1070.75 561.758C1063.35 570.189 1054.23 576.74 1043.41 581.411C1032.59 586.082 1020.17 588.418 1006.16 588.418C992.142 588.418 979.666 586.082 968.729 581.411C957.905 576.74 948.733 570.189 941.214 561.758C933.808 553.213 928.169 543.244 924.295 531.851C920.421 520.343 918.484 507.868 918.484 494.424ZM967.703 490.835V494.424C967.703 502.171 968.387 509.406 969.754 516.128C971.121 522.85 973.286 528.774 976.248 533.901C979.324 538.914 983.312 542.845 988.211 545.693C993.11 548.542 999.091 549.966 1006.16 549.966C1012.99 549.966 1018.86 548.542 1023.76 545.693C1028.66 542.845 1032.59 538.914 1035.55 533.901C1038.51 528.774 1040.68 522.85 1042.04 516.128C1043.53 509.406 1044.27 502.171 1044.27 494.424V490.835C1044.27 483.315 1043.53 476.252 1042.04 469.644C1040.68 462.922 1038.46 456.997 1035.38 451.87C1032.42 446.629 1028.49 442.528 1023.59 439.565C1018.69 436.603 1012.76 435.122 1005.81 435.122C998.864 435.122 992.939 436.603 988.04 439.565C983.255 442.528 979.324 446.629 976.248 451.87C973.286 456.997 971.121 462.922 969.754 469.644C968.387 476.252 967.703 483.315 967.703 490.835Z"/>
</mask>
<path d="M624.334 439.565H625.334V439.527L625.331 439.488L624.334 439.565ZM624.334 585V586H625.334V585H624.334ZM575.115 585H574.115V586H575.115V585ZM575.115 400.088V399.088H574.115V400.088H575.115ZM621.258 400.088L622.255 400.01L622.183 399.088H621.258V400.088ZM617.156 486.05V487.05H618.156V486.05H617.156ZM603.826 486.05H602.826V487.05H603.826V486.05ZM609.124 449.136L610.076 449.443L610.077 449.44L609.124 449.136ZM623.992 420.938L624.764 421.573L624.769 421.568L623.992 420.938ZM646.722 402.993L647.145 403.899L647.15 403.897L646.722 402.993ZM718.67 412.393L717.94 413.077L717.948 413.084L718.67 412.393ZM730.633 434.097L729.676 434.387L729.679 434.398L730.633 434.097ZM734.905 585V586H735.905V585H734.905ZM685.345 585H684.345V586H685.345V585ZM671.844 438.198L671.435 439.111L671.45 439.117L671.464 439.123L671.844 438.198ZM638.519 439.224L638.047 438.342L638.038 438.347L638.519 439.224ZM626.556 450.161L625.73 449.597L625.727 449.602L626.556 450.161ZM624.334 439.565H623.334V585H624.334H625.334V439.565H624.334ZM624.334 585V584H575.115V585V586H624.334V585ZM575.115 585H576.115V400.088H575.115H574.115V585H575.115ZM575.115 400.088V401.088H621.258V400.088V399.088H575.115V400.088ZM621.258 400.088L620.261 400.166L623.337 439.643L624.334 439.565L625.331 439.488L622.255 400.01L621.258 400.088ZM617.156 486.05V485.05H603.826V486.05V487.05H617.156V486.05ZM603.826 486.05H604.826C604.826 472.463 606.581 460.265 610.076 449.443L609.124 449.136L608.172 448.828C604.603 459.882 602.826 472.293 602.826 486.05H603.826ZM609.124 449.136L610.077 449.44C613.576 438.491 618.476 429.209 624.764 421.573L623.992 420.938L623.22 420.302C616.748 428.161 611.736 437.678 608.171 448.831L609.124 449.136ZM623.992 420.938L624.769 421.568C631.058 413.818 638.516 407.934 647.145 403.899L646.722 402.993L646.298 402.087C637.382 406.256 629.687 412.334 623.216 420.307L623.992 420.938ZM646.722 402.993L647.15 403.897C655.889 399.752 665.652 397.67 676.458 397.67V396.67V395.67C665.389 395.67 655.328 397.804 646.293 402.09L646.722 402.993ZM676.458 396.67V397.67C685.02 397.67 692.825 398.909 699.883 401.374L700.213 400.43L700.543 399.486C693.245 396.937 685.214 395.67 676.458 395.67V396.67ZM700.213 400.43L699.883 401.374C706.911 403.828 712.925 407.727 717.94 413.077L718.67 412.393L719.399 411.709C714.161 406.12 707.87 402.045 700.543 399.486L700.213 400.43ZM718.67 412.393L717.948 413.084C723.057 418.416 726.976 425.501 729.676 434.387L730.633 434.097L731.59 433.806C728.82 424.691 724.765 417.307 719.392 411.701L718.67 412.393ZM730.633 434.097L729.679 434.398C732.488 443.273 733.905 454.159 733.905 467.08H734.905H735.905C735.905 454.025 734.475 442.922 731.586 433.795L730.633 434.097ZM734.905 467.08H733.905V585H734.905H735.905V467.08H734.905ZM734.905 585V584H685.345V585V586H734.905V585ZM685.345 585H686.345V466.909H685.345H684.345V585H685.345ZM685.345 466.909H686.345C686.345 458.635 685.199 452.077 682.821 447.321L681.927 447.769L681.032 448.216C683.212 452.575 684.345 458.777 684.345 466.909H685.345ZM681.927 447.769L682.821 447.321C680.442 442.562 676.905 439.194 672.223 437.273L671.844 438.198L671.464 439.123C675.669 440.849 678.855 443.86 681.032 448.216L681.927 447.769ZM671.844 438.198L672.252 437.285C667.758 435.275 662.254 434.293 655.779 434.293V435.293V436.293C662.065 436.293 667.271 437.248 671.435 439.111L671.844 438.198ZM655.779 435.293V434.293C649.038 434.293 643.116 435.63 638.047 438.342L638.519 439.224L638.99 440.105C643.719 437.576 649.305 436.293 655.779 436.293V435.293ZM638.519 439.224L638.038 438.347C633.11 441.046 629.005 444.801 625.73 449.597L626.556 450.161L627.381 450.725C630.486 446.179 634.357 442.643 638.999 440.101L638.519 439.224ZM626.556 450.161L625.727 449.602C622.578 454.267 620.2 459.729 618.581 465.975L619.549 466.226L620.517 466.477C622.088 460.417 624.381 455.17 627.385 450.721L626.556 450.161ZM619.549 466.226L618.581 465.975C616.962 472.217 616.156 478.911 616.156 486.05H617.156H618.156C618.156 479.061 618.945 472.538 620.517 466.477L619.549 466.226ZM801.316 581.582L800.937 582.507L800.945 582.511L801.316 581.582ZM772.264 562.271L771.542 562.962L771.547 562.968L772.264 562.271ZM754.148 533.73L753.215 534.09L753.217 534.093L754.148 533.73ZM753.807 453.579L752.861 453.255L753.807 453.579ZM770.896 423.33L770.146 422.669L770.141 422.675L770.896 423.33ZM798.24 403.677L798.632 404.597L798.64 404.593L798.24 403.677ZM894.798 421.621L894.039 422.272L894.044 422.278L894.798 421.621ZM910.521 450.332L909.567 450.634L909.568 450.636L910.521 450.332ZM915.818 507.754V508.754H916.818V507.754H915.818ZM768.846 507.754H767.846V508.754H768.846V507.754ZM768.846 474.941V473.941H767.846V474.941H768.846ZM867.454 474.941V475.941H868.454V474.941H867.454ZM863.694 452.896L862.778 453.296L862.783 453.308L862.789 453.319L863.694 452.896ZM805.76 451.357L804.894 450.857L804.89 450.864L804.886 450.872L805.76 451.357ZM799.266 469.473L798.288 469.264L798.285 469.277L799.266 469.473ZM800.291 519.375L799.341 519.686L799.343 519.694L799.346 519.702L800.291 519.375ZM809.349 535.61L808.587 536.258L808.591 536.263L808.596 536.269L809.349 535.61ZM823.704 546.206L823.294 547.118L823.301 547.121L823.704 546.206ZM867.796 544.839L868.205 545.752L868.211 545.749L867.796 544.839ZM887.791 528.945L888.527 528.268L887.733 527.406L887.006 528.325L887.791 528.945ZM911.717 554.922L912.538 555.492L912.995 554.834L912.452 554.244L911.717 554.922ZM895.823 570.986L895.217 570.191L895.21 570.196L895.823 570.986ZM871.897 583.633L872.221 584.579L872.231 584.576L871.897 583.633ZM839.939 588.418V587.418C825.69 587.418 812.945 585.156 801.688 580.654L801.316 581.582L800.945 582.511C812.475 587.122 825.478 589.418 839.939 589.418V588.418ZM801.316 581.582L801.696 580.657C790.42 576.034 780.853 569.671 772.981 561.573L772.264 562.271L771.547 562.968C779.625 571.276 789.427 577.788 800.937 582.507L801.316 581.582ZM772.264 562.271L772.986 561.579C765.217 553.472 759.249 544.072 755.08 533.368L754.148 533.73L753.217 534.093C757.479 545.037 763.587 554.662 771.542 562.962L772.264 562.271ZM754.148 533.73L755.082 533.371C750.912 522.554 748.825 511.055 748.825 498.867H747.825H746.825C746.825 511.289 748.953 523.032 753.215 534.09L754.148 533.73ZM747.825 498.867H748.825V492.031H747.825H746.825V498.867H747.825ZM747.825 492.031H748.825C748.825 478.113 750.805 465.407 754.753 453.904L753.807 453.579L752.861 453.255C748.833 464.994 746.825 477.922 746.825 492.031H747.825ZM753.807 453.579L754.753 453.904C758.702 442.393 764.338 432.425 771.652 423.985L770.896 423.33L770.141 422.675C762.644 431.325 756.886 441.523 752.861 453.255L753.807 453.579ZM770.896 423.33L771.647 423.991C779.066 415.561 788.057 409.097 798.632 404.597L798.24 403.677L797.849 402.757C787.005 407.371 777.766 414.01 770.146 422.669L770.896 423.33ZM798.24 403.677L798.64 404.593C809.206 399.985 821.144 397.67 834.471 397.67V396.67V395.67C820.91 395.67 808.694 398.026 797.84 402.76L798.24 403.677ZM834.471 396.67V397.67C847.463 397.67 858.947 399.816 868.941 404.084L869.334 403.164L869.727 402.244C859.441 397.853 847.683 395.67 834.471 395.67V396.67ZM869.334 403.164L868.941 404.084C878.947 408.356 887.308 414.419 894.039 422.272L894.798 421.621L895.557 420.97C888.616 412.873 880.001 406.631 869.727 402.244L869.334 403.164ZM894.798 421.621L894.044 422.278C900.894 430.139 906.072 439.585 909.567 450.634L910.521 450.332L911.474 450.03C907.905 438.748 902.601 429.053 895.552 420.964L894.798 421.621ZM910.521 450.332L909.568 450.636C913.064 461.575 914.818 473.774 914.818 487.246H915.818H916.818C916.818 473.602 915.041 461.192 911.473 450.028L910.521 450.332ZM915.818 487.246H914.818V507.754H915.818H916.818V487.246H915.818ZM915.818 507.754V506.754H768.846V507.754V508.754H915.818V507.754ZM768.846 507.754H769.846V474.941H768.846H767.846V507.754H768.846ZM768.846 474.941V475.941H867.454V474.941V473.941H768.846V474.941ZM867.454 474.941H868.454V471.182H867.454H866.454V474.941H867.454ZM867.454 471.182H868.454C868.454 464.222 867.178 457.978 864.6 452.472L863.694 452.896L862.789 453.319C865.224 458.522 866.454 464.469 866.454 471.182H867.454ZM863.694 452.896L864.61 452.495C862.141 446.851 858.369 442.368 853.302 439.069L852.757 439.907L852.211 440.745C856.943 443.827 860.462 448.002 862.778 453.296L863.694 452.896ZM852.757 439.907L853.302 439.069C848.198 435.746 841.727 434.122 833.958 434.122V435.122V436.122C841.456 436.122 847.517 437.689 852.211 440.745L852.757 439.907ZM833.958 435.122V434.122C827.315 434.122 821.545 435.58 816.689 438.541L817.21 439.395L817.731 440.248C822.218 437.512 827.613 436.122 833.958 436.122V435.122ZM817.21 439.395L816.689 438.541C811.864 441.483 807.933 445.598 804.894 450.857L805.76 451.357L806.626 451.858C809.511 446.863 813.214 443.002 817.731 440.248L817.21 439.395ZM805.76 451.357L804.886 450.872C801.98 456.102 799.785 462.237 798.288 469.264L799.266 469.473L800.244 469.681C801.708 462.808 803.843 456.867 806.634 451.843L805.76 451.357ZM799.266 469.473L798.285 469.277C796.903 476.187 796.215 483.773 796.215 492.031H797.215H798.215C798.215 483.883 798.894 476.43 800.246 469.669L799.266 469.473ZM797.215 492.031H796.215V498.867H797.215H798.215V492.031H797.215ZM797.215 498.867H796.215C796.215 506.366 797.253 513.308 799.341 519.686L800.291 519.375L801.241 519.064C799.227 512.91 798.215 506.18 798.215 498.867H797.215ZM800.291 519.375L799.346 519.702C801.547 526.073 804.624 531.596 808.587 536.258L809.349 535.61L810.111 534.963C806.326 530.51 803.365 525.21 801.236 519.048L800.291 519.375ZM809.349 535.61L808.596 536.269C812.679 540.936 817.582 544.554 823.294 547.118L823.704 546.206L824.114 545.294C818.661 542.846 813.993 539.4 810.101 534.952L809.349 535.61ZM823.704 546.206L823.301 547.121C829.143 549.692 835.72 550.966 843.016 550.966V549.966V548.966C835.955 548.966 829.659 547.733 824.107 545.291L823.704 546.206ZM843.016 549.966V550.966C852.034 550.966 860.435 549.231 868.205 545.752L867.796 544.839L867.387 543.926C859.89 547.283 851.77 548.966 843.016 548.966V549.966ZM867.796 544.839L868.211 545.749C876.111 542.147 882.9 536.746 888.576 529.565L887.791 528.945L887.006 528.325C881.516 535.272 874.976 540.467 867.381 543.929L867.796 544.839ZM887.791 528.945L887.055 529.623L910.981 555.599L911.717 554.922L912.452 554.244L888.527 528.268L887.791 528.945ZM911.717 554.922L910.895 554.352C907.094 559.831 901.875 565.113 895.217 570.191L895.823 570.986L896.43 571.781C903.215 566.606 908.593 561.178 912.538 555.492L911.717 554.922ZM895.823 570.986L895.21 570.196C888.701 575.247 880.824 579.415 871.564 582.69L871.897 583.633L872.231 584.576C881.656 581.242 889.73 576.98 896.436 571.776L895.823 570.986ZM871.897 583.633L871.574 582.686C862.355 585.834 851.815 587.418 839.939 587.418V588.418V589.418C851.99 589.418 862.755 587.811 872.221 584.579L871.897 583.633ZM924.295 453.408L925.242 453.73L925.243 453.727L924.295 453.408ZM968.558 403.848L968.954 404.766L968.962 404.762L968.558 403.848ZM1043.24 403.848L1042.84 404.764L1042.85 404.767L1043.24 403.848ZM1070.75 423.501L1070 424.161L1070.01 424.167L1070.75 423.501ZM1087.84 453.408L1086.9 453.727L1086.9 453.73L1087.84 453.408ZM1087.84 531.851L1088.79 532.172L1088.79 532.17L1087.84 531.851ZM1070.75 561.758L1070 561.097L1070 561.098L1070.75 561.758ZM968.729 581.411L968.332 582.329L968.336 582.331L968.729 581.411ZM941.214 561.758L940.458 562.413L940.463 562.418L940.468 562.423L941.214 561.758ZM924.295 531.851L923.347 532.17L923.348 532.172L924.295 531.851ZM976.248 533.901L975.382 534.402L975.389 534.413L975.396 534.424L976.248 533.901ZM1035.55 533.901L1036.41 534.41L1036.42 534.402L1035.55 533.901ZM1042.04 516.128L1041.07 515.913L1041.07 515.921L1041.06 515.929L1042.04 516.128ZM1042.04 469.644L1041.06 469.843L1041.07 469.853L1041.07 469.862L1042.04 469.644ZM1035.38 451.87L1034.51 452.362L1034.51 452.373L1034.52 452.385L1035.38 451.87ZM988.04 439.565L987.523 438.71L987.514 438.715L988.04 439.565ZM976.248 451.87L975.386 451.364L975.382 451.37L976.248 451.87ZM969.754 469.644L970.733 469.846L970.734 469.843L969.754 469.644ZM918.484 494.424H919.484V490.835H918.484H917.484V494.424H918.484ZM918.484 490.835H919.484C919.484 477.373 921.407 465.007 925.242 453.73L924.295 453.408L923.348 453.086C919.435 464.595 917.484 477.181 917.484 490.835H918.484ZM924.295 453.408L925.243 453.727C929.078 442.335 934.654 432.484 941.965 424.161L941.214 423.501L940.463 422.841C932.963 431.379 927.26 441.467 923.347 453.089L924.295 453.408ZM941.214 423.501L941.965 424.161C949.268 415.847 958.259 409.381 968.954 404.766L968.558 403.848L968.161 402.93C957.209 407.656 947.971 414.293 940.463 422.841L941.214 423.501ZM968.558 403.848L968.962 404.762C979.637 400.043 991.914 397.67 1005.81 397.67V396.67V395.67C991.686 395.67 979.125 398.082 968.153 402.933L968.558 403.848ZM1005.81 396.67V397.67C1019.71 397.67 1032.05 400.043 1042.84 404.764L1043.24 403.848L1043.64 402.932C1032.56 398.082 1019.94 395.67 1005.81 395.67V396.67ZM1043.24 403.848L1042.85 404.767C1053.66 409.383 1062.7 415.849 1070 424.161L1070.75 423.501L1071.51 422.841C1064 414.291 1054.7 407.654 1043.63 402.928L1043.24 403.848ZM1070.75 423.501L1070.01 424.167C1077.43 432.489 1083.06 442.338 1086.9 453.727L1087.84 453.408L1088.79 453.089C1084.88 441.464 1079.12 431.374 1071.5 422.835L1070.75 423.501ZM1087.84 453.408L1086.9 453.73C1090.73 465.007 1092.66 477.373 1092.66 490.835H1093.66H1094.66C1094.66 477.181 1092.7 464.595 1088.79 453.086L1087.84 453.408ZM1093.66 490.835H1092.66V494.424H1093.66H1094.66V490.835H1093.66ZM1093.66 494.424H1092.66C1092.66 507.771 1090.73 520.138 1086.9 531.532L1087.84 531.851L1088.79 532.17C1092.7 520.549 1094.66 507.965 1094.66 494.424H1093.66ZM1087.84 531.851L1086.9 531.529C1083.06 542.804 1077.43 552.657 1070 561.097L1070.75 561.758L1071.51 562.418C1079.12 553.769 1084.88 543.683 1088.79 532.172L1087.84 531.851ZM1070.75 561.758L1070 561.098C1062.7 569.412 1053.71 575.877 1043.01 580.493L1043.41 581.411L1043.81 582.329C1054.76 577.602 1064 570.966 1071.51 562.418L1070.75 561.758ZM1043.41 581.411L1043.01 580.493C1032.34 585.101 1020.06 587.418 1006.16 587.418V588.418V589.418C1020.28 589.418 1032.84 587.064 1043.81 582.329L1043.41 581.411ZM1006.16 588.418V587.418C992.253 587.418 979.915 585.101 969.121 580.491L968.729 581.411L968.336 582.331C979.418 587.064 992.03 589.418 1006.16 589.418V588.418ZM968.729 581.411L969.125 580.493C958.429 575.877 949.379 569.41 941.96 561.092L941.214 561.758L940.468 562.423C948.088 570.968 957.381 577.603 968.332 582.329L968.729 581.411ZM941.214 561.758L941.97 561.103C934.654 552.662 929.077 542.808 925.242 531.529L924.295 531.851L923.348 532.172C927.261 543.68 932.963 553.764 940.458 562.413L941.214 561.758ZM924.295 531.851L925.243 531.532C921.407 520.138 919.484 507.771 919.484 494.424H918.484H917.484C917.484 507.965 919.435 520.549 923.347 532.17L924.295 531.851ZM967.703 490.835H966.703V494.424H967.703H968.703V490.835H967.703ZM967.703 494.424H966.703C966.703 502.23 967.392 509.532 968.774 516.327L969.754 516.128L970.734 515.929C969.382 509.28 968.703 502.113 968.703 494.424H967.703ZM969.754 516.128L968.774 516.327C970.159 523.139 972.358 529.168 975.382 534.402L976.248 533.901L977.114 533.401C974.214 528.381 972.083 522.561 970.734 515.929L969.754 516.128ZM976.248 533.901L975.396 534.424C978.555 539.573 982.661 543.623 987.708 546.558L988.211 545.693L988.714 544.829C983.963 542.067 980.093 538.256 977.1 533.378L976.248 533.901ZM988.211 545.693L987.708 546.558C992.793 549.514 998.958 550.966 1006.16 550.966V549.966V548.966C999.225 548.966 993.427 547.569 988.714 544.829L988.211 545.693ZM1006.16 549.966V550.966C1013.13 550.966 1019.18 549.512 1024.26 546.558L1023.76 545.693L1023.26 544.829C1018.54 547.572 1012.85 548.966 1006.16 548.966V549.966ZM1023.76 545.693L1024.26 546.558C1029.31 543.621 1033.36 539.566 1036.41 534.41L1035.55 533.901L1034.69 533.393C1031.81 538.263 1028 542.069 1023.26 544.829L1023.76 545.693ZM1035.55 533.901L1036.42 534.402C1039.44 529.168 1041.64 523.139 1043.02 516.327L1042.04 516.128L1041.06 515.929C1039.71 522.561 1037.58 528.381 1034.68 533.401L1035.55 533.901ZM1042.04 516.128L1043.02 516.343C1044.52 509.542 1045.27 502.235 1045.27 494.424H1044.27H1043.27C1043.27 502.108 1042.53 509.27 1041.07 515.913L1042.04 516.128ZM1044.27 494.424H1045.27V490.835H1044.27H1043.27V494.424H1044.27ZM1044.27 490.835H1045.27C1045.27 483.25 1044.52 476.112 1043.02 469.425L1042.04 469.644L1041.07 469.862C1042.53 476.391 1043.27 483.381 1043.27 490.835H1044.27ZM1042.04 469.644L1043.02 469.444C1041.64 462.627 1039.38 456.593 1036.24 451.356L1035.38 451.87L1034.52 452.385C1037.53 457.401 1039.72 463.216 1041.06 469.843L1042.04 469.644ZM1035.38 451.87L1036.25 451.378C1033.21 445.996 1029.16 441.765 1024.1 438.71L1023.59 439.565L1023.07 440.421C1027.81 443.29 1031.63 447.263 1034.51 452.362L1035.38 451.87ZM1023.59 439.565L1024.1 438.71C1019.02 435.635 1012.91 434.122 1005.81 434.122V435.122V436.122C1012.62 436.122 1018.36 437.572 1023.07 440.421L1023.59 439.565ZM1005.81 435.122V434.122C998.72 434.122 992.608 435.635 987.523 438.71L988.04 439.565L988.557 440.421C993.27 437.572 999.007 436.122 1005.81 436.122V435.122ZM988.04 439.565L987.514 438.715C982.579 441.77 978.537 445.994 975.386 451.364L976.248 451.87L977.11 452.376C980.111 447.264 983.93 443.286 988.566 440.416L988.04 439.565ZM976.248 451.87L975.382 451.37C972.358 456.604 970.159 462.633 968.774 469.444L969.754 469.644L970.734 469.843C972.083 463.21 974.214 457.39 977.114 452.37L976.248 451.87ZM969.754 469.644L968.775 469.441C967.392 476.123 966.703 483.255 966.703 490.835H967.703H968.703C968.703 483.376 969.381 476.381 970.733 469.846L969.754 469.644Z" fill="#3D3D3D" mask="url(#path-5-outside-1_82_312)"/>
</g>
<g opacity="0.16">
<path d="M938.551 273.813C948.338 256.219 970.534 249.891 988.128 259.678V259.678L945.082 337.058C935.296 354.651 913.099 360.98 895.506 351.193V351.193L938.551 273.813Z" fill="url(#paint6_linear_82_312)"/>
<path d="M938.551 273.813C948.338 256.219 970.534 249.891 988.128 259.678V259.678L945.082 337.058C935.296 354.651 913.099 360.98 895.506 351.193V351.193L938.551 273.813Z" fill="url(#paint7_linear_82_312)"/>
<path d="M994.206 245.982C1003.99 228.388 1026.19 222.06 1043.78 231.847V231.847L1000.74 309.227C990.95 326.82 968.754 333.149 951.161 323.362V323.362L994.206 245.982Z" fill="url(#paint8_linear_82_312)"/>
<path d="M994.206 245.982C1003.99 228.388 1026.19 222.06 1043.78 231.847V231.847L1000.74 309.227C990.95 326.82 968.754 333.149 951.161 323.362V323.362L994.206 245.982Z" fill="url(#paint9_linear_82_312)"/>
<path d="M1043.85 223.527C1053.64 205.934 1075.84 199.605 1093.43 209.392V209.392L1050.38 286.772C1040.6 304.366 1018.4 310.694 1000.81 300.907V300.907L1043.85 223.527Z" fill="url(#paint10_linear_82_312)"/>
<path d="M1043.85 223.527C1053.64 205.934 1075.84 199.605 1093.43 209.392V209.392L1050.38 286.772C1040.6 304.366 1018.4 310.694 1000.81 300.907V300.907L1043.85 223.527Z" fill="url(#paint11_linear_82_312)"/>
</g>
<g opacity="0.16">
<path d="M731.862 -44.4433C749.962 -35.627 757.487 -13.8077 748.671 4.29157V4.29157L669.065 -34.4849C650.966 -43.3012 643.441 -65.1205 652.257 -83.2198V-83.2198L731.862 -44.4433Z" fill="url(#paint12_linear_82_312)"/>
<path d="M731.862 -44.4433C749.962 -35.627 757.487 -13.8077 748.671 4.29157V4.29157L669.065 -34.4849C650.966 -43.3012 643.441 -65.1205 652.257 -83.2198V-83.2198L731.862 -44.4433Z" fill="url(#paint13_linear_82_312)"/>
<path d="M762.677 9.61676C780.776 18.4331 788.301 40.2524 779.485 58.3516V58.3516L699.88 19.5752C681.78 10.7589 674.255 -11.0605 683.071 -29.1597V-29.1597L762.677 9.61676Z" fill="url(#paint14_linear_82_312)"/>
<path d="M762.677 9.61676C780.776 18.4331 788.301 40.2524 779.485 58.3516V58.3516L699.88 19.5752C681.78 10.7589 674.255 -11.0605 683.071 -29.1597V-29.1597L762.677 9.61676Z" fill="url(#paint15_linear_82_312)"/>
<path d="M787.796 57.9698C805.895 66.7861 813.421 88.6054 804.604 106.705V106.705L724.999 67.9282C706.9 59.1119 699.375 37.2925 708.191 19.1933V19.1933L787.796 57.9698Z" fill="url(#paint16_linear_82_312)"/>
<path d="M787.796 57.9698C805.895 66.7861 813.421 88.6054 804.604 106.705V106.705L724.999 67.9282C706.9 59.1119 699.375 37.2925 708.191 19.1933V19.1933L787.796 57.9698Z" fill="url(#paint17_linear_82_312)"/>
</g>
<path d="M84.956 301.704C84.956 304.175 86.9599 306.179 89.431 306.179C91.9021 306.179 93.906 304.175 93.906 301.704L93.906 292.754C93.906 290.283 91.9021 288.279 89.431 288.279C86.9599 288.279 84.956 290.283 84.956 292.754L84.956 301.704ZM77.3494 315.753C79.117 317.482 81.9488 317.451 83.6797 315.685C84.5318 314.814 84.956 313.684 84.956 312.554C84.956 311.394 84.5058 310.234 83.6121 309.356C80.0353 305.857 78.1428 300.952 78.414 295.841C78.6587 291.379 80.5096 287.225 83.6256 284.146C85.3869 282.407 85.3999 279.575 83.665 277.818C81.9277 276.059 79.0937 276.042 77.3368 277.779C72.6345 282.422 69.8443 288.663 69.4773 295.355C69.0571 303.053 71.9368 310.45 77.3494 315.753Z" fill="#CCCCCC"/>
<path d="M75.4681 322.042C75.4681 320.886 75.0246 319.732 74.135 318.856C67.8726 312.675 64.5423 304.009 64.9885 295.164C65.406 287.385 68.6571 280.1 74.1462 274.65C75.8986 272.911 75.9116 270.074 74.1681 268.322C72.4264 266.567 69.5946 266.559 67.84 268.3C60.7735 275.314 56.5871 284.686 56.0514 294.696C55.4746 306.119 59.7724 317.254 67.8507 325.228C69.6098 326.963 72.4416 326.945 74.1788 325.184C75.0398 324.312 75.4681 323.178 75.4681 322.042Z" fill="#CCCCCC"/>
<path d="M122.428 283.406V309H119.088V283.406H122.428ZM130.654 283.406V286.184H110.879V283.406H130.654ZM141.37 305.748V295.957C141.37 295.207 141.218 294.557 140.913 294.006C140.62 293.443 140.175 293.01 139.577 292.705C138.979 292.4 138.241 292.248 137.362 292.248C136.542 292.248 135.821 292.389 135.2 292.67C134.591 292.951 134.11 293.32 133.759 293.777C133.419 294.234 133.249 294.727 133.249 295.254H129.997C129.997 294.574 130.173 293.9 130.524 293.232C130.876 292.564 131.38 291.961 132.036 291.422C132.704 290.871 133.501 290.438 134.427 290.121C135.364 289.793 136.407 289.629 137.555 289.629C138.938 289.629 140.157 289.863 141.212 290.332C142.278 290.801 143.11 291.51 143.708 292.459C144.317 293.396 144.622 294.574 144.622 295.992V304.852C144.622 305.484 144.675 306.158 144.78 306.873C144.897 307.588 145.067 308.203 145.29 308.719V309H141.897C141.733 308.625 141.604 308.127 141.511 307.506C141.417 306.873 141.37 306.287 141.37 305.748ZM141.932 297.469L141.968 299.754H138.68C137.755 299.754 136.929 299.83 136.202 299.982C135.475 300.123 134.866 300.34 134.374 300.633C133.882 300.926 133.507 301.295 133.249 301.74C132.991 302.174 132.862 302.684 132.862 303.27C132.862 303.867 132.997 304.412 133.266 304.904C133.536 305.396 133.94 305.789 134.479 306.082C135.03 306.363 135.704 306.504 136.501 306.504C137.497 306.504 138.376 306.293 139.138 305.871C139.899 305.449 140.503 304.934 140.948 304.324C141.405 303.715 141.651 303.123 141.686 302.549L143.075 304.113C142.993 304.605 142.77 305.15 142.407 305.748C142.044 306.346 141.557 306.92 140.948 307.471C140.35 308.01 139.636 308.461 138.804 308.824C137.983 309.176 137.057 309.352 136.026 309.352C134.737 309.352 133.606 309.1 132.634 308.596C131.673 308.092 130.923 307.418 130.384 306.574C129.856 305.719 129.593 304.764 129.593 303.709C129.593 302.689 129.792 301.793 130.19 301.02C130.589 300.234 131.163 299.584 131.913 299.068C132.663 298.541 133.565 298.143 134.62 297.873C135.675 297.604 136.852 297.469 138.153 297.469H141.932ZM151.189 293.637V316.312H147.92V289.98H150.908L151.189 293.637ZM164.004 299.332V299.701C164.004 301.084 163.839 302.367 163.511 303.551C163.183 304.723 162.703 305.742 162.07 306.609C161.449 307.477 160.681 308.15 159.767 308.631C158.853 309.111 157.804 309.352 156.621 309.352C155.414 309.352 154.347 309.152 153.421 308.754C152.496 308.355 151.711 307.775 151.066 307.014C150.421 306.252 149.906 305.338 149.519 304.271C149.144 303.205 148.886 302.004 148.746 300.668V298.699C148.886 297.293 149.15 296.033 149.537 294.92C149.923 293.807 150.433 292.857 151.066 292.072C151.711 291.275 152.49 290.672 153.404 290.262C154.318 289.84 155.373 289.629 156.568 289.629C157.763 289.629 158.824 289.863 159.75 290.332C160.675 290.789 161.455 291.445 162.088 292.301C162.72 293.156 163.195 294.182 163.511 295.377C163.839 296.561 164.004 297.879 164.004 299.332ZM160.734 299.701V299.332C160.734 298.383 160.634 297.492 160.435 296.66C160.236 295.816 159.925 295.078 159.504 294.445C159.093 293.801 158.566 293.297 157.921 292.934C157.277 292.559 156.509 292.371 155.619 292.371C154.798 292.371 154.084 292.512 153.474 292.793C152.877 293.074 152.367 293.455 151.945 293.936C151.523 294.404 151.177 294.943 150.908 295.553C150.65 296.15 150.457 296.771 150.328 297.416V301.969C150.562 302.789 150.89 303.562 151.312 304.289C151.734 305.004 152.296 305.584 153 306.029C153.703 306.463 154.588 306.68 155.654 306.68C156.533 306.68 157.289 306.498 157.921 306.135C158.566 305.76 159.093 305.25 159.504 304.605C159.925 303.961 160.236 303.223 160.435 302.391C160.634 301.547 160.734 300.65 160.734 299.701ZM190.691 294.41V297.17H176.839V294.41H190.691ZM177.366 283.406V309H173.974V283.406H177.366ZM193.644 283.406V309H190.269V283.406H193.644ZM205.273 309.352C203.949 309.352 202.748 309.129 201.67 308.684C200.604 308.227 199.684 307.588 198.91 306.768C198.148 305.947 197.562 304.975 197.152 303.85C196.742 302.725 196.537 301.494 196.537 300.158V299.42C196.537 297.873 196.766 296.496 197.223 295.289C197.68 294.07 198.301 293.039 199.086 292.195C199.871 291.352 200.762 290.713 201.758 290.279C202.754 289.846 203.785 289.629 204.852 289.629C206.211 289.629 207.383 289.863 208.367 290.332C209.363 290.801 210.178 291.457 210.811 292.301C211.443 293.133 211.912 294.117 212.217 295.254C212.521 296.379 212.674 297.609 212.674 298.945V300.404H198.471V297.75H209.422V297.504C209.375 296.66 209.199 295.84 208.895 295.043C208.602 294.246 208.133 293.59 207.488 293.074C206.844 292.559 205.965 292.301 204.852 292.301C204.113 292.301 203.434 292.459 202.812 292.775C202.191 293.08 201.658 293.537 201.213 294.146C200.768 294.756 200.422 295.5 200.176 296.379C199.93 297.258 199.807 298.271 199.807 299.42V300.158C199.807 301.061 199.93 301.91 200.176 302.707C200.434 303.492 200.803 304.184 201.283 304.781C201.775 305.379 202.367 305.848 203.059 306.188C203.762 306.527 204.559 306.697 205.449 306.697C206.598 306.697 207.57 306.463 208.367 305.994C209.164 305.525 209.861 304.898 210.459 304.113L212.428 305.678C212.018 306.299 211.496 306.891 210.863 307.453C210.23 308.016 209.451 308.473 208.525 308.824C207.611 309.176 206.527 309.352 205.273 309.352ZM217.923 292.969V309H214.671V289.98H217.835L217.923 292.969ZM223.864 289.875L223.846 292.898C223.577 292.84 223.319 292.805 223.073 292.793C222.839 292.77 222.569 292.758 222.264 292.758C221.514 292.758 220.852 292.875 220.278 293.109C219.704 293.344 219.218 293.672 218.819 294.094C218.421 294.516 218.104 295.02 217.87 295.605C217.647 296.18 217.501 296.812 217.43 297.504L216.516 298.031C216.516 296.883 216.628 295.805 216.85 294.797C217.085 293.789 217.442 292.898 217.923 292.125C218.403 291.34 219.012 290.73 219.751 290.297C220.501 289.852 221.391 289.629 222.423 289.629C222.657 289.629 222.927 289.658 223.231 289.717C223.536 289.764 223.747 289.816 223.864 289.875ZM232.611 309.352C231.287 309.352 230.086 309.129 229.007 308.684C227.941 308.227 227.021 307.588 226.248 306.768C225.486 305.947 224.9 304.975 224.49 303.85C224.08 302.725 223.875 301.494 223.875 300.158V299.42C223.875 297.873 224.103 296.496 224.56 295.289C225.017 294.07 225.638 293.039 226.423 292.195C227.209 291.352 228.099 290.713 229.095 290.279C230.091 289.846 231.123 289.629 232.189 289.629C233.548 289.629 234.72 289.863 235.705 290.332C236.701 290.801 237.515 291.457 238.148 292.301C238.781 293.133 239.25 294.117 239.554 295.254C239.859 296.379 240.011 297.609 240.011 298.945V300.404H225.808V297.75H236.759V297.504C236.713 296.66 236.537 295.84 236.232 295.043C235.939 294.246 235.47 293.59 234.826 293.074C234.181 292.559 233.302 292.301 232.189 292.301C231.451 292.301 230.771 292.459 230.15 292.775C229.529 293.08 228.996 293.537 228.55 294.146C228.105 294.756 227.759 295.5 227.513 296.379C227.267 297.258 227.144 298.271 227.144 299.42V300.158C227.144 301.061 227.267 301.91 227.513 302.707C227.771 303.492 228.14 304.184 228.621 304.781C229.113 305.379 229.705 305.848 230.396 306.188C231.099 306.527 231.896 306.697 232.787 306.697C233.935 306.697 234.908 306.463 235.705 305.994C236.502 305.525 237.199 304.898 237.796 304.113L239.765 305.678C239.355 306.299 238.834 306.891 238.201 307.453C237.568 308.016 236.789 308.473 235.863 308.824C234.949 309.176 233.865 309.352 232.611 309.352Z" fill="#CCCCCC"/>
<g opacity="0.16">
<path d="M500.862 534.557C518.962 543.373 526.487 565.192 517.671 583.292V583.292L438.065 544.515C419.966 535.699 412.441 513.879 421.257 495.78V495.78L500.862 534.557Z" fill="url(#paint18_linear_82_312)"/>
<path d="M500.862 534.557C518.962 543.373 526.487 565.192 517.671 583.292V583.292L438.065 544.515C419.966 535.699 412.441 513.879 421.257 495.78V495.78L500.862 534.557Z" fill="url(#paint19_linear_82_312)"/>
<path d="M531.677 588.617C549.776 597.433 557.301 619.252 548.485 637.352V637.352L468.88 598.575C450.78 589.759 443.255 567.94 452.071 549.84V549.84L531.677 588.617Z" fill="url(#paint20_linear_82_312)"/>
<path d="M531.677 588.617C549.776 597.433 557.301 619.252 548.485 637.352V637.352L468.88 598.575C450.78 589.759 443.255 567.94 452.071 549.84V549.84L531.677 588.617Z" fill="url(#paint21_linear_82_312)"/>
</g>
</g>
<defs>
<linearGradient id="paint0_linear_82_312" x1="24" y1="24" x2="1023" y2="579.5" gradientUnits="userSpaceOnUse">
<stop stop-color="white"/>
<stop offset="0.5" stop-color="#E6E6E6"/>
<stop offset="1" stop-color="white"/>
</linearGradient>
<linearGradient id="paint1_linear_82_312" x1="24" y1="24" x2="1023" y2="579.5" gradientUnits="userSpaceOnUse">
<stop/>
<stop offset="0.5" stop-color="#101010"/>
<stop offset="1"/>
</linearGradient>
<linearGradient id="paint2_linear_82_312" x1="44" y1="40" x2="994.5" y2="610" gradientUnits="userSpaceOnUse">
<stop stop-color="#404040"/>
<stop offset="1" stop-color="#A6A6A6"/>
</linearGradient>
<linearGradient id="paint3_linear_82_312" x1="89.2758" y1="110.13" x2="98.5083" y2="74.2745" gradientUnits="userSpaceOnUse">
<stop stop-color="#9BFF37"/>
<stop offset="0.460602" stop-color="#00D7C2"/>
<stop offset="1" stop-color="#0BAEFF"/>
</linearGradient>
<linearGradient id="paint4_linear_82_312" x1="113.694" y1="65.603" x2="80.6744" y2="42.0207" gradientUnits="userSpaceOnUse">
<stop stop-color="#80FF00"/>
<stop offset="0.440209" stop-color="#00FFE7"/>
<stop offset="1" stop-color="#00AAFF"/>
</linearGradient>
<linearGradient id="paint5_linear_82_312" x1="103.059" y1="63.6879" x2="73.122" y2="79.452" gradientUnits="userSpaceOnUse">
<stop stop-color="#47C2FA"/>
<stop offset="1"/>
</linearGradient>
<linearGradient id="paint6_linear_82_312" x1="952.936" y1="344.29" x2="945.719" y2="256.623" gradientUnits="userSpaceOnUse">
<stop stop-color="#D7FFAF"/>
<stop offset="0.589182" stop-color="#8BDFD7"/>
<stop offset="1" stop-color="#3FBFFF"/>
</linearGradient>
<linearGradient id="paint7_linear_82_312" x1="943.524" y1="320.071" x2="987.016" y2="284.333" gradientUnits="userSpaceOnUse">
<stop stop-color="#9BFF37"/>
<stop offset="1" stop-color="#47C2FA"/>
</linearGradient>
<linearGradient id="paint8_linear_82_312" x1="1008.59" y1="316.459" x2="1001.37" y2="228.792" gradientUnits="userSpaceOnUse">
<stop stop-color="#D7FFAF"/>
<stop offset="0.589182" stop-color="#8BDFD7"/>
<stop offset="1" stop-color="#3FBFFF"/>
</linearGradient>
<linearGradient id="paint9_linear_82_312" x1="999.179" y1="292.24" x2="1042.67" y2="256.502" gradientUnits="userSpaceOnUse">
<stop stop-color="#9BFF37"/>
<stop offset="1" stop-color="#47C2FA"/>
</linearGradient>
<linearGradient id="paint10_linear_82_312" x1="1058.24" y1="294.004" x2="1051.02" y2="206.337" gradientUnits="userSpaceOnUse">
<stop stop-color="#D7FFAF"/>
<stop offset="0.589182" stop-color="#8BDFD7"/>
<stop offset="1" stop-color="#3FBFFF"/>
</linearGradient>
<linearGradient id="paint11_linear_82_312" x1="1048.83" y1="269.785" x2="1092.32" y2="234.047" gradientUnits="userSpaceOnUse">
<stop stop-color="#9BFF37"/>
<stop offset="1" stop-color="#47C2FA"/>
</linearGradient>
<linearGradient id="paint12_linear_82_312" x1="662.271" y1="-26.2498" x2="749.416" y2="-38.2205" gradientUnits="userSpaceOnUse">
<stop stop-color="#D7FFAF"/>
<stop offset="0.589182" stop-color="#8BDFD7"/>
<stop offset="1" stop-color="#3FBFFF"/>
</linearGradient>
<linearGradient id="paint13_linear_82_312" x1="685.943" y1="-36.9638" x2="723.991" y2="4.52155" gradientUnits="userSpaceOnUse">
<stop stop-color="#9BFF37"/>
<stop offset="1" stop-color="#47C2FA"/>
</linearGradient>
<linearGradient id="paint14_linear_82_312" x1="693.085" y1="27.8102" x2="780.231" y2="15.8396" gradientUnits="userSpaceOnUse">
<stop stop-color="#D7FFAF"/>
<stop offset="0.589182" stop-color="#8BDFD7"/>
<stop offset="1" stop-color="#3FBFFF"/>
</linearGradient>
<linearGradient id="paint15_linear_82_312" x1="716.757" y1="17.0962" x2="754.806" y2="58.5816" gradientUnits="userSpaceOnUse">
<stop stop-color="#9BFF37"/>
<stop offset="1" stop-color="#47C2FA"/>
</linearGradient>
<linearGradient id="paint16_linear_82_312" x1="718.205" y1="76.1632" x2="805.35" y2="64.1926" gradientUnits="userSpaceOnUse">
<stop stop-color="#D7FFAF"/>
<stop offset="0.589182" stop-color="#8BDFD7"/>
<stop offset="1" stop-color="#3FBFFF"/>
</linearGradient>
<linearGradient id="paint17_linear_82_312" x1="741.876" y1="65.4493" x2="779.925" y2="106.935" gradientUnits="userSpaceOnUse">
<stop stop-color="#9BFF37"/>
<stop offset="1" stop-color="#47C2FA"/>
</linearGradient>
<linearGradient id="paint18_linear_82_312" x1="431.271" y1="552.75" x2="518.416" y2="540.78" gradientUnits="userSpaceOnUse">
<stop stop-color="#D7FFAF"/>
<stop offset="0.589182" stop-color="#8BDFD7"/>
<stop offset="1" stop-color="#3FBFFF"/>
</linearGradient>
<linearGradient id="paint19_linear_82_312" x1="454.943" y1="542.036" x2="492.991" y2="583.522" gradientUnits="userSpaceOnUse">
<stop stop-color="#9BFF37"/>
<stop offset="1" stop-color="#47C2FA"/>
</linearGradient>
<linearGradient id="paint20_linear_82_312" x1="462.085" y1="606.81" x2="549.231" y2="594.84" gradientUnits="userSpaceOnUse">
<stop stop-color="#D7FFAF"/>
<stop offset="0.589182" stop-color="#8BDFD7"/>
<stop offset="1" stop-color="#3FBFFF"/>
</linearGradient>
<linearGradient id="paint21_linear_82_312" x1="485.757" y1="596.096" x2="523.806" y2="637.582" gradientUnits="userSpaceOnUse">
<stop stop-color="#9BFF37"/>
<stop offset="1" stop-color="#47C2FA"/>
</linearGradient>
</defs>
</svg>
