<svg width="2021" height="1168" viewBox="0 0 2021 1168" fill="none" xmlns="http://www.w3.org/2000/svg">
<rect x="1" y="1" width="2018.39" height="1165.23" rx="51" fill="url(#paint0_linear_82_236)" stroke="#404040" stroke-width="2"/>
<mask id="mask0_82_236" style="mask-type:alpha" maskUnits="userSpaceOnUse" x="0" y="0" width="2021" height="1168">
<rect x="1" y="1" width="2018.39" height="1165.23" rx="51" fill="url(#paint1_linear_82_236)" stroke="#404040" stroke-width="2"/>
</mask>
<g mask="url(#mask0_82_236)">
<path opacity="0.12" d="M1523.75 580.976C1523.75 554.2 1519.93 529.562 1512.28 507.062C1504.63 484.336 1493.38 464.648 1478.53 447.997C1463.9 431.347 1445.79 418.409 1424.19 409.184C1402.59 399.733 1377.95 395.008 1350.27 395.008C1322.6 395.008 1298.07 399.733 1276.7 409.184C1255.32 418.409 1237.32 431.347 1222.69 447.997C1208.07 464.648 1196.93 484.336 1189.28 507.062C1181.63 529.562 1177.8 554.2 1177.8 580.976V588.064C1177.8 614.615 1181.63 639.253 1189.28 661.979C1196.93 684.479 1208.07 704.168 1222.69 721.043C1237.54 737.694 1255.66 750.631 1277.03 759.857C1298.63 769.082 1323.27 773.695 1350.95 773.695C1378.62 773.695 1403.15 769.082 1424.52 759.857C1445.9 750.631 1463.9 737.694 1478.53 721.043C1493.38 704.168 1504.63 684.479 1512.28 661.979C1519.93 639.253 1523.75 614.615 1523.75 588.064V580.976ZM1424.24 580.976C1424.24 567.175 1422.96 554.18 1420.42 541.985L1419.9 539.557L1419.89 539.518C1417.4 527.249 1413.45 516.389 1408.06 506.917L1406.96 505.017L1406.94 504.996C1401.25 494.925 1393.72 487.078 1384.35 481.413C1375.04 475.785 1363.71 472.923 1350.27 472.923C1336.84 472.923 1325.51 475.78 1316.21 481.401C1307.06 487.066 1299.52 494.92 1293.59 505.009L1293.59 505.011C1287.87 514.925 1283.66 526.42 1280.99 539.518V539.524C1278.32 552.429 1276.98 566.245 1276.98 580.976V588.064C1276.98 602.3 1278.16 615.63 1280.51 628.06L1280.99 630.534C1283.65 643.613 1287.85 655.091 1293.57 664.995C1299.29 674.327 1306.64 681.682 1315.63 687.091L1316.5 687.61C1325.81 693.022 1337.26 695.78 1350.95 695.78V697.755C1337 697.755 1325.18 694.942 1315.51 689.317C1305.83 683.692 1297.96 675.929 1291.88 666.029C1286.03 655.904 1281.76 644.203 1279.06 630.928C1276.36 617.652 1275.01 603.364 1275.01 588.064V580.976C1275.01 566.126 1276.36 552.175 1279.06 539.125C1281.76 525.85 1286.03 514.149 1291.88 504.024C1297.96 493.674 1305.72 485.573 1315.17 479.723C1324.85 473.873 1336.55 470.948 1350.27 470.948C1364 470.948 1375.7 473.873 1385.37 479.723C1395.05 485.573 1402.81 493.674 1408.66 504.024C1414.74 514.149 1419.12 525.85 1421.82 539.125C1424.75 552.175 1426.21 566.126 1426.21 580.976V588.064C1426.21 603.364 1424.75 617.652 1421.82 630.928C1419.12 644.203 1414.85 655.904 1409 666.029C1403.15 675.929 1395.39 683.692 1385.71 689.317C1376.04 694.942 1364.45 697.755 1350.95 697.755V695.78C1364.17 695.78 1375.4 693.027 1384.72 687.61C1394.09 682.16 1401.62 674.642 1407.3 665.024C1413.02 655.114 1417.23 643.626 1419.89 630.534L1419.89 630.519L1419.9 630.503C1422.79 617.384 1424.24 603.239 1424.24 588.064V580.976ZM1525.73 588.064C1525.73 614.806 1521.87 639.66 1514.15 662.609L1514.15 662.615C1506.66 684.637 1495.75 704.019 1481.41 720.738L1480.01 722.347C1465.18 739.228 1446.94 752.335 1425.31 761.67C1403.64 771.02 1378.84 775.67 1350.95 775.67C1323.92 775.67 1299.7 771.306 1278.32 762.536L1276.26 761.673L1276.25 761.67C1255.3 752.627 1237.42 740.047 1222.64 723.928L1221.22 722.358L1221.21 722.347L1221.2 722.337C1206.86 705.79 1195.84 686.583 1188.14 664.737L1187.41 662.615L1187.41 662.609C1179.68 639.66 1175.83 614.806 1175.83 588.064V580.976C1175.83 554.011 1179.68 529.155 1187.41 506.425C1195.14 483.475 1206.4 463.555 1221.21 446.693C1236.04 429.816 1254.27 416.711 1275.9 407.376L1277.94 406.493C1299.12 397.504 1323.24 393.033 1350.27 393.033C1378.17 393.033 1403.08 397.795 1424.96 407.367C1446.81 416.699 1465.17 429.802 1480 446.682C1495.04 463.544 1506.42 483.469 1514.15 506.425C1521.87 529.155 1525.73 554.011 1525.73 580.976V588.064Z" fill="#8BDFD7"/>
<path opacity="0.12" d="M1172.54 573.889C1172.54 547.113 1169.05 522.812 1162.08 500.986C1155.1 478.936 1144.75 460.035 1131.03 444.285C1117.53 428.534 1100.76 416.384 1080.74 407.834C1060.71 399.283 1037.76 395.008 1011.89 395.008C985.335 395.008 961.484 399.621 940.333 408.846C919.183 417.846 901.182 430.784 886.332 447.66C871.706 464.535 860.456 484.448 852.581 507.399C844.706 530.35 840.768 555.663 840.768 583.339V596.839C840.768 621.14 844.931 644.091 853.256 665.691C861.581 687.067 873.506 705.855 889.032 722.056C904.782 738.256 923.908 750.969 946.409 760.194C968.909 769.194 994.335 773.695 1022.69 773.695C1046.31 773.695 1067.35 770.545 1085.8 764.244C1104.25 757.719 1120 749.394 1133.05 739.269C1146.33 729.143 1156.79 718.568 1164.44 707.543L1117.19 656.241C1106.16 670.191 1093 680.654 1077.7 687.63C1062.62 694.38 1046.31 697.755 1028.76 697.755V695.78C1046.05 695.78 1062.08 692.458 1076.88 685.832C1091.88 678.994 1104.8 668.735 1115.64 655.016L1117.07 653.202L1166.96 707.369L1166.06 708.669C1158.27 719.895 1147.66 730.609 1134.26 740.827L1134.26 740.829C1121.02 751.105 1105.07 759.523 1086.46 766.105L1086.44 766.113C1067.74 772.497 1046.48 775.67 1022.69 775.67C995.018 775.67 970.053 771.416 947.818 762.869L945.676 762.028L945.66 762.021C923.638 752.992 904.782 740.642 889.121 724.96L887.616 723.433L887.607 723.423C872.389 707.543 860.591 689.205 852.216 668.426L851.416 666.409L851.414 666.401C842.997 644.563 838.793 621.371 838.793 596.839V583.339C838.793 555.475 842.757 529.942 850.712 506.759C858.662 483.589 870.034 463.448 884.839 446.366L884.849 446.354C899.895 429.256 918.135 416.148 939.545 407.035L941.562 406.173C962.489 397.4 985.941 393.033 1011.89 393.033C1037.98 393.033 1061.2 397.344 1081.51 406.017C1101.8 414.678 1118.81 427.001 1132.51 442.987C1146.43 458.961 1156.91 478.106 1163.96 500.385C1171 522.434 1174.52 546.942 1174.52 573.889V616.365H941.601C942.592 623.464 944.14 630.241 946.25 636.696C950.451 648.855 956.292 659.315 963.759 668.104C971.444 676.888 980.662 683.693 991.431 688.528C1002.39 693.349 1014.82 695.78 1028.76 695.78V697.755C1014.59 697.755 1001.87 695.28 990.622 690.33C979.597 685.379 970.147 678.404 962.272 669.404C954.621 660.404 948.659 649.716 944.384 637.34C942.007 630.078 940.334 622.427 939.352 614.39H1172.54V573.889ZM1075.05 542.163C1075.05 529.321 1072.77 517.897 1068.26 507.854L1067.81 506.886L1067.8 506.863L1067.79 506.84C1063.22 496.385 1056.27 488.138 1046.92 482.053C1037.65 476.017 1025.68 472.923 1010.87 472.923C998.342 472.923 987.687 475.668 978.825 481.071C969.905 486.51 962.593 494.136 956.895 503.999C951.39 513.915 947.181 525.639 944.291 539.198C943.742 541.945 943.252 544.75 942.816 547.613H1075.05V542.163ZM1077.03 549.588H940.528C941.048 545.897 941.657 542.296 942.358 538.787C945.284 525.062 949.559 513.137 955.184 503.011C961.034 492.886 968.572 485.011 977.797 479.386C987.022 473.761 998.048 470.948 1010.87 470.948C1025.95 470.948 1038.32 474.098 1048 480.398C1057.67 486.698 1064.87 495.249 1069.6 506.049C1074.55 516.624 1077.03 528.662 1077.03 542.163V549.588Z" fill="#8BDFD7"/>
<path opacity="0.12" d="M715.399 533.725C715.399 518.166 713.299 506.185 709.255 497.625L708.857 496.807C704.557 488.206 698.265 482.257 689.961 478.85L689.932 478.838L689.905 478.826C681.68 475.147 671.398 473.26 658.985 473.26C646.198 473.26 635.167 475.794 625.828 480.79C616.672 485.807 609.033 492.784 602.906 501.752C601.473 503.874 600.126 506.092 598.858 508.398V768.919H497.705V399.783H592.634L595.793 440.327C608.338 425.249 623.163 413.7 640.26 405.706C658.101 397.245 677.967 393.033 699.824 393.033C716.575 393.033 731.985 395.381 746.034 400.104L747.389 400.568C761.853 405.619 774.269 413.665 784.612 424.692C795.223 435.764 803.235 450.346 808.704 468.348C814.404 486.37 817.227 508.29 817.227 534.062V768.919H715.399V533.725ZM499.68 766.944H596.883V507.893C598.25 505.375 599.711 502.959 601.271 500.649C607.571 491.424 615.446 484.223 624.896 479.048C634.572 473.873 645.934 471.285 658.985 471.285C671.585 471.285 682.161 473.198 690.711 477.023C699.486 480.623 706.124 486.923 710.624 495.924C715.124 504.924 717.374 517.524 717.374 533.725V766.944H815.252V534.062C815.252 508.412 812.44 486.698 806.814 468.923C801.414 451.147 793.539 436.859 783.189 426.059C773.063 415.259 760.913 407.383 746.738 402.433C732.562 397.483 716.924 395.008 699.824 395.008C678.223 395.008 658.647 399.171 641.097 407.496C623.771 415.596 608.808 427.409 596.208 442.935C595.533 443.754 594.868 444.583 594.21 445.421L590.808 401.758H499.68V766.944Z" fill="#8BDFD7"/>
<g opacity="0.12">
<path d="M1851.61 538.808C1870.94 504.062 1914.78 491.564 1949.52 510.892V510.892L1857.42 676.463C1842.01 704.167 1807.06 714.132 1779.35 698.721L1766.6 691.628L1851.61 538.808Z" fill="url(#paint2_linear_82_236)"/>
<path d="M1851.61 538.808C1870.94 504.062 1914.78 491.564 1949.52 510.892V510.892L1857.42 676.463C1842.01 704.167 1807.06 714.132 1779.35 698.721L1766.6 691.628L1851.61 538.808Z" fill="url(#paint3_linear_82_236)" fill-opacity="0.2"/>
<path d="M1851.61 538.808C1870.94 504.062 1914.78 491.564 1949.52 510.892V510.892L1857.42 676.463C1842.01 704.167 1807.06 714.132 1779.35 698.721L1766.6 691.628L1851.61 538.808Z" fill="black" fill-opacity="0.2"/>
<path d="M1961.53 483.844C1980.85 449.098 2024.69 436.6 2059.43 455.928V455.928L1967.33 621.499C1951.92 649.203 1916.97 659.168 1889.27 643.757L1876.51 636.664L1961.53 483.844Z" fill="url(#paint4_linear_82_236)"/>
<path d="M1961.53 483.844C1980.85 449.098 2024.69 436.6 2059.43 455.928V455.928L1967.33 621.499C1951.92 649.203 1916.97 659.168 1889.27 643.757L1876.51 636.664L1961.53 483.844Z" fill="url(#paint5_linear_82_236)" fill-opacity="0.2"/>
<path d="M1961.53 483.844C1980.85 449.098 2024.69 436.6 2059.43 455.928V455.928L1967.33 621.499C1951.92 649.203 1916.97 659.168 1889.27 643.757L1876.51 636.664L1961.53 483.844Z" fill="black" fill-opacity="0.2"/>
<path d="M2059.57 439.497C2078.9 404.752 2122.74 392.254 2157.48 411.582V411.582L2065.38 577.153C2049.97 604.856 2015.02 614.821 1987.31 599.41L1974.56 592.317L2059.57 439.497Z" fill="url(#paint6_linear_82_236)"/>
<path d="M2059.57 439.497C2078.9 404.752 2122.74 392.254 2157.48 411.582V411.582L2065.38 577.153C2049.97 604.856 2015.02 614.821 1987.31 599.41L1974.56 592.317L2059.57 439.497Z" fill="url(#paint7_linear_82_236)" fill-opacity="0.2"/>
<path d="M2059.57 439.497C2078.9 404.752 2122.74 392.254 2157.48 411.582V411.582L2065.38 577.153C2049.97 604.856 2015.02 614.821 1987.31 599.41L1974.56 592.317L2059.57 439.497Z" fill="black" fill-opacity="0.2"/>
</g>
<g opacity="0.12">
<path d="M450.654 1153.39C469.982 1118.65 513.817 1106.15 548.563 1125.48V1125.48L456.459 1291.05C441.048 1318.75 406.097 1328.72 378.394 1313.3L365.643 1306.21L450.654 1153.39Z" fill="url(#paint8_linear_82_236)"/>
<path d="M450.654 1153.39C469.982 1118.65 513.817 1106.15 548.563 1125.48V1125.48L456.459 1291.05C441.048 1318.75 406.097 1328.72 378.394 1313.3L365.643 1306.21L450.654 1153.39Z" fill="url(#paint9_linear_82_236)" fill-opacity="0.2"/>
<path d="M450.654 1153.39C469.982 1118.65 513.817 1106.15 548.563 1125.48V1125.48L456.459 1291.05C441.048 1318.75 406.097 1328.72 378.394 1313.3L365.643 1306.21L450.654 1153.39Z" fill="black" fill-opacity="0.2"/>
<path d="M560.568 1098.43C579.896 1063.68 623.731 1051.18 658.477 1070.51V1070.51L566.373 1236.08C550.962 1263.79 516.011 1273.75 488.308 1258.34L475.557 1251.25L560.568 1098.43Z" fill="url(#paint10_linear_82_236)"/>
<path d="M560.568 1098.43C579.896 1063.68 623.731 1051.18 658.477 1070.51V1070.51L566.373 1236.08C550.962 1263.79 516.011 1273.75 488.308 1258.34L475.557 1251.25L560.568 1098.43Z" fill="url(#paint11_linear_82_236)" fill-opacity="0.2"/>
<path d="M560.568 1098.43C579.896 1063.68 623.731 1051.18 658.477 1070.51V1070.51L566.373 1236.08C550.962 1263.79 516.011 1273.75 488.308 1258.34L475.557 1251.25L560.568 1098.43Z" fill="black" fill-opacity="0.2"/>
<path d="M658.616 1054.08C677.945 1019.34 721.78 1006.84 756.525 1026.17V1026.17L664.422 1191.74C649.011 1219.44 614.06 1229.4 586.357 1213.99L573.606 1206.9L658.616 1054.08Z" fill="url(#paint12_linear_82_236)"/>
<path d="M658.616 1054.08C677.945 1019.34 721.78 1006.84 756.525 1026.17V1026.17L664.422 1191.74C649.011 1219.44 614.06 1229.4 586.357 1213.99L573.606 1206.9L658.616 1054.08Z" fill="url(#paint13_linear_82_236)" fill-opacity="0.2"/>
<path d="M658.616 1054.08C677.945 1019.34 721.78 1006.84 756.525 1026.17V1026.17L664.422 1191.74C649.011 1219.44 614.06 1229.4 586.357 1213.99L573.606 1206.9L658.616 1054.08Z" fill="black" fill-opacity="0.2"/>
</g>
<g opacity="0.12">
<path d="M66.902 494.855C102.646 512.266 117.508 555.357 100.097 591.102V591.102L-70.2347 508.132C-98.7345 494.249 -110.584 459.892 -96.7016 431.392L-90.3119 418.274L66.902 494.855Z" fill="url(#paint14_linear_82_236)"/>
<path d="M66.902 494.855C102.646 512.266 117.508 555.357 100.097 591.102V591.102L-70.2347 508.132C-98.7345 494.249 -110.584 459.892 -96.7016 431.392L-90.3119 418.274L66.902 494.855Z" fill="url(#paint15_linear_82_236)" fill-opacity="0.2"/>
<path d="M66.902 494.855C102.646 512.266 117.508 555.357 100.097 591.102V591.102L-70.2347 508.132C-98.7345 494.249 -110.584 459.892 -96.7016 431.392L-90.3119 418.274L66.902 494.855Z" fill="black" fill-opacity="0.2"/>
<path d="M127.757 601.618C163.502 619.03 178.364 662.121 160.952 697.866V697.866L-9.37925 614.896C-37.8791 601.013 -49.7287 566.655 -35.8462 538.156L-29.4564 525.038L127.757 601.618Z" fill="url(#paint16_linear_82_236)"/>
<path d="M127.757 601.618C163.502 619.03 178.364 662.121 160.952 697.866V697.866L-9.37925 614.896C-37.8791 601.013 -49.7287 566.655 -35.8462 538.156L-29.4564 525.038L127.757 601.618Z" fill="url(#paint17_linear_82_236)" fill-opacity="0.2"/>
<path d="M127.757 601.618C163.502 619.03 178.364 662.121 160.952 697.866V697.866L-9.37925 614.896C-37.8791 601.013 -49.7287 566.655 -35.8462 538.156L-29.4564 525.038L127.757 601.618Z" fill="black" fill-opacity="0.2"/>
<path d="M177.365 697.111C213.109 714.523 227.971 757.614 210.56 793.359V793.359L40.2282 710.389C11.7284 696.506 -0.121253 662.149 13.7613 633.649L20.151 620.531L177.365 697.111Z" fill="url(#paint18_linear_82_236)"/>
<path d="M177.365 697.111C213.109 714.523 227.971 757.614 210.56 793.359V793.359L40.2282 710.389C11.7284 696.506 -0.121253 662.149 13.7613 633.649L20.151 620.531L177.365 697.111Z" fill="url(#paint19_linear_82_236)" fill-opacity="0.2"/>
<path d="M177.365 697.111C213.109 714.523 227.971 757.614 210.56 793.359V793.359L40.2282 710.389C11.7284 696.506 -0.121253 662.149 13.7613 633.649L20.151 620.531L177.365 697.111Z" fill="black" fill-opacity="0.2"/>
</g>
<g opacity="0.12">
<path d="M1443.42 -89.7215C1479.16 -72.3101 1494.02 -29.2187 1476.61 6.52578V6.52578L1306.28 -76.4443C1277.78 -90.3268 1265.93 -124.684 1279.81 -153.184L1286.2 -166.302L1443.42 -89.7215Z" fill="url(#paint20_linear_82_236)"/>
<path d="M1443.42 -89.7215C1479.16 -72.3101 1494.02 -29.2187 1476.61 6.52578V6.52578L1306.28 -76.4443C1277.78 -90.3268 1265.93 -124.684 1279.81 -153.184L1286.2 -166.302L1443.42 -89.7215Z" fill="url(#paint21_linear_82_236)" fill-opacity="0.2"/>
<path d="M1443.42 -89.7215C1479.16 -72.3101 1494.02 -29.2187 1476.61 6.52578V6.52578L1306.28 -76.4443C1277.78 -90.3268 1265.93 -124.684 1279.81 -153.184L1286.2 -166.302L1443.42 -89.7215Z" fill="black" fill-opacity="0.2"/>
<path d="M1504.27 17.0421C1540.02 34.4536 1554.88 77.545 1537.47 113.289V113.289L1367.14 30.3194C1338.64 16.4369 1326.79 -17.9208 1340.67 -46.4206L1347.06 -59.5382L1504.27 17.0421Z" fill="url(#paint22_linear_82_236)"/>
<path d="M1504.27 17.0421C1540.02 34.4536 1554.88 77.545 1537.47 113.289V113.289L1367.14 30.3194C1338.64 16.4369 1326.79 -17.9208 1340.67 -46.4206L1347.06 -59.5382L1504.27 17.0421Z" fill="url(#paint23_linear_82_236)" fill-opacity="0.2"/>
<path d="M1504.27 17.0421C1540.02 34.4536 1554.88 77.545 1537.47 113.289V113.289L1367.14 30.3194C1338.64 16.4369 1326.79 -17.9208 1340.67 -46.4206L1347.06 -59.5382L1504.27 17.0421Z" fill="black" fill-opacity="0.2"/>
<path d="M1553.88 112.535C1589.63 129.947 1604.49 173.038 1587.08 208.783V208.783L1416.75 125.813C1388.25 111.93 1376.4 77.5724 1390.28 49.0726L1396.67 35.955L1553.88 112.535Z" fill="url(#paint24_linear_82_236)"/>
<path d="M1553.88 112.535C1589.63 129.947 1604.49 173.038 1587.08 208.783V208.783L1416.75 125.813C1388.25 111.93 1376.4 77.5724 1390.28 49.0726L1396.67 35.955L1553.88 112.535Z" fill="url(#paint25_linear_82_236)" fill-opacity="0.2"/>
<path d="M1553.88 112.535C1589.63 129.947 1604.49 173.038 1587.08 208.783V208.783L1416.75 125.813C1388.25 111.93 1376.4 77.5724 1390.28 49.0726L1396.67 35.955L1553.88 112.535Z" fill="black" fill-opacity="0.2"/>
</g>
<path d="M969.859 577.463C977.792 534.603 1018.41 506.394 1060.58 514.457L1035.38 650.563C1027.45 693.424 986.835 721.633 944.667 713.57L969.859 577.463Z" fill="url(#paint26_linear_82_236)"/>
<path d="M969.859 577.463C977.792 534.603 1018.41 506.394 1060.58 514.457L1035.38 650.563C1027.45 693.424 986.835 721.633 944.667 713.57L969.859 577.463Z" fill="url(#paint27_linear_82_236)" fill-opacity="0.2"/>
<path d="M930.606 452.281C896.575 452.281 868.988 480.321 868.988 514.91L1089.78 514.91C1123.81 514.91 1151.4 486.87 1151.4 452.281L930.606 452.281Z" fill="url(#paint28_linear_82_236)"/>
<path d="M930.606 452.281C896.575 452.281 868.988 480.321 868.988 514.91L1089.78 514.91C1123.81 514.91 1151.4 486.87 1151.4 452.281L930.606 452.281Z" fill="url(#paint29_linear_82_236)" fill-opacity="0.2"/>
</g>
<defs>
<linearGradient id="paint0_linear_82_236" x1="45.4481" y1="45.4482" x2="2018.39" y2="1142.51" gradientUnits="userSpaceOnUse">
<stop/>
<stop offset="0.5" stop-color="#101010"/>
<stop offset="1"/>
</linearGradient>
<linearGradient id="paint1_linear_82_236" x1="45.4481" y1="45.4482" x2="2018.39" y2="1142.51" gradientUnits="userSpaceOnUse">
<stop/>
<stop offset="0.5" stop-color="#101010"/>
<stop offset="1"/>
</linearGradient>
<linearGradient id="paint2_linear_82_236" x1="1880.02" y1="677.995" x2="1865.77" y2="504.859" gradientUnits="userSpaceOnUse">
<stop stop-color="#D7FFAF"/>
<stop offset="0.589182" stop-color="#8BDFD7"/>
<stop offset="1" stop-color="#3FBFFF"/>
</linearGradient>
<linearGradient id="paint3_linear_82_236" x1="1861.43" y1="630.164" x2="1947.33" y2="559.584" gradientUnits="userSpaceOnUse">
<stop stop-color="#9BFF37"/>
<stop offset="1" stop-color="#47C2FA"/>
</linearGradient>
<linearGradient id="paint4_linear_82_236" x1="1989.93" y1="623.031" x2="1975.68" y2="449.896" gradientUnits="userSpaceOnUse">
<stop stop-color="#D7FFAF"/>
<stop offset="0.589182" stop-color="#8BDFD7"/>
<stop offset="1" stop-color="#3FBFFF"/>
</linearGradient>
<linearGradient id="paint5_linear_82_236" x1="1971.35" y1="575.2" x2="2057.24" y2="504.62" gradientUnits="userSpaceOnUse">
<stop stop-color="#9BFF37"/>
<stop offset="1" stop-color="#47C2FA"/>
</linearGradient>
<linearGradient id="paint6_linear_82_236" x1="2087.98" y1="578.684" x2="2073.73" y2="405.549" gradientUnits="userSpaceOnUse">
<stop stop-color="#D7FFAF"/>
<stop offset="0.589182" stop-color="#8BDFD7"/>
<stop offset="1" stop-color="#3FBFFF"/>
</linearGradient>
<linearGradient id="paint7_linear_82_236" x1="2069.4" y1="530.854" x2="2155.29" y2="460.274" gradientUnits="userSpaceOnUse">
<stop stop-color="#9BFF37"/>
<stop offset="1" stop-color="#47C2FA"/>
</linearGradient>
<linearGradient id="paint8_linear_82_236" x1="479.062" y1="1292.58" x2="464.809" y2="1119.44" gradientUnits="userSpaceOnUse">
<stop stop-color="#D7FFAF"/>
<stop offset="0.589182" stop-color="#8BDFD7"/>
<stop offset="1" stop-color="#3FBFFF"/>
</linearGradient>
<linearGradient id="paint9_linear_82_236" x1="460.475" y1="1244.75" x2="546.367" y2="1174.17" gradientUnits="userSpaceOnUse">
<stop stop-color="#9BFF37"/>
<stop offset="1" stop-color="#47C2FA"/>
</linearGradient>
<linearGradient id="paint10_linear_82_236" x1="588.976" y1="1237.62" x2="574.723" y2="1064.48" gradientUnits="userSpaceOnUse">
<stop stop-color="#D7FFAF"/>
<stop offset="0.589182" stop-color="#8BDFD7"/>
<stop offset="1" stop-color="#3FBFFF"/>
</linearGradient>
<linearGradient id="paint11_linear_82_236" x1="570.389" y1="1189.78" x2="656.282" y2="1119.2" gradientUnits="userSpaceOnUse">
<stop stop-color="#9BFF37"/>
<stop offset="1" stop-color="#47C2FA"/>
</linearGradient>
<linearGradient id="paint12_linear_82_236" x1="687.025" y1="1193.27" x2="672.772" y2="1020.13" gradientUnits="userSpaceOnUse">
<stop stop-color="#D7FFAF"/>
<stop offset="0.589182" stop-color="#8BDFD7"/>
<stop offset="1" stop-color="#3FBFFF"/>
</linearGradient>
<linearGradient id="paint13_linear_82_236" x1="668.438" y1="1145.44" x2="754.33" y2="1074.86" gradientUnits="userSpaceOnUse">
<stop stop-color="#9BFF37"/>
<stop offset="1" stop-color="#47C2FA"/>
</linearGradient>
<linearGradient id="paint14_linear_82_236" x1="-70.5357" y1="530.785" x2="101.569" y2="507.144" gradientUnits="userSpaceOnUse">
<stop stop-color="#D7FFAF"/>
<stop offset="0.589182" stop-color="#8BDFD7"/>
<stop offset="1" stop-color="#3FBFFF"/>
</linearGradient>
<linearGradient id="paint15_linear_82_236" x1="-23.7858" y1="509.626" x2="51.3576" y2="591.556" gradientUnits="userSpaceOnUse">
<stop stop-color="#9BFF37"/>
<stop offset="1" stop-color="#47C2FA"/>
</linearGradient>
<linearGradient id="paint16_linear_82_236" x1="-9.68026" y1="637.549" x2="162.425" y2="613.908" gradientUnits="userSpaceOnUse">
<stop stop-color="#D7FFAF"/>
<stop offset="0.589182" stop-color="#8BDFD7"/>
<stop offset="1" stop-color="#3FBFFF"/>
</linearGradient>
<linearGradient id="paint17_linear_82_236" x1="37.0697" y1="616.39" x2="112.213" y2="698.32" gradientUnits="userSpaceOnUse">
<stop stop-color="#9BFF37"/>
<stop offset="1" stop-color="#47C2FA"/>
</linearGradient>
<linearGradient id="paint18_linear_82_236" x1="39.9272" y1="733.042" x2="212.032" y2="709.401" gradientUnits="userSpaceOnUse">
<stop stop-color="#D7FFAF"/>
<stop offset="0.589182" stop-color="#8BDFD7"/>
<stop offset="1" stop-color="#3FBFFF"/>
</linearGradient>
<linearGradient id="paint19_linear_82_236" x1="86.6771" y1="711.883" x2="161.82" y2="793.813" gradientUnits="userSpaceOnUse">
<stop stop-color="#9BFF37"/>
<stop offset="1" stop-color="#47C2FA"/>
</linearGradient>
<linearGradient id="paint20_linear_82_236" x1="1305.98" y1="-53.791" x2="1478.08" y2="-77.432" gradientUnits="userSpaceOnUse">
<stop stop-color="#D7FFAF"/>
<stop offset="0.589182" stop-color="#8BDFD7"/>
<stop offset="1" stop-color="#3FBFFF"/>
</linearGradient>
<linearGradient id="paint21_linear_82_236" x1="1352.73" y1="-74.9502" x2="1427.87" y2="6.97999" gradientUnits="userSpaceOnUse">
<stop stop-color="#9BFF37"/>
<stop offset="1" stop-color="#47C2FA"/>
</linearGradient>
<linearGradient id="paint22_linear_82_236" x1="1366.84" y1="52.9727" x2="1538.94" y2="29.3316" gradientUnits="userSpaceOnUse">
<stop stop-color="#D7FFAF"/>
<stop offset="0.589182" stop-color="#8BDFD7"/>
<stop offset="1" stop-color="#3FBFFF"/>
</linearGradient>
<linearGradient id="paint23_linear_82_236" x1="1413.59" y1="31.8135" x2="1488.73" y2="113.744" gradientUnits="userSpaceOnUse">
<stop stop-color="#9BFF37"/>
<stop offset="1" stop-color="#47C2FA"/>
</linearGradient>
<linearGradient id="paint24_linear_82_236" x1="1416.44" y1="148.466" x2="1588.55" y2="124.825" gradientUnits="userSpaceOnUse">
<stop stop-color="#D7FFAF"/>
<stop offset="0.589182" stop-color="#8BDFD7"/>
<stop offset="1" stop-color="#3FBFFF"/>
</linearGradient>
<linearGradient id="paint25_linear_82_236" x1="1463.19" y1="127.307" x2="1538.34" y2="209.237" gradientUnits="userSpaceOnUse">
<stop stop-color="#9BFF37"/>
<stop offset="1" stop-color="#47C2FA"/>
</linearGradient>
<linearGradient id="paint26_linear_82_236" x1="992.887" y1="650" x2="996.524" y2="487.23" gradientUnits="userSpaceOnUse">
<stop stop-color="#D7FFAF"/>
<stop offset="0.460602" stop-color="#8BDFD7"/>
<stop offset="1" stop-color="#3FBFFF"/>
</linearGradient>
<linearGradient id="paint27_linear_82_236" x1="1076.88" y1="608.745" x2="1090.31" y2="483.045" gradientUnits="userSpaceOnUse">
<stop stop-color="#9BFF37"/>
<stop offset="1" stop-color="#47C2FA"/>
</linearGradient>
<linearGradient id="paint28_linear_82_236" x1="1075.24" y1="505.342" x2="955.904" y2="421.493" gradientUnits="userSpaceOnUse">
<stop stop-color="#D7FFAF"/>
<stop offset="0.440209" stop-color="#8BDFD7"/>
<stop offset="1" stop-color="#3FBFFF"/>
</linearGradient>
<linearGradient id="paint29_linear_82_236" x1="1037.22" y1="498.383" x2="929.447" y2="554.215" gradientUnits="userSpaceOnUse">
<stop stop-color="#47C2FA"/>
<stop offset="1" stop-color="#9BFF37"/>
</linearGradient>
</defs>
</svg>
