<svg width="2021" height="1168" viewBox="0 0 2021 1168" fill="none" xmlns="http://www.w3.org/2000/svg">
<rect x="1" y="1" width="2018.39" height="1165.23" rx="51" fill="url(#paint0_linear_82_210)" stroke="#404040" stroke-width="2"/>
<mask id="mask0_82_210" style="mask-type:alpha" maskUnits="userSpaceOnUse" x="0" y="0" width="2021" height="1168">
<rect x="1" y="1" width="2018.39" height="1165.23" rx="51" fill="url(#paint1_linear_82_210)" stroke="url(#paint2_linear_82_210)" stroke-width="2"/>
</mask>
<g mask="url(#mask0_82_210)">
<g opacity="0.12">
<mask id="path-3-outside-1_82_210" maskUnits="userSpaceOnUse" x="1130.08" y="883.218" width="966" height="359" fill="black">
<rect fill="white" x="1130.08" y="883.218" width="966" height="359"/>
<path d="M1223.13 964.125V1234.22H1131.72V890.81H1217.42L1223.13 964.125ZM1209.8 1050.45H1185.04C1185.04 1025.06 1188.32 1002.21 1194.88 981.898C1201.44 961.374 1210.64 943.918 1222.49 929.53C1234.34 914.931 1248.41 903.822 1264.71 896.205C1281.21 888.376 1299.62 884.462 1319.93 884.462C1336.01 884.462 1350.72 886.789 1364.05 891.444C1377.38 896.099 1388.8 903.505 1398.32 913.661C1408.06 923.817 1415.46 937.253 1420.54 953.969C1425.83 970.684 1428.47 991.103 1428.47 1015.22V1234.22H1336.43V1014.91C1336.43 999.672 1334.32 987.823 1330.09 979.359C1325.85 970.896 1319.61 964.971 1311.36 961.586C1303.32 957.989 1293.38 956.19 1281.53 956.19C1269.25 956.19 1258.57 958.624 1249.47 963.49C1240.58 968.357 1233.18 975.128 1227.25 983.803C1221.54 992.266 1217.2 1002.21 1214.24 1013.64C1211.28 1025.06 1209.8 1037.33 1209.8 1050.45ZM1623.54 1240.57C1596.88 1240.57 1572.97 1236.33 1551.81 1227.87C1530.65 1219.19 1512.67 1207.24 1497.85 1192.01C1483.25 1176.77 1472.04 1159.1 1464.21 1139C1456.38 1118.69 1452.47 1097.11 1452.47 1074.26V1061.56C1452.47 1035.54 1456.17 1011.73 1463.58 990.15C1470.98 968.568 1481.56 949.843 1495.32 933.974C1509.28 918.104 1526.21 905.938 1546.1 897.475C1565.99 888.799 1588.41 884.462 1613.38 884.462C1637.71 884.462 1659.3 888.482 1678.13 896.522C1696.96 904.563 1712.72 915.989 1725.42 930.8C1738.32 945.611 1748.06 963.384 1754.62 984.12C1761.18 1004.64 1764.46 1027.5 1764.46 1052.67V1090.76H1491.51V1029.82H1674.64V1022.84C1674.64 1010.15 1672.31 998.826 1667.65 988.881C1663.21 978.725 1656.44 970.684 1647.34 964.76C1638.24 958.835 1626.61 955.873 1612.43 955.873C1600.37 955.873 1590 958.518 1581.33 963.808C1572.65 969.097 1565.56 976.503 1560.06 986.024C1554.77 995.546 1550.75 1006.76 1548 1019.67C1545.46 1032.36 1544.19 1046.33 1544.19 1061.56V1074.26C1544.19 1088.01 1546.1 1100.71 1549.91 1112.34C1553.93 1123.98 1559.53 1134.03 1566.73 1142.49C1574.13 1150.96 1583.02 1157.52 1593.39 1162.17C1603.97 1166.83 1615.92 1169.15 1629.25 1169.15C1645.75 1169.15 1661.1 1165.98 1675.27 1159.63C1689.66 1153.07 1702.04 1143.23 1712.41 1130.12L1756.84 1178.36C1749.64 1188.73 1739.81 1198.67 1727.32 1208.19C1715.05 1217.71 1700.24 1225.54 1682.89 1231.68C1665.54 1237.6 1645.75 1240.57 1623.54 1240.57ZM1769.41 1066V1059.34C1769.41 1034.16 1773 1010.99 1780.2 989.833C1787.39 968.463 1797.87 949.949 1811.62 934.291C1825.37 918.633 1842.3 906.467 1862.4 897.792C1882.5 888.905 1905.56 884.462 1931.59 884.462C1957.62 884.462 1980.78 888.905 2001.1 897.792C2021.41 906.467 2038.44 918.633 2052.2 934.291C2066.16 949.949 2076.74 968.463 2083.93 989.833C2091.13 1010.99 2094.72 1034.16 2094.72 1059.34V1066C2094.72 1090.97 2091.13 1114.14 2083.93 1135.51C2076.74 1156.67 2066.16 1175.18 2052.2 1191.05C2038.44 1206.71 2021.51 1218.88 2001.41 1227.55C1981.31 1236.23 1958.25 1240.57 1932.22 1240.57C1906.2 1240.57 1883.03 1236.23 1862.72 1227.55C1842.62 1218.88 1825.58 1206.71 1811.62 1191.05C1797.87 1175.18 1787.39 1156.67 1780.2 1135.51C1773 1114.14 1769.41 1090.97 1769.41 1066ZM1860.81 1059.34V1066C1860.81 1080.39 1862.08 1093.83 1864.62 1106.31C1867.16 1118.8 1871.18 1129.8 1876.68 1139.32C1882.4 1148.63 1889.8 1155.93 1898.9 1161.22C1908 1166.51 1919.11 1169.15 1932.22 1169.15C1944.92 1169.15 1955.82 1166.51 1964.92 1161.22C1974.01 1155.93 1981.31 1148.63 1986.81 1139.32C1992.32 1129.8 1996.34 1118.8 1998.88 1106.31C2001.63 1093.83 2003 1080.39 2003 1066V1059.34C2003 1045.38 2001.63 1032.26 1998.88 1019.98C1996.34 1007.5 1992.21 996.498 1986.5 986.977C1981 977.243 1973.7 969.626 1964.6 964.125C1955.5 958.624 1944.5 955.873 1931.59 955.873C1918.68 955.873 1907.68 958.624 1898.58 964.125C1889.7 969.626 1882.4 977.243 1876.68 986.977C1871.18 996.498 1867.16 1007.5 1864.62 1019.98C1862.08 1032.26 1860.81 1045.38 1860.81 1059.34Z"/>
</mask>
<path d="M1223.13 964.125H1224.13V964.086L1224.12 964.047L1223.13 964.125ZM1223.13 1234.22V1235.22H1224.13V1234.22H1223.13ZM1131.72 1234.22H1130.72V1235.22H1131.72V1234.22ZM1131.72 890.81V889.81H1130.72V890.81H1131.72ZM1217.42 890.81L1218.41 890.732L1218.34 889.81H1217.42V890.81ZM1209.8 1050.45V1051.45H1210.8V1050.45H1209.8ZM1185.04 1050.45H1184.04V1051.45H1185.04V1050.45ZM1194.88 981.898L1195.83 982.206L1195.83 982.203L1194.88 981.898ZM1222.49 929.53L1223.27 930.166L1223.27 930.16L1222.49 929.53ZM1264.71 896.205L1265.13 897.111L1265.13 897.109L1264.71 896.205ZM1398.32 913.661L1397.59 914.345L1397.6 914.353L1398.32 913.661ZM1420.54 953.969L1419.58 954.259L1419.59 954.27L1420.54 953.969ZM1428.47 1234.22V1235.22H1429.47V1234.22H1428.47ZM1336.43 1234.22H1335.43V1235.22H1336.43V1234.22ZM1330.09 979.359L1330.98 978.912L1330.09 979.359ZM1311.36 961.586L1310.95 962.499L1310.97 962.505L1310.98 962.511L1311.36 961.586ZM1249.47 963.49L1249 962.608L1248.99 962.613L1249.47 963.49ZM1227.25 983.803L1226.43 983.239L1226.43 983.243L1227.25 983.803ZM1223.13 964.125H1222.13V1234.22H1223.13H1224.13V964.125H1223.13ZM1223.13 1234.22V1233.22H1131.72V1234.22V1235.22H1223.13V1234.22ZM1131.72 1234.22H1132.72V890.81H1131.72H1130.72V1234.22H1131.72ZM1131.72 890.81V891.81H1217.42V890.81V889.81H1131.72V890.81ZM1217.42 890.81L1216.42 890.887L1222.13 964.203L1223.13 964.125L1224.12 964.047L1218.41 890.732L1217.42 890.81ZM1209.8 1050.45V1049.45H1185.04V1050.45V1051.45H1209.8V1050.45ZM1185.04 1050.45H1186.04C1186.04 1025.15 1189.31 1002.4 1195.83 982.206L1194.88 981.898L1193.93 981.591C1187.33 1002.02 1184.04 1024.98 1184.04 1050.45H1185.04ZM1194.88 981.898L1195.83 982.203C1202.36 961.781 1211.51 944.442 1223.27 930.166L1222.49 929.53L1221.72 928.895C1209.78 943.395 1200.52 960.968 1193.93 981.594L1194.88 981.898ZM1222.49 929.53L1223.27 930.16C1235.03 915.673 1248.98 904.661 1265.13 897.111L1264.71 896.205L1264.28 895.299C1247.85 902.983 1233.66 914.189 1221.72 928.9L1222.49 929.53ZM1264.71 896.205L1265.13 897.109C1281.49 889.35 1299.75 885.462 1319.93 885.462V884.462V883.462C1299.49 883.462 1280.93 887.402 1264.28 895.302L1264.71 896.205ZM1319.93 884.462V885.462C1335.91 885.462 1350.51 887.775 1363.72 892.388L1364.05 891.444L1364.38 890.5C1350.93 885.804 1336.11 883.462 1319.93 883.462V884.462ZM1364.05 891.444L1363.72 892.388C1376.9 896.991 1388.18 904.308 1397.59 914.345L1398.32 913.661L1399.05 912.977C1389.42 902.702 1377.86 895.208 1364.38 890.5L1364.05 891.444ZM1398.32 913.661L1397.6 914.353C1407.2 924.372 1414.54 937.659 1419.58 954.259L1420.54 953.969L1421.5 953.678C1416.38 936.848 1408.91 923.263 1399.05 912.969L1398.32 913.661ZM1420.54 953.969L1419.59 954.27C1424.84 970.859 1427.47 991.169 1427.47 1015.22H1428.47H1429.47C1429.47 991.036 1426.82 970.509 1421.49 953.667L1420.54 953.969ZM1428.47 1015.22H1427.47V1234.22H1428.47H1429.47V1015.22H1428.47ZM1428.47 1234.22V1233.22H1336.43V1234.22V1235.22H1428.47V1234.22ZM1336.43 1234.22H1337.43V1014.91H1336.43H1335.43V1234.22H1336.43ZM1336.43 1014.91H1337.43C1337.43 999.601 1335.31 987.574 1330.98 978.912L1330.09 979.359L1329.19 979.807C1333.32 988.072 1335.43 999.743 1335.43 1014.91H1336.43ZM1330.09 979.359L1330.98 978.912C1326.65 970.247 1320.23 964.144 1311.74 960.661L1311.36 961.586L1310.98 962.511C1318.99 965.799 1325.06 971.545 1329.19 979.807L1330.09 979.359ZM1311.36 961.586L1311.77 960.673C1303.56 957.002 1293.47 955.19 1281.53 955.19V956.19V957.19C1293.28 957.19 1303.08 958.975 1310.95 962.499L1311.36 961.586ZM1281.53 956.19V955.19C1269.12 955.19 1258.27 957.651 1249 962.608L1249.47 963.49L1249.94 964.372C1258.87 959.597 1269.39 957.19 1281.53 957.19V956.19ZM1249.47 963.49L1248.99 962.613C1239.96 967.558 1232.44 974.438 1226.43 983.239L1227.25 983.803L1228.08 984.367C1233.92 975.817 1241.21 969.155 1249.95 964.367L1249.47 963.49ZM1227.25 983.803L1226.43 983.243C1220.64 991.814 1216.26 1001.87 1213.27 1013.39L1214.24 1013.64L1215.21 1013.89C1218.15 1002.56 1222.44 992.718 1228.08 984.362L1227.25 983.803ZM1214.24 1013.64L1213.27 1013.39C1210.29 1024.9 1208.8 1037.26 1208.8 1050.45H1209.8H1210.8C1210.8 1037.41 1212.27 1025.22 1215.21 1013.89L1214.24 1013.64ZM1551.81 1227.87L1551.43 1228.8L1551.44 1228.8L1551.81 1227.87ZM1497.85 1192.01L1497.13 1192.7L1497.14 1192.7L1497.85 1192.01ZM1464.21 1139L1463.28 1139.36L1463.28 1139.37L1464.21 1139ZM1463.58 990.15L1462.63 989.826L1463.58 990.15ZM1495.32 933.974L1494.56 933.313L1494.56 933.319L1495.32 933.974ZM1546.1 897.475L1546.49 898.395L1546.5 898.391L1546.1 897.475ZM1678.13 896.522L1677.74 897.442L1678.13 896.522ZM1725.42 930.8L1724.66 931.451L1724.66 931.457L1725.42 930.8ZM1754.62 984.12L1753.66 984.422L1753.66 984.425L1754.62 984.12ZM1764.46 1090.76V1091.76H1765.46V1090.76H1764.46ZM1491.51 1090.76H1490.51V1091.76H1491.51V1090.76ZM1491.51 1029.82V1028.82H1490.51V1029.82H1491.51ZM1674.64 1029.82V1030.82H1675.64V1029.82H1674.64ZM1667.65 988.881L1666.74 989.282L1666.74 989.293L1666.75 989.305L1667.65 988.881ZM1560.06 986.024L1559.2 985.524L1559.19 985.531L1559.19 985.539L1560.06 986.024ZM1548 1019.67L1547.02 1019.46L1547.02 1019.47L1548 1019.67ZM1549.91 1112.34L1548.95 1112.65L1548.96 1112.66L1548.96 1112.67L1549.91 1112.34ZM1566.73 1142.49L1565.96 1143.14L1565.97 1143.15L1565.97 1143.15L1566.73 1142.49ZM1593.39 1162.17L1592.98 1163.08L1592.98 1163.09L1593.39 1162.17ZM1675.27 1159.63L1675.68 1160.55L1675.69 1160.54L1675.27 1159.63ZM1712.41 1130.12L1713.14 1129.44L1712.35 1128.58L1711.62 1129.5L1712.41 1130.12ZM1756.84 1178.36L1757.66 1178.93L1758.12 1178.27L1757.57 1177.68L1756.84 1178.36ZM1727.32 1208.19L1726.72 1207.4L1726.71 1207.4L1727.32 1208.19ZM1682.89 1231.68L1683.21 1232.63L1683.22 1232.62L1682.89 1231.68ZM1623.54 1240.57V1239.57C1596.98 1239.57 1573.2 1235.35 1552.18 1226.94L1551.81 1227.87L1551.44 1228.8C1572.73 1237.32 1596.77 1241.57 1623.54 1241.57V1240.57ZM1551.81 1227.87L1552.19 1226.94C1531.15 1218.32 1513.28 1206.44 1498.57 1191.31L1497.85 1192.01L1497.14 1192.7C1512.05 1208.04 1530.15 1220.07 1551.43 1228.8L1551.81 1227.87ZM1497.85 1192.01L1498.58 1191.31C1484.07 1176.18 1472.93 1158.62 1465.14 1138.64L1464.21 1139L1463.28 1139.37C1471.16 1159.59 1482.44 1177.37 1497.13 1192.7L1497.85 1192.01ZM1464.21 1139L1465.15 1138.64C1457.36 1118.45 1453.47 1096.99 1453.47 1074.26H1452.47H1451.47C1451.47 1097.23 1455.4 1118.93 1463.28 1139.36L1464.21 1139ZM1452.47 1074.26H1453.47V1061.56H1452.47H1451.47V1074.26H1452.47ZM1452.47 1061.56H1453.47C1453.47 1035.63 1457.16 1011.94 1464.52 990.475L1463.58 990.15L1462.63 989.826C1455.19 1011.53 1451.47 1035.44 1451.47 1061.56H1452.47ZM1463.58 990.15L1464.52 990.475C1471.89 969.004 1482.41 950.393 1496.07 934.629L1495.32 933.974L1494.56 933.319C1480.72 949.293 1470.07 968.133 1462.63 989.826L1463.58 990.15ZM1495.32 933.974L1496.07 934.634C1509.93 918.88 1526.73 906.801 1546.49 898.395L1546.1 897.475L1545.71 896.554C1525.68 905.075 1508.63 917.329 1494.56 933.313L1495.32 933.974ZM1546.1 897.475L1546.5 898.391C1566.24 889.779 1588.53 885.462 1613.38 885.462V884.462V883.462C1588.3 883.462 1565.73 887.82 1545.7 896.558L1546.1 897.475ZM1613.38 884.462V885.462C1637.6 885.462 1659.05 889.464 1677.74 897.442L1678.13 896.522L1678.52 895.603C1659.54 887.5 1637.82 883.462 1613.38 883.462V884.462ZM1678.13 896.522L1677.74 897.442C1696.43 905.425 1712.07 916.762 1724.66 931.451L1725.42 930.8L1726.18 930.149C1713.38 915.215 1697.49 903.7 1678.52 895.603L1678.13 896.522ZM1725.42 930.8L1724.66 931.457C1737.47 946.154 1747.14 963.803 1753.66 984.422L1754.62 984.12L1755.57 983.819C1748.97 962.966 1739.18 945.068 1726.17 930.143L1725.42 930.8ZM1754.62 984.12L1753.66 984.425C1760.19 1004.84 1763.46 1027.58 1763.46 1052.67H1764.46H1765.46C1765.46 1027.41 1762.17 1004.45 1755.57 983.816L1754.62 984.12ZM1764.46 1052.67H1763.46V1090.76H1764.46H1765.46V1052.67H1764.46ZM1764.46 1090.76V1089.76H1491.51V1090.76V1091.76H1764.46V1090.76ZM1491.51 1090.76H1492.51V1029.82H1491.51H1490.51V1090.76H1491.51ZM1491.51 1029.82V1030.82H1674.64V1029.82V1028.82H1491.51V1029.82ZM1674.64 1029.82H1675.64V1022.84H1674.64H1673.64V1029.82H1674.64ZM1674.64 1022.84H1675.64C1675.64 1010.02 1673.29 998.553 1668.56 988.457L1667.65 988.881L1666.75 989.305C1671.33 999.098 1673.64 1010.27 1673.64 1022.84H1674.64ZM1667.65 988.881L1668.57 988.48C1664.05 978.149 1657.15 969.955 1647.89 963.922L1647.34 964.76L1646.8 965.598C1655.73 971.413 1662.37 979.3 1666.74 989.282L1667.65 988.881ZM1647.34 964.76L1647.89 963.922C1638.58 957.864 1626.74 954.873 1612.43 954.873V955.873V956.873C1626.47 956.873 1637.9 959.807 1646.8 965.598L1647.34 964.76ZM1612.43 955.873V954.873C1600.22 954.873 1589.66 957.552 1580.81 962.954L1581.33 963.808L1581.85 964.661C1590.34 959.484 1600.52 956.873 1612.43 956.873V955.873ZM1581.33 963.808L1580.81 962.954C1571.98 968.338 1564.77 975.87 1559.2 985.524L1560.06 986.024L1560.93 986.525C1566.35 977.136 1573.33 969.857 1581.85 964.661L1581.33 963.808ZM1560.06 986.024L1559.19 985.539C1553.84 995.163 1549.79 1006.47 1547.02 1019.46L1548 1019.67L1548.98 1019.88C1551.71 1007.05 1555.7 995.929 1560.94 986.51L1560.06 986.024ZM1548 1019.67L1547.02 1019.47C1544.47 1032.24 1543.19 1046.27 1543.19 1061.56H1544.19H1545.19C1545.19 1046.38 1546.46 1032.48 1548.98 1019.86L1548 1019.67ZM1544.19 1061.56H1543.19V1074.26H1544.19H1545.19V1061.56H1544.19ZM1544.19 1074.26H1543.19C1543.19 1088.1 1545.11 1100.9 1548.95 1112.65L1549.91 1112.34L1550.86 1112.03C1547.08 1100.51 1545.19 1087.92 1545.19 1074.26H1544.19ZM1549.91 1112.34L1548.96 1112.67C1553.02 1124.41 1558.68 1134.57 1565.96 1143.14L1566.73 1142.49L1567.49 1141.85C1560.38 1133.49 1554.83 1123.55 1550.85 1112.02L1549.91 1112.34ZM1566.73 1142.49L1565.97 1143.15C1573.48 1151.73 1582.48 1158.37 1592.98 1163.08L1593.39 1162.17L1593.8 1161.26C1583.56 1156.66 1574.79 1150.19 1567.48 1141.84L1566.73 1142.49ZM1593.39 1162.17L1592.98 1163.09C1603.71 1167.81 1615.8 1170.15 1629.25 1170.15V1169.15V1168.15C1616.04 1168.15 1604.22 1165.85 1593.79 1161.26L1593.39 1162.17ZM1629.25 1169.15V1170.15C1645.89 1170.15 1661.37 1166.95 1675.68 1160.55L1675.27 1159.63L1674.86 1158.72C1660.82 1165.01 1645.62 1168.15 1629.25 1168.15V1169.15ZM1675.27 1159.63L1675.69 1160.54C1690.23 1153.91 1702.73 1143.97 1713.19 1130.74L1712.41 1130.12L1711.62 1129.5C1701.35 1142.5 1689.09 1152.23 1674.86 1158.72L1675.27 1159.63ZM1712.41 1130.12L1711.67 1130.79L1756.1 1179.04L1756.84 1178.36L1757.57 1177.68L1713.14 1129.44L1712.41 1130.12ZM1756.84 1178.36L1756.02 1177.79C1748.9 1188.05 1739.14 1197.92 1726.72 1207.4L1727.32 1208.19L1727.93 1208.99C1740.48 1199.42 1750.39 1189.4 1757.66 1178.93L1756.84 1178.36ZM1727.32 1208.19L1726.71 1207.4C1714.54 1216.85 1699.82 1224.63 1682.56 1230.74L1682.89 1231.68L1683.22 1232.62C1700.66 1226.46 1715.56 1218.58 1727.94 1208.98L1727.32 1208.19ZM1682.89 1231.68L1682.57 1230.73C1665.34 1236.61 1645.67 1239.57 1623.54 1239.57V1240.57V1241.57C1645.84 1241.57 1665.74 1238.59 1683.21 1232.63L1682.89 1231.68ZM1780.2 989.833L1781.15 990.155L1781.15 990.152L1780.2 989.833ZM1811.62 934.291L1810.87 933.631L1811.62 934.291ZM1862.4 897.792L1862.8 898.71L1862.8 898.707L1862.4 897.792ZM2001.1 897.792L2000.7 898.708L2000.7 898.712L2001.1 897.792ZM2052.2 934.291L2051.44 934.951L2051.45 934.957L2052.2 934.291ZM2083.93 989.833L2082.99 990.152L2082.99 990.155L2083.93 989.833ZM2083.93 1135.51L2084.88 1135.83L2084.88 1135.83L2083.93 1135.51ZM2052.2 1191.05L2051.44 1190.39L2051.44 1190.39L2052.2 1191.05ZM2001.41 1227.55L2001.02 1226.63L2001.41 1227.55ZM1862.72 1227.55L1862.32 1228.47L1862.33 1228.47L1862.72 1227.55ZM1811.62 1191.05L1810.86 1191.71L1810.87 1191.71L1810.87 1191.72L1811.62 1191.05ZM1780.2 1135.51L1779.25 1135.83L1779.25 1135.83L1780.2 1135.51ZM1876.68 1139.32L1875.82 1139.82L1875.82 1139.83L1875.83 1139.84L1876.68 1139.32ZM1986.81 1139.32L1987.68 1139.83L1987.68 1139.82L1986.81 1139.32ZM1998.88 1106.31L1997.9 1106.1L1997.9 1106.11L1997.9 1106.11L1998.88 1106.31ZM1998.88 1019.98L1997.9 1020.18L1997.9 1020.19L1997.9 1020.2L1998.88 1019.98ZM1986.5 986.977L1985.63 987.469L1985.63 987.48L1985.64 987.491L1986.5 986.977ZM1898.58 964.125L1898.06 963.269L1898.06 963.275L1898.58 964.125ZM1876.68 986.977L1875.82 986.47L1875.82 986.476L1876.68 986.977ZM1864.62 1019.98L1865.6 1020.19L1865.6 1020.18L1864.62 1019.98ZM1769.41 1066H1770.41V1059.34H1769.41H1768.41V1066H1769.41ZM1769.41 1059.34H1770.41C1770.41 1034.26 1773.99 1011.2 1781.15 990.155L1780.2 989.833L1779.25 989.511C1772.02 1010.79 1768.41 1034.07 1768.41 1059.34H1769.41ZM1780.2 989.833L1781.15 990.152C1788.3 968.897 1798.71 950.501 1812.37 934.951L1811.62 934.291L1810.87 933.631C1797.02 949.396 1786.48 968.028 1779.25 989.514L1780.2 989.833ZM1811.62 934.291L1812.37 934.951C1826.02 919.41 1842.82 907.33 1862.8 898.71L1862.4 897.792L1862 896.874C1841.77 905.605 1824.72 917.857 1810.87 933.631L1811.62 934.291ZM1862.4 897.792L1862.8 898.707C1882.76 889.886 1905.68 885.462 1931.59 885.462V884.462V883.462C1905.45 883.462 1882.25 887.925 1862 896.877L1862.4 897.792ZM1931.59 884.462V885.462C1957.5 885.462 1980.53 889.885 2000.7 898.708L2001.1 897.792L2001.5 896.876C1981.04 887.925 1957.73 883.462 1931.59 883.462V884.462ZM2001.1 897.792L2000.7 898.712C2020.89 907.332 2037.8 919.412 2051.44 934.951L2052.2 934.291L2052.95 933.631C2039.09 917.855 2021.93 905.603 2001.49 896.872L2001.1 897.792ZM2052.2 934.291L2051.45 934.957C2065.32 950.506 2075.83 968.9 2082.99 990.152L2083.93 989.833L2084.88 989.514C2077.65 968.025 2067 949.391 2052.94 933.625L2052.2 934.291ZM2083.93 989.833L2082.99 990.155C2090.14 1011.2 2093.72 1034.26 2093.72 1059.34H2094.72H2095.72C2095.72 1034.07 2092.11 1010.79 2084.88 989.511L2083.93 989.833ZM2094.72 1059.34H2093.72V1066H2094.72H2095.72V1059.34H2094.72ZM2094.72 1066H2093.72C2093.72 1090.88 2090.14 1113.94 2082.99 1135.19L2083.93 1135.51L2084.88 1135.83C2092.11 1114.35 2095.72 1091.07 2095.72 1066H2094.72ZM2083.93 1135.51L2082.99 1135.19C2075.83 1156.23 2065.32 1174.63 2051.44 1190.39L2052.2 1191.05L2052.95 1191.71C2067 1175.74 2077.65 1157.11 2084.88 1135.83L2083.93 1135.51ZM2052.2 1191.05L2051.44 1190.39C2037.79 1205.93 2020.99 1218.02 2001.02 1226.63L2001.41 1227.55L2001.81 1228.47C2022.04 1219.74 2039.09 1207.49 2052.95 1191.71L2052.2 1191.05ZM2001.41 1227.55L2001.02 1226.63C1981.06 1235.25 1958.14 1239.57 1932.22 1239.57V1240.57V1241.57C1958.36 1241.57 1981.56 1237.21 2001.81 1228.47L2001.41 1227.55ZM1932.22 1240.57V1239.57C1906.31 1239.57 1883.28 1235.25 1863.11 1226.63L1862.72 1227.55L1862.33 1228.47C1882.78 1237.21 1906.09 1241.57 1932.22 1241.57V1240.57ZM1862.72 1227.55L1863.11 1226.63C1843.14 1218.01 1826.23 1205.93 1812.37 1190.39L1811.62 1191.05L1810.87 1191.72C1824.94 1207.49 1842.09 1219.74 1862.32 1228.47L1862.72 1227.55ZM1811.62 1191.05L1812.37 1190.4C1798.71 1174.63 1788.3 1156.23 1781.15 1135.19L1780.2 1135.51L1779.25 1135.83C1786.48 1157.11 1797.02 1175.74 1810.86 1191.71L1811.62 1191.05ZM1780.2 1135.51L1781.15 1135.19C1773.99 1113.94 1770.41 1090.88 1770.41 1066H1769.41H1768.41C1768.41 1091.07 1772.02 1114.35 1779.25 1135.83L1780.2 1135.51ZM1860.81 1059.34H1859.81V1066H1860.81H1861.81V1059.34H1860.81ZM1860.81 1066H1859.81C1859.81 1080.45 1861.09 1093.95 1863.64 1106.51L1864.62 1106.31L1865.6 1106.11C1863.08 1093.7 1861.81 1080.33 1861.81 1066H1860.81ZM1864.62 1106.31L1863.64 1106.51C1866.2 1119.08 1870.25 1130.19 1875.82 1139.82L1876.68 1139.32L1877.55 1138.82C1872.11 1129.41 1868.12 1118.51 1865.6 1106.11L1864.62 1106.31ZM1876.68 1139.32L1875.83 1139.84C1881.63 1149.29 1889.15 1156.71 1898.4 1162.08L1898.9 1161.22L1899.4 1160.36C1890.45 1155.15 1883.16 1147.97 1877.53 1138.8L1876.68 1139.32ZM1898.9 1161.22L1898.4 1162.08C1907.68 1167.48 1918.97 1170.15 1932.22 1170.15V1169.15V1168.15C1919.24 1168.15 1908.31 1165.54 1899.4 1160.36L1898.9 1161.22ZM1932.22 1169.15V1170.15C1945.06 1170.15 1956.14 1167.48 1965.42 1162.08L1964.92 1161.22L1964.41 1160.36C1955.5 1165.54 1944.78 1168.15 1932.22 1168.15V1169.15ZM1964.92 1161.22L1965.42 1162.08C1974.67 1156.71 1982.09 1149.28 1987.68 1139.83L1986.81 1139.32L1985.95 1138.81C1980.54 1147.98 1973.36 1155.15 1964.41 1160.36L1964.92 1161.22ZM1986.81 1139.32L1987.68 1139.82C1993.24 1130.19 1997.3 1119.08 1999.85 1106.51L1998.88 1106.31L1997.9 1106.11C1995.37 1118.51 1991.39 1129.41 1985.95 1138.82L1986.81 1139.32ZM1998.88 1106.31L1999.85 1106.53C2002.62 1093.97 2004 1080.46 2004 1066H2003H2002C2002 1080.33 2000.63 1093.69 1997.9 1106.1L1998.88 1106.31ZM2003 1066H2004V1059.34H2003H2002V1066H2003ZM2003 1059.34H2004C2004 1045.31 2002.62 1032.12 1999.85 1019.77L1998.88 1019.98L1997.9 1020.2C2000.63 1032.4 2002 1045.44 2002 1059.34H2003ZM1998.88 1019.98L1999.85 1019.79C1997.3 1007.21 1993.13 996.094 1987.35 986.462L1986.5 986.977L1985.64 987.491C1991.29 996.902 1995.38 1007.8 1997.9 1020.18L1998.88 1019.98ZM1986.5 986.977L1987.37 986.485C1981.79 976.61 1974.37 968.864 1965.12 963.269L1964.6 964.125L1964.08 964.981C1973.02 970.389 1980.21 977.877 1985.63 987.469L1986.5 986.977ZM1964.6 964.125L1965.12 963.269C1955.83 957.655 1944.64 954.873 1931.59 954.873V955.873V956.873C1944.35 956.873 1955.17 959.592 1964.08 964.981L1964.6 964.125ZM1931.59 955.873V954.873C1918.54 954.873 1907.35 957.655 1898.06 963.269L1898.58 964.125L1899.1 964.981C1908.01 959.592 1918.83 956.873 1931.59 956.873V955.873ZM1898.58 964.125L1898.06 963.275C1889.02 968.868 1881.61 976.608 1875.82 986.47L1876.68 986.977L1877.55 987.483C1883.18 977.879 1890.37 970.384 1899.11 964.975L1898.58 964.125ZM1876.68 986.977L1875.82 986.476C1870.25 996.105 1866.2 1007.21 1863.64 1019.79L1864.62 1019.98L1865.6 1020.18C1868.12 1007.79 1872.11 996.891 1877.55 987.477L1876.68 986.977ZM1864.62 1019.98L1863.64 1019.78C1861.09 1032.13 1859.81 1045.31 1859.81 1059.34H1860.81H1861.81C1861.81 1045.44 1863.08 1032.39 1865.6 1020.19L1864.62 1019.98Z" fill="#8BDFD7" mask="url(#path-3-outside-1_82_210)"/>
</g>
<g opacity="0.12">
<path d="M1851.61 538.808C1870.94 504.062 1914.77 491.564 1949.52 510.892V510.892L1857.42 676.463C1842 704.167 1807.05 714.132 1779.35 698.721L1766.6 691.628L1851.61 538.808Z" fill="url(#paint3_linear_82_210)"/>
<path d="M1851.61 538.808C1870.94 504.062 1914.77 491.564 1949.52 510.892V510.892L1857.42 676.463C1842 704.167 1807.05 714.132 1779.35 698.721L1766.6 691.628L1851.61 538.808Z" fill="url(#paint4_linear_82_210)" fill-opacity="0.2"/>
<path d="M1851.61 538.808C1870.94 504.062 1914.77 491.564 1949.52 510.892V510.892L1857.42 676.463C1842 704.167 1807.05 714.132 1779.35 698.721L1766.6 691.628L1851.61 538.808Z" fill="black" fill-opacity="0.2"/>
<path d="M1961.52 483.844C1980.85 449.098 2024.69 436.6 2059.43 455.928V455.928L1967.33 621.499C1951.92 649.203 1916.97 659.168 1889.26 643.757L1876.51 636.664L1961.52 483.844Z" fill="url(#paint5_linear_82_210)"/>
<path d="M1961.52 483.844C1980.85 449.098 2024.69 436.6 2059.43 455.928V455.928L1967.33 621.499C1951.92 649.203 1916.97 659.168 1889.26 643.757L1876.51 636.664L1961.52 483.844Z" fill="url(#paint6_linear_82_210)" fill-opacity="0.2"/>
<path d="M1961.52 483.844C1980.85 449.098 2024.69 436.6 2059.43 455.928V455.928L1967.33 621.499C1951.92 649.203 1916.97 659.168 1889.26 643.757L1876.51 636.664L1961.52 483.844Z" fill="black" fill-opacity="0.2"/>
<path d="M2059.57 439.498C2078.9 404.753 2122.74 392.255 2157.48 411.583V411.583L2065.38 577.154C2049.97 604.857 2015.02 614.822 1987.31 599.411L1974.56 592.318L2059.57 439.498Z" fill="url(#paint7_linear_82_210)"/>
<path d="M2059.57 439.498C2078.9 404.753 2122.74 392.255 2157.48 411.583V411.583L2065.38 577.154C2049.97 604.857 2015.02 614.822 1987.31 599.411L1974.56 592.318L2059.57 439.498Z" fill="url(#paint8_linear_82_210)" fill-opacity="0.2"/>
<path d="M2059.57 439.498C2078.9 404.753 2122.74 392.255 2157.48 411.583V411.583L2065.38 577.154C2049.97 604.857 2015.02 614.822 1987.31 599.411L1974.56 592.318L2059.57 439.498Z" fill="black" fill-opacity="0.2"/>
</g>
<g opacity="0.12">
<path d="M1056.33 1134.73C1092.08 1152.14 1106.94 1195.23 1089.53 1230.97V1230.97L919.197 1148C890.697 1134.12 878.847 1099.76 892.73 1071.26L899.12 1058.15L1056.33 1134.73Z" fill="url(#paint9_linear_82_210)"/>
<path d="M1056.33 1134.73C1092.08 1152.14 1106.94 1195.23 1089.53 1230.97V1230.97L919.197 1148C890.697 1134.12 878.847 1099.76 892.73 1071.26L899.12 1058.15L1056.33 1134.73Z" fill="url(#paint10_linear_82_210)" fill-opacity="0.2"/>
<path d="M1056.33 1134.73C1092.08 1152.14 1106.94 1195.23 1089.53 1230.97V1230.97L919.197 1148C890.697 1134.12 878.847 1099.76 892.73 1071.26L899.12 1058.15L1056.33 1134.73Z" fill="black" fill-opacity="0.2"/>
<path d="M1117.19 1241.49C1152.93 1258.9 1167.8 1301.99 1150.38 1337.74V1337.74L980.052 1254.77C951.553 1240.89 939.703 1206.53 953.585 1178.03L959.975 1164.91L1117.19 1241.49Z" fill="url(#paint11_linear_82_210)"/>
<path d="M1117.19 1241.49C1152.93 1258.9 1167.8 1301.99 1150.38 1337.74V1337.74L980.052 1254.77C951.553 1240.89 939.703 1206.53 953.585 1178.03L959.975 1164.91L1117.19 1241.49Z" fill="url(#paint12_linear_82_210)" fill-opacity="0.2"/>
<path d="M1117.19 1241.49C1152.93 1258.9 1167.8 1301.99 1150.38 1337.74V1337.74L980.052 1254.77C951.553 1240.89 939.703 1206.53 953.585 1178.03L959.975 1164.91L1117.19 1241.49Z" fill="black" fill-opacity="0.2"/>
</g>
<g opacity="0.12">
<path d="M1443.42 -89.7215C1479.16 -72.3101 1494.02 -29.2187 1476.61 6.52578V6.52578L1306.28 -76.4443C1277.78 -90.3268 1265.93 -124.684 1279.81 -153.184L1286.2 -166.302L1443.42 -89.7215Z" fill="url(#paint13_linear_82_210)"/>
<path d="M1443.42 -89.7215C1479.16 -72.3101 1494.02 -29.2187 1476.61 6.52578V6.52578L1306.28 -76.4443C1277.78 -90.3268 1265.93 -124.684 1279.81 -153.184L1286.2 -166.302L1443.42 -89.7215Z" fill="url(#paint14_linear_82_210)" fill-opacity="0.2"/>
<path d="M1443.42 -89.7215C1479.16 -72.3101 1494.02 -29.2187 1476.61 6.52578V6.52578L1306.28 -76.4443C1277.78 -90.3268 1265.93 -124.684 1279.81 -153.184L1286.2 -166.302L1443.42 -89.7215Z" fill="black" fill-opacity="0.2"/>
<path d="M1504.27 17.0421C1540.02 34.4536 1554.88 77.545 1537.47 113.289V113.289L1367.14 30.3194C1338.64 16.4369 1326.79 -17.9208 1340.67 -46.4206L1347.06 -59.5382L1504.27 17.0421Z" fill="url(#paint15_linear_82_210)"/>
<path d="M1504.27 17.0421C1540.02 34.4536 1554.88 77.545 1537.47 113.289V113.289L1367.14 30.3194C1338.64 16.4369 1326.79 -17.9208 1340.67 -46.4206L1347.06 -59.5382L1504.27 17.0421Z" fill="url(#paint16_linear_82_210)" fill-opacity="0.2"/>
<path d="M1504.27 17.0421C1540.02 34.4536 1554.88 77.545 1537.47 113.289V113.289L1367.14 30.3194C1338.64 16.4369 1326.79 -17.9208 1340.67 -46.4206L1347.06 -59.5382L1504.27 17.0421Z" fill="black" fill-opacity="0.2"/>
<path d="M1553.88 112.536C1589.63 129.948 1604.49 173.039 1587.08 208.784V208.784L1416.75 125.814C1388.25 111.931 1376.4 77.5734 1390.28 49.0736L1396.67 35.9559L1553.88 112.536Z" fill="url(#paint17_linear_82_210)"/>
<path d="M1553.88 112.536C1589.63 129.948 1604.49 173.039 1587.08 208.784V208.784L1416.75 125.814C1388.25 111.931 1376.4 77.5734 1390.28 49.0736L1396.67 35.9559L1553.88 112.536Z" fill="url(#paint18_linear_82_210)" fill-opacity="0.2"/>
<path d="M1553.88 112.536C1589.63 129.948 1604.49 173.039 1587.08 208.784V208.784L1416.75 125.814C1388.25 111.931 1376.4 77.5734 1390.28 49.0736L1396.67 35.9559L1553.88 112.536Z" fill="black" fill-opacity="0.2"/>
</g>
<path d="M165.782 173.312C170.275 149.143 193.281 133.235 217.167 137.782L202.897 214.534C198.404 238.703 175.398 254.611 151.512 250.064L165.782 173.312Z" fill="url(#paint19_linear_82_210)"/>
<path d="M165.782 173.312C170.275 149.143 193.281 133.235 217.167 137.782L202.897 214.534C198.404 238.703 175.398 254.611 151.512 250.064L165.782 173.312Z" fill="url(#paint20_linear_82_210)" fill-opacity="0.2"/>
<path d="M143.548 102.721C124.272 102.721 108.646 118.533 108.646 138.038L233.712 138.038C252.988 138.038 268.614 122.226 268.614 102.721L143.548 102.721Z" fill="url(#paint21_linear_82_210)"/>
<path d="M143.548 102.721C124.272 102.721 108.646 118.533 108.646 138.038L233.712 138.038C252.988 138.038 268.614 122.226 268.614 102.721L143.548 102.721Z" fill="url(#paint22_linear_82_210)" fill-opacity="0.2"/>
<path d="M165.831 593.891C165.831 598.771 169.789 602.729 174.669 602.729C179.549 602.729 183.507 598.771 183.507 593.891L183.507 576.216C183.507 571.335 179.549 567.378 174.669 567.378C169.789 567.378 165.831 571.335 165.831 576.216L165.831 593.891ZM150.809 621.637C154.3 625.051 159.892 624.99 163.311 621.503C164.994 619.782 165.831 617.55 165.831 615.319C165.831 613.028 164.942 610.736 163.177 609.002C156.113 602.094 152.376 592.406 152.911 582.312C153.395 573.5 157.05 565.297 163.204 559.216C166.682 555.781 166.708 550.188 163.282 546.719C159.851 543.245 154.254 543.21 150.784 546.641C141.497 555.811 135.987 568.135 135.262 581.353C134.432 596.556 140.12 611.164 150.809 621.637Z" fill="#1E1E1E"/>
<path d="M147.093 634.057C147.093 631.774 146.218 629.495 144.461 627.765C132.093 615.557 125.516 598.442 126.397 580.974C127.222 565.611 133.642 551.224 144.483 540.462C147.944 537.026 147.969 531.425 144.526 527.964C141.086 524.499 135.494 524.482 132.028 527.921C118.073 541.773 109.805 560.281 108.747 580.05C107.608 602.61 116.096 624.601 132.05 640.348C135.524 643.775 141.116 643.74 144.547 640.262C146.248 638.54 147.093 636.3 147.093 634.057Z" fill="#1E1E1E"/>
<path d="M239.456 558.362V608.128H232.962V558.362H239.456ZM255.452 558.362V563.763H217V558.362H255.452ZM276.288 601.805V582.767C276.288 581.308 275.992 580.044 275.399 578.973C274.83 577.879 273.964 577.036 272.802 576.443C271.64 575.851 270.204 575.555 268.495 575.555C266.9 575.555 265.499 575.828 264.291 576.375C263.106 576.922 262.172 577.64 261.488 578.528C260.827 579.417 260.497 580.374 260.497 581.399H254.174C254.174 580.078 254.516 578.768 255.199 577.469C255.883 576.17 256.863 574.996 258.139 573.948C259.438 572.877 260.987 572.034 262.787 571.419C264.61 570.781 266.638 570.462 268.871 570.462C271.56 570.462 273.93 570.918 275.98 571.829C278.054 572.741 279.672 574.119 280.834 575.965C282.019 577.788 282.611 580.078 282.611 582.835V600.062C282.611 601.292 282.714 602.602 282.919 603.992C283.147 605.382 283.477 606.578 283.91 607.581V608.128H277.313C276.994 607.399 276.744 606.43 276.562 605.223C276.379 603.992 276.288 602.853 276.288 601.805ZM277.382 585.706L277.45 590.149H271.059C269.258 590.149 267.652 590.298 266.239 590.594C264.826 590.867 263.642 591.289 262.685 591.858C261.728 592.428 260.998 593.146 260.497 594.012C259.996 594.855 259.745 595.846 259.745 596.985C259.745 598.147 260.007 599.207 260.531 600.164C261.055 601.121 261.841 601.884 262.89 602.454C263.961 603.001 265.271 603.274 266.82 603.274C268.757 603.274 270.466 602.864 271.947 602.044C273.428 601.224 274.602 600.221 275.468 599.036C276.356 597.851 276.835 596.701 276.903 595.584L279.604 598.626C279.444 599.583 279.011 600.643 278.305 601.805C277.598 602.967 276.653 604.083 275.468 605.154C274.306 606.202 272.916 607.08 271.298 607.786C269.703 608.47 267.903 608.812 265.897 608.812C263.391 608.812 261.192 608.322 259.301 607.342C257.432 606.362 255.974 605.052 254.926 603.411C253.9 601.748 253.388 599.891 253.388 597.84C253.388 595.857 253.775 594.114 254.55 592.61C255.325 591.084 256.441 589.819 257.899 588.816C259.358 587.791 261.112 587.016 263.163 586.492C265.214 585.968 267.504 585.706 270.033 585.706H277.382ZM295.381 578.255V622.347H289.023V571.146H294.834L295.381 578.255ZM320.298 589.329V590.047C320.298 592.736 319.979 595.231 319.341 597.532C318.703 599.811 317.769 601.793 316.538 603.479C315.33 605.166 313.838 606.476 312.061 607.41C310.283 608.344 308.244 608.812 305.942 608.812C303.595 608.812 301.522 608.424 299.722 607.649C297.922 606.875 296.395 605.747 295.142 604.266C293.888 602.785 292.886 601.007 292.134 598.934C291.405 596.86 290.903 594.524 290.63 591.927V588.099C290.903 585.364 291.416 582.915 292.168 580.75C292.92 578.585 293.911 576.74 295.142 575.213C296.395 573.663 297.91 572.49 299.688 571.692C301.465 570.872 303.516 570.462 305.84 570.462C308.164 570.462 310.226 570.918 312.026 571.829C313.826 572.718 315.342 573.994 316.572 575.657C317.803 577.321 318.726 579.314 319.341 581.639C319.979 583.94 320.298 586.504 320.298 589.329ZM313.94 590.047V589.329C313.94 587.483 313.747 585.752 313.359 584.134C312.972 582.493 312.368 581.058 311.548 579.827C310.75 578.574 309.725 577.594 308.472 576.888C307.218 576.159 305.726 575.794 303.994 575.794C302.399 575.794 301.009 576.067 299.824 576.614C298.662 577.161 297.671 577.902 296.851 578.836C296.03 579.747 295.358 580.796 294.834 581.98C294.333 583.143 293.957 584.35 293.706 585.604V594.456C294.162 596.051 294.8 597.555 295.62 598.968C296.44 600.358 297.534 601.486 298.901 602.352C300.269 603.195 301.989 603.616 304.062 603.616C305.771 603.616 307.241 603.263 308.472 602.557C309.725 601.827 310.75 600.836 311.548 599.583C312.368 598.33 312.972 596.894 313.359 595.276C313.747 593.636 313.94 591.893 313.94 590.047ZM372.189 579.759V585.125H345.256V579.759H372.189ZM346.281 558.362V608.128H339.685V558.362H346.281ZM377.932 558.362V608.128H371.369V558.362H377.932ZM400.545 608.812C397.97 608.812 395.634 608.379 393.538 607.513C391.465 606.624 389.676 605.382 388.172 603.787C386.691 602.192 385.551 600.301 384.754 598.113C383.956 595.926 383.558 593.533 383.558 590.936V589.5C383.558 586.492 384.002 583.815 384.891 581.468C385.779 579.098 386.987 577.093 388.514 575.452C390.04 573.812 391.772 572.57 393.709 571.727C395.646 570.883 397.651 570.462 399.725 570.462C402.368 570.462 404.646 570.918 406.561 571.829C408.497 572.741 410.081 574.017 411.312 575.657C412.542 577.275 413.453 579.189 414.046 581.399C414.638 583.587 414.935 585.979 414.935 588.577V591.414H387.317V586.253H408.611V585.774C408.52 584.134 408.178 582.539 407.586 580.989C407.016 579.44 406.105 578.164 404.852 577.161C403.598 576.159 401.889 575.657 399.725 575.657C398.289 575.657 396.967 575.965 395.76 576.58C394.552 577.173 393.515 578.061 392.649 579.246C391.784 580.431 391.111 581.878 390.633 583.587C390.154 585.296 389.915 587.267 389.915 589.5V590.936C389.915 592.69 390.154 594.342 390.633 595.892C391.134 597.418 391.852 598.763 392.786 599.925C393.743 601.087 394.894 601.998 396.238 602.659C397.605 603.32 399.155 603.65 400.887 603.65C403.12 603.65 405.011 603.195 406.561 602.283C408.11 601.372 409.466 600.153 410.628 598.626L414.456 601.668C413.659 602.876 412.645 604.026 411.414 605.12C410.184 606.214 408.668 607.103 406.868 607.786C405.091 608.47 402.983 608.812 400.545 608.812ZM425.141 576.956V608.128H418.817V571.146H424.97L425.141 576.956ZM436.693 570.94L436.659 576.819C436.135 576.705 435.634 576.637 435.155 576.614C434.7 576.569 434.175 576.546 433.583 576.546C432.125 576.546 430.837 576.774 429.721 577.229C428.604 577.685 427.659 578.323 426.884 579.144C426.109 579.964 425.494 580.944 425.038 582.083C424.605 583.2 424.32 584.43 424.184 585.774L422.406 586.8C422.406 584.567 422.623 582.47 423.056 580.511C423.511 578.551 424.206 576.819 425.141 575.315C426.075 573.789 427.26 572.604 428.695 571.761C430.154 570.895 431.885 570.462 433.891 570.462C434.346 570.462 434.87 570.519 435.463 570.633C436.055 570.724 436.465 570.826 436.693 570.94ZM453.701 608.812C451.126 608.812 448.791 608.379 446.694 607.513C444.621 606.624 442.832 605.382 441.328 603.787C439.847 602.192 438.708 600.301 437.91 598.113C437.113 595.926 436.714 593.533 436.714 590.936V589.5C436.714 586.492 437.158 583.815 438.047 581.468C438.936 579.098 440.143 577.093 441.67 575.452C443.197 573.812 444.928 572.57 446.865 571.727C448.802 570.883 450.807 570.462 452.881 570.462C455.524 570.462 457.803 570.918 459.717 571.829C461.654 572.741 463.237 574.017 464.468 575.657C465.698 577.275 466.61 579.189 467.202 581.399C467.795 583.587 468.091 585.979 468.091 588.577V591.414H440.474V586.253H461.768V585.774C461.676 584.134 461.335 582.539 460.742 580.989C460.173 579.44 459.261 578.164 458.008 577.161C456.755 576.159 455.046 575.657 452.881 575.657C451.445 575.657 450.124 575.965 448.916 576.58C447.708 577.173 446.672 578.061 445.806 579.246C444.94 580.431 444.268 581.878 443.789 583.587C443.311 585.296 443.071 587.267 443.071 589.5V590.936C443.071 592.69 443.311 594.342 443.789 595.892C444.29 597.418 445.008 598.763 445.942 599.925C446.899 601.087 448.05 601.998 449.395 602.659C450.762 603.32 452.311 603.65 454.043 603.65C456.276 603.65 458.167 603.195 459.717 602.283C461.266 601.372 462.622 600.153 463.784 598.626L467.612 601.668C466.815 602.876 465.801 604.026 464.57 605.12C463.34 606.214 461.825 607.103 460.024 607.786C458.247 608.47 456.139 608.812 453.701 608.812Z" fill="#1E1E1E"/>
</g>
<defs>
<linearGradient id="paint0_linear_82_210" x1="45.4481" y1="45.4482" x2="2018.39" y2="1142.51" gradientUnits="userSpaceOnUse">
<stop/>
<stop offset="0.5" stop-color="#101010"/>
<stop offset="1"/>
</linearGradient>
<linearGradient id="paint1_linear_82_210" x1="45.4481" y1="45.4482" x2="2018.39" y2="1142.51" gradientUnits="userSpaceOnUse">
<stop/>
<stop offset="0.5" stop-color="#101010"/>
<stop offset="1"/>
</linearGradient>
<linearGradient id="paint2_linear_82_210" x1="84.9465" y1="77.0469" x2="1962.11" y2="1202.75" gradientUnits="userSpaceOnUse">
<stop stop-color="#404040"/>
<stop offset="1" stop-color="#A6A6A6"/>
</linearGradient>
<linearGradient id="paint3_linear_82_210" x1="1880.02" y1="677.995" x2="1865.77" y2="504.859" gradientUnits="userSpaceOnUse">
<stop stop-color="#D7FFAF"/>
<stop offset="0.589182" stop-color="#8BDFD7"/>
<stop offset="1" stop-color="#3FBFFF"/>
</linearGradient>
<linearGradient id="paint4_linear_82_210" x1="1861.43" y1="630.164" x2="1947.32" y2="559.584" gradientUnits="userSpaceOnUse">
<stop stop-color="#9BFF37"/>
<stop offset="1" stop-color="#47C2FA"/>
</linearGradient>
<linearGradient id="paint5_linear_82_210" x1="1989.93" y1="623.031" x2="1975.68" y2="449.896" gradientUnits="userSpaceOnUse">
<stop stop-color="#D7FFAF"/>
<stop offset="0.589182" stop-color="#8BDFD7"/>
<stop offset="1" stop-color="#3FBFFF"/>
</linearGradient>
<linearGradient id="paint6_linear_82_210" x1="1971.35" y1="575.2" x2="2057.24" y2="504.62" gradientUnits="userSpaceOnUse">
<stop stop-color="#9BFF37"/>
<stop offset="1" stop-color="#47C2FA"/>
</linearGradient>
<linearGradient id="paint7_linear_82_210" x1="2087.98" y1="578.685" x2="2073.73" y2="405.55" gradientUnits="userSpaceOnUse">
<stop stop-color="#D7FFAF"/>
<stop offset="0.589182" stop-color="#8BDFD7"/>
<stop offset="1" stop-color="#3FBFFF"/>
</linearGradient>
<linearGradient id="paint8_linear_82_210" x1="2069.39" y1="530.855" x2="2155.29" y2="460.275" gradientUnits="userSpaceOnUse">
<stop stop-color="#9BFF37"/>
<stop offset="1" stop-color="#47C2FA"/>
</linearGradient>
<linearGradient id="paint9_linear_82_210" x1="918.896" y1="1170.66" x2="1091" y2="1147.02" gradientUnits="userSpaceOnUse">
<stop stop-color="#D7FFAF"/>
<stop offset="0.589182" stop-color="#8BDFD7"/>
<stop offset="1" stop-color="#3FBFFF"/>
</linearGradient>
<linearGradient id="paint10_linear_82_210" x1="965.646" y1="1149.5" x2="1040.79" y2="1231.43" gradientUnits="userSpaceOnUse">
<stop stop-color="#9BFF37"/>
<stop offset="1" stop-color="#47C2FA"/>
</linearGradient>
<linearGradient id="paint11_linear_82_210" x1="979.751" y1="1277.42" x2="1151.86" y2="1253.78" gradientUnits="userSpaceOnUse">
<stop stop-color="#D7FFAF"/>
<stop offset="0.589182" stop-color="#8BDFD7"/>
<stop offset="1" stop-color="#3FBFFF"/>
</linearGradient>
<linearGradient id="paint12_linear_82_210" x1="1026.5" y1="1256.26" x2="1101.64" y2="1338.19" gradientUnits="userSpaceOnUse">
<stop stop-color="#9BFF37"/>
<stop offset="1" stop-color="#47C2FA"/>
</linearGradient>
<linearGradient id="paint13_linear_82_210" x1="1305.98" y1="-53.791" x2="1478.08" y2="-77.432" gradientUnits="userSpaceOnUse">
<stop stop-color="#D7FFAF"/>
<stop offset="0.589182" stop-color="#8BDFD7"/>
<stop offset="1" stop-color="#3FBFFF"/>
</linearGradient>
<linearGradient id="paint14_linear_82_210" x1="1352.73" y1="-74.9502" x2="1427.87" y2="6.97999" gradientUnits="userSpaceOnUse">
<stop stop-color="#9BFF37"/>
<stop offset="1" stop-color="#47C2FA"/>
</linearGradient>
<linearGradient id="paint15_linear_82_210" x1="1366.84" y1="52.9727" x2="1538.94" y2="29.3316" gradientUnits="userSpaceOnUse">
<stop stop-color="#D7FFAF"/>
<stop offset="0.589182" stop-color="#8BDFD7"/>
<stop offset="1" stop-color="#3FBFFF"/>
</linearGradient>
<linearGradient id="paint16_linear_82_210" x1="1413.59" y1="31.8135" x2="1488.73" y2="113.744" gradientUnits="userSpaceOnUse">
<stop stop-color="#9BFF37"/>
<stop offset="1" stop-color="#47C2FA"/>
</linearGradient>
<linearGradient id="paint17_linear_82_210" x1="1416.44" y1="148.467" x2="1588.55" y2="124.826" gradientUnits="userSpaceOnUse">
<stop stop-color="#D7FFAF"/>
<stop offset="0.589182" stop-color="#8BDFD7"/>
<stop offset="1" stop-color="#3FBFFF"/>
</linearGradient>
<linearGradient id="paint18_linear_82_210" x1="1463.19" y1="127.308" x2="1538.34" y2="209.238" gradientUnits="userSpaceOnUse">
<stop stop-color="#9BFF37"/>
<stop offset="1" stop-color="#47C2FA"/>
</linearGradient>
<linearGradient id="paint19_linear_82_210" x1="178.826" y1="214.216" x2="180.868" y2="122.428" gradientUnits="userSpaceOnUse">
<stop stop-color="#D7FFAF"/>
<stop offset="0.460602" stop-color="#8BDFD7"/>
<stop offset="1" stop-color="#3FBFFF"/>
</linearGradient>
<linearGradient id="paint20_linear_82_210" x1="226.4" y1="190.952" x2="233.941" y2="120.061" gradientUnits="userSpaceOnUse">
<stop stop-color="#9BFF37"/>
<stop offset="1" stop-color="#47C2FA"/>
</linearGradient>
<linearGradient id="paint21_linear_82_210" x1="225.471" y1="132.642" x2="158.077" y2="85.0756" gradientUnits="userSpaceOnUse">
<stop stop-color="#D7FFAF"/>
<stop offset="0.440209" stop-color="#8BDFD7"/>
<stop offset="1" stop-color="#3FBFFF"/>
</linearGradient>
<linearGradient id="paint22_linear_82_210" x1="203.935" y1="128.718" x2="143.007" y2="160.425" gradientUnits="userSpaceOnUse">
<stop stop-color="#47C2FA"/>
<stop offset="1" stop-color="#9BFF37"/>
</linearGradient>
</defs>
</svg>
