<svg viewBox="0 0 1025 593" fill="none" xmlns="http://www.w3.org/2000/svg">
<rect x="1" y="1" width="1023" height="591" rx="51" fill="url(#paint0_linear_82_210)" stroke="#404040" stroke-width="2"/>
<mask id="mask0_82_210" style="mask-type:alpha" maskUnits="userSpaceOnUse" x="0" y="0">
<rect x="1" y="1" width="1023" height="591" rx="51" fill="url(#paint1_linear_82_210)" stroke="url(#paint2_linear_82_210)" stroke-width="2"/>
</mask>
<g mask="url(#mask0_82_210)">
<g opacity="0.12">
<mask id="path-3-outside-1_82_210" maskUnits="userSpaceOnUse" x="574" y="451" width="521" height="195" fill="black">
<rect fill="white" x="574" y="451" width="521" height="195"/>
<path d="M624.334 495.565V641H575.115V456.088H621.258L624.334 495.565ZM617.156 542.05H603.826C603.826 528.378 605.592 516.073 609.124 505.136C612.656 494.084 617.612 484.685 623.992 476.938C630.372 469.076 637.949 463.095 646.722 458.993C655.608 454.778 665.521 452.67 676.458 452.67C685.117 452.67 693.035 453.923 700.213 456.43C707.391 458.936 713.543 462.924 718.67 468.393C723.911 473.861 727.898 481.096 730.633 490.097C733.481 499.097 734.905 510.092 734.905 523.08V641H685.345V522.909C685.345 514.706 684.205 508.326 681.927 503.769C679.648 499.211 676.287 496.021 671.844 494.198C667.514 492.261 662.16 491.293 655.779 491.293C649.171 491.293 643.418 492.603 638.519 495.224C633.733 497.844 629.746 501.49 626.556 506.161C623.479 510.718 621.144 516.073 619.549 522.226C617.954 528.378 617.156 534.986 617.156 542.05ZM839.939 644.418C825.584 644.418 812.71 642.139 801.316 637.582C789.923 632.911 780.239 626.474 772.264 618.271C764.402 610.067 758.364 600.554 754.148 589.73C749.933 578.793 747.825 567.172 747.825 554.867V548.031C747.825 534.018 749.819 521.2 753.807 509.579C757.794 497.958 763.491 487.875 770.896 479.33C778.416 470.785 787.531 464.234 798.24 459.677C808.95 455.006 821.027 452.67 834.471 452.67C847.573 452.67 859.194 454.835 869.334 459.164C879.474 463.493 887.962 469.646 894.798 477.621C901.748 485.596 906.989 495.167 910.521 506.332C914.052 517.383 915.818 529.688 915.818 543.246V563.754H768.846V530.941H867.454V527.182C867.454 520.346 866.201 514.25 863.694 508.896C861.302 503.427 857.656 499.097 852.757 495.907C847.858 492.717 841.591 491.122 833.958 491.122C827.464 491.122 821.881 492.546 817.21 495.395C812.539 498.243 808.722 502.23 805.76 507.357C802.911 512.484 800.747 518.523 799.266 525.473C797.898 532.309 797.215 539.828 797.215 548.031V554.867C797.215 562.273 798.24 569.109 800.291 575.375C802.456 581.641 805.475 587.053 809.349 591.61C813.336 596.168 818.121 599.7 823.704 602.206C829.401 604.713 835.838 605.966 843.016 605.966C851.902 605.966 860.162 604.257 867.796 600.839C875.543 597.307 882.208 592.009 887.791 584.945L911.717 610.922C907.843 616.505 902.545 621.859 895.823 626.986C889.215 632.113 881.24 636.329 871.897 639.633C862.555 642.823 851.902 644.418 839.939 644.418ZM918.484 550.424V546.835C918.484 533.277 920.421 520.801 924.295 509.408C928.169 497.901 933.808 487.932 941.214 479.501C948.619 471.07 957.734 464.519 968.558 459.848C979.381 455.062 991.8 452.67 1005.81 452.67C1019.83 452.67 1032.3 455.062 1043.24 459.848C1054.18 464.519 1063.35 471.07 1070.75 479.501C1078.27 487.932 1083.97 497.901 1087.84 509.408C1091.72 520.801 1093.66 533.277 1093.66 546.835V550.424C1093.66 563.868 1091.72 576.343 1087.84 587.851C1083.97 599.244 1078.27 609.213 1070.75 617.758C1063.35 626.189 1054.23 632.74 1043.41 637.411C1032.59 642.082 1020.17 644.418 1006.16 644.418C992.142 644.418 979.666 642.082 968.729 637.411C957.905 632.74 948.733 626.189 941.214 617.758C933.808 609.213 928.169 599.244 924.295 587.851C920.421 576.343 918.484 563.868 918.484 550.424ZM967.703 546.835V550.424C967.703 558.171 968.387 565.406 969.754 572.128C971.121 578.85 973.286 584.774 976.248 589.901C979.324 594.914 983.312 598.845 988.211 601.693C993.11 604.542 999.091 605.966 1006.16 605.966C1012.99 605.966 1018.86 604.542 1023.76 601.693C1028.66 598.845 1032.59 594.914 1035.55 589.901C1038.51 584.774 1040.68 578.85 1042.04 572.128C1043.53 565.406 1044.27 558.171 1044.27 550.424V546.835C1044.27 539.315 1043.53 532.252 1042.04 525.644C1040.68 518.922 1038.46 512.997 1035.38 507.87C1032.42 502.629 1028.49 498.528 1023.59 495.565C1018.69 492.603 1012.76 491.122 1005.81 491.122C998.864 491.122 992.939 492.603 988.04 495.565C983.255 498.528 979.324 502.629 976.248 507.87C973.286 512.997 971.121 518.922 969.754 525.644C968.387 532.252 967.703 539.315 967.703 546.835Z"/>
</mask>
<path d="M624.334 495.565H625.334V495.527L625.331 495.488L624.334 495.565ZM624.334 641V642H625.334V641H624.334ZM575.115 641H574.115V642H575.115V641ZM575.115 456.088V455.088H574.115V456.088H575.115ZM621.258 456.088L622.255 456.01L622.183 455.088H621.258V456.088ZM617.156 542.05V543.05H618.156V542.05H617.156ZM603.826 542.05H602.826V543.05H603.826V542.05ZM609.124 505.136L610.076 505.443L610.077 505.44L609.124 505.136ZM623.992 476.938L624.764 477.573L624.769 477.568L623.992 476.938ZM646.722 458.993L647.145 459.899L647.15 459.897L646.722 458.993ZM718.67 468.393L717.94 469.077L717.948 469.084L718.67 468.393ZM730.633 490.097L729.676 490.387L729.679 490.398L730.633 490.097ZM734.905 641V642H735.905V641H734.905ZM685.345 641H684.345V642H685.345V641ZM671.844 494.198L671.435 495.111L671.45 495.117L671.464 495.123L671.844 494.198ZM638.519 495.224L638.047 494.342L638.038 494.347L638.519 495.224ZM626.556 506.161L625.73 505.597L625.727 505.602L626.556 506.161ZM624.334 495.565H623.334V641H624.334H625.334V495.565H624.334ZM624.334 641V640H575.115V641V642H624.334V641ZM575.115 641H576.115V456.088H575.115H574.115V641H575.115ZM575.115 456.088V457.088H621.258V456.088V455.088H575.115V456.088ZM621.258 456.088L620.261 456.166L623.337 495.643L624.334 495.565L625.331 495.488L622.255 456.01L621.258 456.088ZM617.156 542.05V541.05H603.826V542.05V543.05H617.156V542.05ZM603.826 542.05H604.826C604.826 528.463 606.581 516.265 610.076 505.443L609.124 505.136L608.172 504.828C604.603 515.882 602.826 528.293 602.826 542.05H603.826ZM609.124 505.136L610.077 505.44C613.576 494.491 618.476 485.209 624.764 477.573L623.992 476.938L623.22 476.302C616.748 484.161 611.736 493.678 608.171 504.831L609.124 505.136ZM623.992 476.938L624.769 477.568C631.058 469.818 638.516 463.934 647.145 459.899L646.722 458.993L646.298 458.087C637.382 462.256 629.687 468.334 623.216 476.307L623.992 476.938ZM646.722 458.993L647.15 459.897C655.889 455.752 665.652 453.67 676.458 453.67V452.67V451.67C665.389 451.67 655.328 453.804 646.293 458.09L646.722 458.993ZM676.458 452.67V453.67C685.02 453.67 692.825 454.909 699.883 457.374L700.213 456.43L700.543 455.486C693.245 452.937 685.214 451.67 676.458 451.67V452.67ZM700.213 456.43L699.883 457.374C706.911 459.828 712.925 463.727 717.94 469.077L718.67 468.393L719.399 467.709C714.161 462.12 707.87 458.045 700.543 455.486L700.213 456.43ZM718.67 468.393L717.948 469.084C723.057 474.416 726.976 481.501 729.676 490.387L730.633 490.097L731.59 489.806C728.82 480.691 724.765 473.307 719.392 467.701L718.67 468.393ZM730.633 490.097L729.679 490.398C732.488 499.273 733.905 510.159 733.905 523.08H734.905H735.905C735.905 510.025 734.475 498.922 731.586 489.795L730.633 490.097ZM734.905 523.08H733.905V641H734.905H735.905V523.08H734.905ZM734.905 641V640H685.345V641V642H734.905V641ZM685.345 641H686.345V522.909H685.345H684.345V641H685.345ZM685.345 522.909H686.345C686.345 514.635 685.199 508.077 682.821 503.321L681.927 503.769L681.032 504.216C683.212 508.575 684.345 514.777 684.345 522.909H685.345ZM681.927 503.769L682.821 503.321C680.442 498.562 676.905 495.194 672.223 493.273L671.844 494.198L671.464 495.123C675.669 496.849 678.855 499.86 681.032 504.216L681.927 503.769ZM671.844 494.198L672.252 493.285C667.758 491.275 662.254 490.293 655.779 490.293V491.293V492.293C662.065 492.293 667.271 493.248 671.435 495.111L671.844 494.198ZM655.779 491.293V490.293C649.038 490.293 643.116 491.63 638.047 494.342L638.519 495.224L638.99 496.105C643.719 493.576 649.305 492.293 655.779 492.293V491.293ZM638.519 495.224L638.038 494.347C633.11 497.046 629.005 500.801 625.73 505.597L626.556 506.161L627.381 506.725C630.486 502.179 634.357 498.643 638.999 496.101L638.519 495.224ZM626.556 506.161L625.727 505.602C622.578 510.267 620.2 515.729 618.581 521.975L619.549 522.226L620.517 522.477C622.088 516.417 624.381 511.17 627.385 506.721L626.556 506.161ZM619.549 522.226L618.581 521.975C616.962 528.217 616.156 534.911 616.156 542.05H617.156H618.156C618.156 535.061 618.945 528.538 620.517 522.477L619.549 522.226ZM801.316 637.582L800.937 638.507L800.945 638.511L801.316 637.582ZM772.264 618.271L771.542 618.962L771.547 618.968L772.264 618.271ZM754.148 589.73L753.215 590.09L753.217 590.093L754.148 589.73ZM753.807 509.579L752.861 509.255L753.807 509.579ZM770.896 479.33L770.146 478.669L770.141 478.675L770.896 479.33ZM798.24 459.677L798.632 460.597L798.64 460.593L798.24 459.677ZM894.798 477.621L894.039 478.272L894.044 478.278L894.798 477.621ZM910.521 506.332L909.567 506.634L909.568 506.636L910.521 506.332ZM915.818 563.754V564.754H916.818V563.754H915.818ZM768.846 563.754H767.846V564.754H768.846V563.754ZM768.846 530.941V529.941H767.846V530.941H768.846ZM867.454 530.941V531.941H868.454V530.941H867.454ZM863.694 508.896L862.778 509.296L862.783 509.308L862.789 509.319L863.694 508.896ZM805.76 507.357L804.894 506.857L804.89 506.864L804.886 506.872L805.76 507.357ZM799.266 525.473L798.288 525.264L798.285 525.277L799.266 525.473ZM800.291 575.375L799.341 575.686L799.343 575.694L799.346 575.702L800.291 575.375ZM809.349 591.61L808.587 592.258L808.591 592.263L808.596 592.269L809.349 591.61ZM823.704 602.206L823.294 603.118L823.301 603.121L823.704 602.206ZM867.796 600.839L868.205 601.752L868.211 601.749L867.796 600.839ZM887.791 584.945L888.527 584.268L887.733 583.406L887.006 584.325L887.791 584.945ZM911.717 610.922L912.538 611.492L912.995 610.834L912.452 610.244L911.717 610.922ZM895.823 626.986L895.217 626.191L895.21 626.196L895.823 626.986ZM871.897 639.633L872.221 640.579L872.231 640.576L871.897 639.633ZM839.939 644.418V643.418C825.69 643.418 812.945 641.156 801.688 636.654L801.316 637.582L800.945 638.511C812.475 643.122 825.478 645.418 839.939 645.418V644.418ZM801.316 637.582L801.696 636.657C790.42 632.034 780.853 625.671 772.981 617.573L772.264 618.271L771.547 618.968C779.625 627.276 789.427 633.788 800.937 638.507L801.316 637.582ZM772.264 618.271L772.986 617.579C765.217 609.472 759.249 600.072 755.08 589.368L754.148 589.73L753.217 590.093C757.479 601.037 763.587 610.662 771.542 618.962L772.264 618.271ZM754.148 589.73L755.082 589.371C750.912 578.554 748.825 567.055 748.825 554.867H747.825H746.825C746.825 567.289 748.953 579.032 753.215 590.09L754.148 589.73ZM747.825 554.867H748.825V548.031H747.825H746.825V554.867H747.825ZM747.825 548.031H748.825C748.825 534.113 750.805 521.407 754.753 509.904L753.807 509.579L752.861 509.255C748.833 520.994 746.825 533.922 746.825 548.031H747.825ZM753.807 509.579L754.753 509.904C758.702 498.393 764.338 488.425 771.652 479.985L770.896 479.33L770.141 478.675C762.644 487.325 756.886 497.523 752.861 509.255L753.807 509.579ZM770.896 479.33L771.647 479.991C779.066 471.561 788.057 465.097 798.632 460.597L798.24 459.677L797.849 458.757C787.005 463.371 777.766 470.01 770.146 478.669L770.896 479.33ZM798.24 459.677L798.64 460.593C809.206 455.985 821.144 453.67 834.471 453.67V452.67V451.67C820.91 451.67 808.694 454.026 797.84 458.76L798.24 459.677ZM834.471 452.67V453.67C847.463 453.67 858.947 455.816 868.941 460.084L869.334 459.164L869.727 458.244C859.441 453.853 847.683 451.67 834.471 451.67V452.67ZM869.334 459.164L868.941 460.084C878.947 464.356 887.308 470.419 894.039 478.272L894.798 477.621L895.557 476.97C888.616 468.873 880.001 462.631 869.727 458.244L869.334 459.164ZM894.798 477.621L894.044 478.278C900.894 486.139 906.072 495.585 909.567 506.634L910.521 506.332L911.474 506.03C907.905 494.748 902.601 485.053 895.552 476.964L894.798 477.621ZM910.521 506.332L909.568 506.636C913.064 517.575 914.818 529.774 914.818 543.246H915.818H916.818C916.818 529.602 915.041 517.192 911.473 506.028L910.521 506.332ZM915.818 543.246H914.818V563.754H915.818H916.818V543.246H915.818ZM915.818 563.754V562.754H768.846V563.754V564.754H915.818V563.754ZM768.846 563.754H769.846V530.941H768.846H767.846V563.754H768.846ZM768.846 530.941V531.941H867.454V530.941V529.941H768.846V530.941ZM867.454 530.941H868.454V527.182H867.454H866.454V530.941H867.454ZM867.454 527.182H868.454C868.454 520.222 867.178 513.978 864.6 508.472L863.694 508.896L862.789 509.319C865.224 514.522 866.454 520.469 866.454 527.182H867.454ZM863.694 508.896L864.61 508.495C862.141 502.851 858.369 498.368 853.302 495.069L852.757 495.907L852.211 496.745C856.943 499.827 860.462 504.002 862.778 509.296L863.694 508.896ZM852.757 495.907L853.302 495.069C848.198 491.746 841.727 490.122 833.958 490.122V491.122V492.122C841.456 492.122 847.517 493.689 852.211 496.745L852.757 495.907ZM833.958 491.122V490.122C827.315 490.122 821.545 491.58 816.689 494.541L817.21 495.395L817.731 496.248C822.218 493.512 827.613 492.122 833.958 492.122V491.122ZM817.21 495.395L816.689 494.541C811.864 497.483 807.933 501.598 804.894 506.857L805.76 507.357L806.626 507.858C809.511 502.863 813.214 499.002 817.731 496.248L817.21 495.395ZM805.76 507.357L804.886 506.872C801.98 512.102 799.785 518.237 798.288 525.264L799.266 525.473L800.244 525.681C801.708 518.808 803.843 512.867 806.634 507.843L805.76 507.357ZM799.266 525.473L798.285 525.277C796.903 532.187 796.215 539.773 796.215 548.031H797.215H798.215C798.215 539.883 798.894 532.43 800.246 525.669L799.266 525.473ZM797.215 548.031H796.215V554.867H797.215H798.215V548.031H797.215ZM797.215 554.867H796.215C796.215 562.366 797.253 569.308 799.341 575.686L800.291 575.375L801.241 575.064C799.227 568.91 798.215 562.18 798.215 554.867H797.215ZM800.291 575.375L799.346 575.702C801.547 582.073 804.624 587.596 808.587 592.258L809.349 591.61L810.111 590.963C806.326 586.51 803.365 581.21 801.236 575.048L800.291 575.375ZM809.349 591.61L808.596 592.269C812.679 596.936 817.582 600.554 823.294 603.118L823.704 602.206L824.114 601.294C818.661 598.846 813.993 595.4 810.101 590.952L809.349 591.61ZM823.704 602.206L823.301 603.121C829.143 605.692 835.72 606.966 843.016 606.966V605.966V604.966C835.955 604.966 829.659 603.733 824.107 601.291L823.704 602.206ZM843.016 605.966V606.966C852.034 606.966 860.435 605.231 868.205 601.752L867.796 600.839L867.387 599.926C859.89 603.283 851.77 604.966 843.016 604.966V605.966ZM867.796 600.839L868.211 601.749C876.111 598.147 882.9 592.746 888.576 585.565L887.791 584.945L887.006 584.325C881.516 591.272 874.976 596.467 867.381 599.929L867.796 600.839ZM887.791 584.945L887.055 585.623L910.981 611.599L911.717 610.922L912.452 610.244L888.527 584.268L887.791 584.945ZM911.717 610.922L910.895 610.352C907.094 615.831 901.875 621.113 895.217 626.191L895.823 626.986L896.43 627.781C903.215 622.606 908.593 617.178 912.538 611.492L911.717 610.922ZM895.823 626.986L895.21 626.196C888.701 631.247 880.824 635.415 871.564 638.69L871.897 639.633L872.231 640.576C881.656 637.242 889.73 632.98 896.436 627.776L895.823 626.986ZM871.897 639.633L871.574 638.686C862.355 641.834 851.815 643.418 839.939 643.418V644.418V645.418C851.99 645.418 862.755 643.811 872.221 640.579L871.897 639.633ZM924.295 509.408L925.242 509.73L925.243 509.727L924.295 509.408ZM968.558 459.848L968.954 460.766L968.962 460.762L968.558 459.848ZM1043.24 459.848L1042.84 460.764L1042.85 460.767L1043.24 459.848ZM1070.75 479.501L1070 480.161L1070.01 480.167L1070.75 479.501ZM1087.84 509.408L1086.9 509.727L1086.9 509.73L1087.84 509.408ZM1087.84 587.851L1088.79 588.172L1088.79 588.17L1087.84 587.851ZM1070.75 617.758L1070 617.097L1070 617.098L1070.75 617.758ZM968.729 637.411L968.332 638.329L968.336 638.331L968.729 637.411ZM941.214 617.758L940.458 618.413L940.463 618.418L940.468 618.423L941.214 617.758ZM924.295 587.851L923.347 588.17L923.348 588.172L924.295 587.851ZM976.248 589.901L975.382 590.402L975.389 590.413L975.396 590.424L976.248 589.901ZM1035.55 589.901L1036.41 590.41L1036.42 590.402L1035.55 589.901ZM1042.04 572.128L1041.07 571.913L1041.07 571.921L1041.06 571.929L1042.04 572.128ZM1042.04 525.644L1041.06 525.843L1041.07 525.853L1041.07 525.862L1042.04 525.644ZM1035.38 507.87L1034.51 508.362L1034.51 508.373L1034.52 508.385L1035.38 507.87ZM988.04 495.565L987.523 494.71L987.514 494.715L988.04 495.565ZM976.248 507.87L975.386 507.364L975.382 507.37L976.248 507.87ZM969.754 525.644L970.733 525.846L970.734 525.843L969.754 525.644ZM918.484 550.424H919.484V546.835H918.484H917.484V550.424H918.484ZM918.484 546.835H919.484C919.484 533.373 921.407 521.007 925.242 509.73L924.295 509.408L923.348 509.086C919.435 520.595 917.484 533.181 917.484 546.835H918.484ZM924.295 509.408L925.243 509.727C929.078 498.335 934.654 488.484 941.965 480.161L941.214 479.501L940.463 478.841C932.963 487.379 927.26 497.467 923.347 509.089L924.295 509.408ZM941.214 479.501L941.965 480.161C949.268 471.847 958.259 465.381 968.954 460.766L968.558 459.848L968.161 458.93C957.209 463.656 947.971 470.293 940.463 478.841L941.214 479.501ZM968.558 459.848L968.962 460.762C979.637 456.043 991.914 453.67 1005.81 453.67V452.67V451.67C991.686 451.67 979.125 454.082 968.153 458.933L968.558 459.848ZM1005.81 452.67V453.67C1019.71 453.67 1032.05 456.043 1042.84 460.764L1043.24 459.848L1043.64 458.932C1032.56 454.082 1019.94 451.67 1005.81 451.67V452.67ZM1043.24 459.848L1042.85 460.767C1053.66 465.383 1062.7 471.849 1070 480.161L1070.75 479.501L1071.51 478.841C1064 470.291 1054.7 463.654 1043.63 458.928L1043.24 459.848ZM1070.75 479.501L1070.01 480.167C1077.43 488.489 1083.06 498.338 1086.9 509.727L1087.84 509.408L1088.79 509.089C1084.88 497.464 1079.12 487.374 1071.5 478.835L1070.75 479.501ZM1087.84 509.408L1086.9 509.73C1090.73 521.007 1092.66 533.373 1092.66 546.835H1093.66H1094.66C1094.66 533.181 1092.7 520.595 1088.79 509.086L1087.84 509.408ZM1093.66 546.835H1092.66V550.424H1093.66H1094.66V546.835H1093.66ZM1093.66 550.424H1092.66C1092.66 563.771 1090.73 576.138 1086.9 587.532L1087.84 587.851L1088.79 588.17C1092.7 576.549 1094.66 563.965 1094.66 550.424H1093.66ZM1087.84 587.851L1086.9 587.529C1083.06 598.804 1077.43 608.657 1070 617.097L1070.75 617.758L1071.51 618.418C1079.12 609.769 1084.88 599.683 1088.79 588.172L1087.84 587.851ZM1070.75 617.758L1070 617.098C1062.7 625.412 1053.71 631.877 1043.01 636.493L1043.41 637.411L1043.81 638.329C1054.76 633.602 1064 626.966 1071.51 618.418L1070.75 617.758ZM1043.41 637.411L1043.01 636.493C1032.34 641.101 1020.06 643.418 1006.16 643.418V644.418V645.418C1020.28 645.418 1032.84 643.064 1043.81 638.329L1043.41 637.411ZM1006.16 644.418V643.418C992.253 643.418 979.915 641.101 969.121 636.491L968.729 637.411L968.336 638.331C979.418 643.064 992.03 645.418 1006.16 645.418V644.418ZM968.729 637.411L969.125 636.493C958.429 631.877 949.379 625.41 941.96 617.092L941.214 617.758L940.468 618.423C948.088 626.968 957.381 633.603 968.332 638.329L968.729 637.411ZM941.214 617.758L941.97 617.103C934.654 608.662 929.077 598.808 925.242 587.529L924.295 587.851L923.348 588.172C927.261 599.68 932.963 609.764 940.458 618.413L941.214 617.758ZM924.295 587.851L925.243 587.532C921.407 576.138 919.484 563.771 919.484 550.424H918.484H917.484C917.484 563.965 919.435 576.549 923.347 588.17L924.295 587.851ZM967.703 546.835H966.703V550.424H967.703H968.703V546.835H967.703ZM967.703 550.424H966.703C966.703 558.23 967.392 565.532 968.774 572.327L969.754 572.128L970.734 571.929C969.382 565.28 968.703 558.113 968.703 550.424H967.703ZM969.754 572.128L968.774 572.327C970.159 579.139 972.358 585.168 975.382 590.402L976.248 589.901L977.114 589.401C974.214 584.381 972.083 578.561 970.734 571.929L969.754 572.128ZM976.248 589.901L975.396 590.424C978.555 595.573 982.661 599.623 987.708 602.558L988.211 601.693L988.714 600.829C983.963 598.067 980.093 594.256 977.1 589.378L976.248 589.901ZM988.211 601.693L987.708 602.558C992.793 605.514 998.958 606.966 1006.16 606.966V605.966V604.966C999.225 604.966 993.427 603.569 988.714 600.829L988.211 601.693ZM1006.16 605.966V606.966C1013.13 606.966 1019.18 605.512 1024.26 602.558L1023.76 601.693L1023.26 600.829C1018.54 603.572 1012.85 604.966 1006.16 604.966V605.966ZM1023.76 601.693L1024.26 602.558C1029.31 599.621 1033.36 595.566 1036.41 590.41L1035.55 589.901L1034.69 589.393C1031.81 594.263 1028 598.069 1023.26 600.829L1023.76 601.693ZM1035.55 589.901L1036.42 590.402C1039.44 585.168 1041.64 579.139 1043.02 572.327L1042.04 572.128L1041.06 571.929C1039.71 578.561 1037.58 584.381 1034.68 589.401L1035.55 589.901ZM1042.04 572.128L1043.02 572.343C1044.52 565.542 1045.27 558.235 1045.27 550.424H1044.27H1043.27C1043.27 558.108 1042.53 565.27 1041.07 571.913L1042.04 572.128ZM1044.27 550.424H1045.27V546.835H1044.27H1043.27V550.424H1044.27ZM1044.27 546.835H1045.27C1045.27 539.25 1044.52 532.112 1043.02 525.425L1042.04 525.644L1041.07 525.862C1042.53 532.391 1043.27 539.381 1043.27 546.835H1044.27ZM1042.04 525.644L1043.02 525.444C1041.64 518.627 1039.38 512.593 1036.24 507.356L1035.38 507.87L1034.52 508.385C1037.53 513.401 1039.72 519.216 1041.06 525.843L1042.04 525.644ZM1035.38 507.87L1036.25 507.378C1033.21 501.996 1029.16 497.765 1024.1 494.71L1023.59 495.565L1023.07 496.421C1027.81 499.29 1031.63 503.263 1034.51 508.362L1035.38 507.87ZM1023.59 495.565L1024.1 494.71C1019.02 491.635 1012.91 490.122 1005.81 490.122V491.122V492.122C1012.62 492.122 1018.36 493.572 1023.07 496.421L1023.59 495.565ZM1005.81 491.122V490.122C998.72 490.122 992.608 491.635 987.523 494.71L988.04 495.565L988.557 496.421C993.27 493.572 999.007 492.122 1005.81 492.122V491.122ZM988.04 495.565L987.514 494.715C982.579 497.77 978.537 501.994 975.386 507.364L976.248 507.87L977.11 508.376C980.111 503.264 983.93 499.286 988.566 496.416L988.04 495.565ZM976.248 507.87L975.382 507.37C972.358 512.604 970.159 518.633 968.774 525.444L969.754 525.644L970.734 525.843C972.083 519.21 974.214 513.39 977.114 508.37L976.248 507.87ZM969.754 525.644L968.775 525.441C967.392 532.123 966.703 539.255 966.703 546.835H967.703H968.703C968.703 539.376 969.381 532.381 970.733 525.846L969.754 525.644Z" fill="#8BDFD7" mask="url(#path-3-outside-1_82_210)"/>
</g>
<g opacity="0.07">
<path d="M938.551 273.813C948.338 256.219 970.534 249.891 988.128 259.678V259.678L945.082 337.058C935.296 354.651 913.099 360.98 895.506 351.193V351.193L938.551 273.813Z" fill="url(#paint3_linear_82_210)"/>
<path d="M938.551 273.813C948.338 256.219 970.534 249.891 988.128 259.678V259.678L945.082 337.058C935.296 354.651 913.099 360.98 895.506 351.193V351.193L938.551 273.813Z" fill="url(#paint4_linear_82_210)" fill-opacity="0.2"/>
<path d="M938.551 273.813C948.338 256.219 970.534 249.891 988.128 259.678V259.678L945.082 337.058C935.296 354.651 913.099 360.98 895.506 351.193V351.193L938.551 273.813Z" fill="black" fill-opacity="0.2"/>
<path d="M994.206 245.982C1003.99 228.388 1026.19 222.06 1043.78 231.847V231.847L1000.74 309.227C990.95 326.82 968.754 333.149 951.161 323.362V323.362L994.206 245.982Z" fill="url(#paint5_linear_82_210)"/>
<path d="M994.206 245.982C1003.99 228.388 1026.19 222.06 1043.78 231.847V231.847L1000.74 309.227C990.95 326.82 968.754 333.149 951.161 323.362V323.362L994.206 245.982Z" fill="url(#paint6_linear_82_210)" fill-opacity="0.2"/>
<path d="M994.206 245.982C1003.99 228.388 1026.19 222.06 1043.78 231.847V231.847L1000.74 309.227C990.95 326.82 968.754 333.149 951.161 323.362V323.362L994.206 245.982Z" fill="black" fill-opacity="0.2"/>
<path d="M1043.85 223.527C1053.64 205.934 1075.84 199.605 1093.43 209.392V209.392L1050.38 286.772C1040.6 304.366 1018.4 310.694 1000.81 300.907V300.907L1043.85 223.527Z" fill="url(#paint7_linear_82_210)"/>
<path d="M1043.85 223.527C1053.64 205.934 1075.84 199.605 1093.43 209.392V209.392L1050.38 286.772C1040.6 304.366 1018.4 310.694 1000.81 300.907V300.907L1043.85 223.527Z" fill="url(#paint8_linear_82_210)" fill-opacity="0.2"/>
<path d="M1043.85 223.527C1053.64 205.934 1075.84 199.605 1093.43 209.392V209.392L1050.38 286.772C1040.6 304.366 1018.4 310.694 1000.81 300.907V300.907L1043.85 223.527Z" fill="black" fill-opacity="0.2"/>
</g>
<g opacity="0.07">
<path d="M535.862 575.557C553.962 584.373 561.487 606.192 552.671 624.292V624.292L473.065 585.515C454.966 576.699 447.441 554.879 456.257 536.78V536.78L535.862 575.557Z" fill="url(#paint9_linear_82_210)"/>
<path d="M535.862 575.557C553.962 584.373 561.487 606.192 552.671 624.292V624.292L473.065 585.515C454.966 576.699 447.441 554.879 456.257 536.78V536.78L535.862 575.557Z" fill="url(#paint10_linear_82_210)" fill-opacity="0.2"/>
<path d="M535.862 575.557C553.962 584.373 561.487 606.192 552.671 624.292V624.292L473.065 585.515C454.966 576.699 447.441 554.879 456.257 536.78V536.78L535.862 575.557Z" fill="black" fill-opacity="0.2"/>
<path d="M566.677 629.617C584.776 638.433 592.301 660.252 583.485 678.352V678.352L503.88 639.575C485.78 630.759 478.255 608.94 487.071 590.84V590.84L566.677 629.617Z" fill="url(#paint11_linear_82_210)"/>
<path d="M566.677 629.617C584.776 638.433 592.301 660.252 583.485 678.352V678.352L503.88 639.575C485.78 630.759 478.255 608.94 487.071 590.84V590.84L566.677 629.617Z" fill="url(#paint12_linear_82_210)" fill-opacity="0.2"/>
<path d="M566.677 629.617C584.776 638.433 592.301 660.252 583.485 678.352V678.352L503.88 639.575C485.78 630.759 478.255 608.94 487.071 590.84V590.84L566.677 629.617Z" fill="black" fill-opacity="0.2"/>
</g>
<g opacity="0.07">
<path d="M731.862 -44.4433C749.962 -35.627 757.487 -13.8077 748.671 4.29157V4.29157L669.065 -34.4849C650.966 -43.3012 643.441 -65.1205 652.257 -83.2198V-83.2198L731.862 -44.4433Z" fill="url(#paint13_linear_82_210)"/>
<path d="M731.862 -44.4433C749.962 -35.627 757.487 -13.8077 748.671 4.29157V4.29157L669.065 -34.4849C650.966 -43.3012 643.441 -65.1205 652.257 -83.2198V-83.2198L731.862 -44.4433Z" fill="url(#paint14_linear_82_210)" fill-opacity="0.2"/>
<path d="M731.862 -44.4433C749.962 -35.627 757.487 -13.8077 748.671 4.29157V4.29157L669.065 -34.4849C650.966 -43.3012 643.441 -65.1205 652.257 -83.2198V-83.2198L731.862 -44.4433Z" fill="black" fill-opacity="0.2"/>
<path d="M762.677 9.61676C780.776 18.4331 788.301 40.2524 779.485 58.3516V58.3516L699.88 19.5752C681.78 10.7589 674.255 -11.0605 683.071 -29.1597V-29.1597L762.677 9.61676Z" fill="url(#paint15_linear_82_210)"/>
<path d="M762.677 9.61676C780.776 18.4331 788.301 40.2524 779.485 58.3516V58.3516L699.88 19.5752C681.78 10.7589 674.255 -11.0605 683.071 -29.1597V-29.1597L762.677 9.61676Z" fill="url(#paint16_linear_82_210)" fill-opacity="0.2"/>
<path d="M762.677 9.61676C780.776 18.4331 788.301 40.2524 779.485 58.3516V58.3516L699.88 19.5752C681.78 10.7589 674.255 -11.0605 683.071 -29.1597V-29.1597L762.677 9.61676Z" fill="black" fill-opacity="0.2"/>
<path d="M787.796 57.9698C805.895 66.7861 813.421 88.6054 804.604 106.705V106.705L724.999 67.9282C706.9 59.1119 699.375 37.2925 708.191 19.1933V19.1933L787.796 57.9698Z" fill="url(#paint17_linear_82_210)"/>
<path d="M787.796 57.9698C805.895 66.7861 813.421 88.6054 804.604 106.705V106.705L724.999 67.9282C706.9 59.1119 699.375 37.2925 708.191 19.1933V19.1933L787.796 57.9698Z" fill="url(#paint18_linear_82_210)" fill-opacity="0.2"/>
<path d="M787.796 57.9698C805.895 66.7861 813.421 88.6054 804.604 106.705V106.705L724.999 67.9282C706.9 59.1119 699.375 37.2925 708.191 19.1933V19.1933L787.796 57.9698Z" fill="black" fill-opacity="0.2"/>
</g>
<path d="M84.931 88.744C87.2063 76.5057 98.8553 68.4511 110.95 70.7534L103.725 109.617C101.449 121.855 89.8001 129.91 77.7056 127.607L84.931 88.744Z" fill="url(#paint19_linear_82_210)"/>
<path d="M84.931 88.744C87.2063 76.5057 98.8553 68.4511 110.95 70.7534L103.725 109.617C101.449 121.855 89.8001 129.91 77.7056 127.607L84.931 88.744Z" fill="url(#paint20_linear_82_210)" fill-opacity="0.2"/>
<path d="M73.6727 53C63.9123 53 56 61.0064 56 70.8828L119.327 70.8828C129.088 70.8828 137 62.8764 137 53L73.6727 53Z" fill="url(#paint21_linear_82_210)"/>
<path d="M73.6727 53C63.9123 53 56 61.0064 56 70.8828L119.327 70.8828C129.088 70.8828 137 62.8764 137 53L73.6727 53Z" fill="url(#paint22_linear_82_210)" fill-opacity="0.2"/>
<path d="M84.956 301.704C84.956 304.175 86.9599 306.179 89.431 306.179C91.9021 306.179 93.906 304.175 93.906 301.704L93.906 292.754C93.906 290.283 91.9021 288.279 89.431 288.279C86.9599 288.279 84.956 290.283 84.956 292.754L84.956 301.704ZM77.3494 315.753C79.117 317.482 81.9488 317.451 83.6797 315.685C84.5318 314.814 84.956 313.684 84.956 312.554C84.956 311.394 84.5058 310.234 83.6121 309.356C80.0353 305.857 78.1428 300.952 78.414 295.841C78.6587 291.379 80.5096 287.225 83.6256 284.146C85.3869 282.407 85.3999 279.575 83.665 277.818C81.9277 276.059 79.0937 276.042 77.3368 277.779C72.6345 282.422 69.8443 288.663 69.4773 295.355C69.0571 303.053 71.9368 310.45 77.3494 315.753Z" fill="#1E1E1E"/>
<path d="M75.4681 322.042C75.4681 320.886 75.0246 319.732 74.135 318.856C67.8726 312.675 64.5423 304.009 64.9885 295.164C65.406 287.385 68.6571 280.1 74.1462 274.65C75.8986 272.911 75.9116 270.074 74.1681 268.322C72.4264 266.567 69.5946 266.559 67.84 268.3C60.7735 275.314 56.5871 284.686 56.0514 294.696C55.4746 306.119 59.7724 317.254 67.8507 325.228C69.6098 326.963 72.4416 326.945 74.1788 325.184C75.0398 324.312 75.4681 323.178 75.4681 322.042Z" fill="#1E1E1E"/>
<path d="M122.428 283.406V309H119.088V283.406H122.428ZM130.654 283.406V286.184H110.879V283.406H130.654ZM141.37 305.748V295.957C141.37 295.207 141.218 294.557 140.913 294.006C140.62 293.443 140.175 293.01 139.577 292.705C138.979 292.4 138.241 292.248 137.362 292.248C136.542 292.248 135.821 292.389 135.2 292.67C134.591 292.951 134.11 293.32 133.759 293.777C133.419 294.234 133.249 294.727 133.249 295.254H129.997C129.997 294.574 130.173 293.9 130.524 293.232C130.876 292.564 131.38 291.961 132.036 291.422C132.704 290.871 133.501 290.438 134.427 290.121C135.364 289.793 136.407 289.629 137.555 289.629C138.938 289.629 140.157 289.863 141.212 290.332C142.278 290.801 143.11 291.51 143.708 292.459C144.317 293.396 144.622 294.574 144.622 295.992V304.852C144.622 305.484 144.675 306.158 144.78 306.873C144.897 307.588 145.067 308.203 145.29 308.719V309H141.897C141.733 308.625 141.604 308.127 141.511 307.506C141.417 306.873 141.37 306.287 141.37 305.748ZM141.932 297.469L141.968 299.754H138.68C137.755 299.754 136.929 299.83 136.202 299.982C135.475 300.123 134.866 300.34 134.374 300.633C133.882 300.926 133.507 301.295 133.249 301.74C132.991 302.174 132.862 302.684 132.862 303.27C132.862 303.867 132.997 304.412 133.266 304.904C133.536 305.396 133.94 305.789 134.479 306.082C135.03 306.363 135.704 306.504 136.501 306.504C137.497 306.504 138.376 306.293 139.138 305.871C139.899 305.449 140.503 304.934 140.948 304.324C141.405 303.715 141.651 303.123 141.686 302.549L143.075 304.113C142.993 304.605 142.77 305.15 142.407 305.748C142.044 306.346 141.557 306.92 140.948 307.471C140.35 308.01 139.636 308.461 138.804 308.824C137.983 309.176 137.057 309.352 136.026 309.352C134.737 309.352 133.606 309.1 132.634 308.596C131.673 308.092 130.923 307.418 130.384 306.574C129.856 305.719 129.593 304.764 129.593 303.709C129.593 302.689 129.792 301.793 130.19 301.02C130.589 300.234 131.163 299.584 131.913 299.068C132.663 298.541 133.565 298.143 134.62 297.873C135.675 297.604 136.852 297.469 138.153 297.469H141.932ZM151.189 293.637V316.312H147.92V289.98H150.908L151.189 293.637ZM164.004 299.332V299.701C164.004 301.084 163.839 302.367 163.511 303.551C163.183 304.723 162.703 305.742 162.07 306.609C161.449 307.477 160.681 308.15 159.767 308.631C158.853 309.111 157.804 309.352 156.621 309.352C155.414 309.352 154.347 309.152 153.421 308.754C152.496 308.355 151.711 307.775 151.066 307.014C150.421 306.252 149.906 305.338 149.519 304.271C149.144 303.205 148.886 302.004 148.746 300.668V298.699C148.886 297.293 149.15 296.033 149.537 294.92C149.923 293.807 150.433 292.857 151.066 292.072C151.711 291.275 152.49 290.672 153.404 290.262C154.318 289.84 155.373 289.629 156.568 289.629C157.763 289.629 158.824 289.863 159.75 290.332C160.675 290.789 161.455 291.445 162.088 292.301C162.72 293.156 163.195 294.182 163.511 295.377C163.839 296.561 164.004 297.879 164.004 299.332ZM160.734 299.701V299.332C160.734 298.383 160.634 297.492 160.435 296.66C160.236 295.816 159.925 295.078 159.504 294.445C159.093 293.801 158.566 293.297 157.921 292.934C157.277 292.559 156.509 292.371 155.619 292.371C154.798 292.371 154.084 292.512 153.474 292.793C152.877 293.074 152.367 293.455 151.945 293.936C151.523 294.404 151.177 294.943 150.908 295.553C150.65 296.15 150.457 296.771 150.328 297.416V301.969C150.562 302.789 150.89 303.562 151.312 304.289C151.734 305.004 152.296 305.584 153 306.029C153.703 306.463 154.588 306.68 155.654 306.68C156.533 306.68 157.289 306.498 157.921 306.135C158.566 305.76 159.093 305.25 159.504 304.605C159.925 303.961 160.236 303.223 160.435 302.391C160.634 301.547 160.734 300.65 160.734 299.701ZM190.691 294.41V297.17H176.839V294.41H190.691ZM177.366 283.406V309H173.974V283.406H177.366ZM193.644 283.406V309H190.269V283.406H193.644ZM205.273 309.352C203.949 309.352 202.748 309.129 201.67 308.684C200.604 308.227 199.684 307.588 198.91 306.768C198.148 305.947 197.562 304.975 197.152 303.85C196.742 302.725 196.537 301.494 196.537 300.158V299.42C196.537 297.873 196.766 296.496 197.223 295.289C197.68 294.07 198.301 293.039 199.086 292.195C199.871 291.352 200.762 290.713 201.758 290.279C202.754 289.846 203.785 289.629 204.852 289.629C206.211 289.629 207.383 289.863 208.367 290.332C209.363 290.801 210.178 291.457 210.811 292.301C211.443 293.133 211.912 294.117 212.217 295.254C212.521 296.379 212.674 297.609 212.674 298.945V300.404H198.471V297.75H209.422V297.504C209.375 296.66 209.199 295.84 208.895 295.043C208.602 294.246 208.133 293.59 207.488 293.074C206.844 292.559 205.965 292.301 204.852 292.301C204.113 292.301 203.434 292.459 202.812 292.775C202.191 293.08 201.658 293.537 201.213 294.146C200.768 294.756 200.422 295.5 200.176 296.379C199.93 297.258 199.807 298.271 199.807 299.42V300.158C199.807 301.061 199.93 301.91 200.176 302.707C200.434 303.492 200.803 304.184 201.283 304.781C201.775 305.379 202.367 305.848 203.059 306.188C203.762 306.527 204.559 306.697 205.449 306.697C206.598 306.697 207.57 306.463 208.367 305.994C209.164 305.525 209.861 304.898 210.459 304.113L212.428 305.678C212.018 306.299 211.496 306.891 210.863 307.453C210.23 308.016 209.451 308.473 208.525 308.824C207.611 309.176 206.527 309.352 205.273 309.352ZM217.923 292.969V309H214.671V289.98H217.835L217.923 292.969ZM223.864 289.875L223.846 292.898C223.577 292.84 223.319 292.805 223.073 292.793C222.839 292.77 222.569 292.758 222.264 292.758C221.514 292.758 220.852 292.875 220.278 293.109C219.704 293.344 219.218 293.672 218.819 294.094C218.421 294.516 218.104 295.02 217.87 295.605C217.647 296.18 217.501 296.812 217.43 297.504L216.516 298.031C216.516 296.883 216.628 295.805 216.85 294.797C217.085 293.789 217.442 292.898 217.923 292.125C218.403 291.34 219.012 290.73 219.751 290.297C220.501 289.852 221.391 289.629 222.423 289.629C222.657 289.629 222.927 289.658 223.231 289.717C223.536 289.764 223.747 289.816 223.864 289.875ZM232.611 309.352C231.287 309.352 230.086 309.129 229.007 308.684C227.941 308.227 227.021 307.588 226.248 306.768C225.486 305.947 224.9 304.975 224.49 303.85C224.08 302.725 223.875 301.494 223.875 300.158V299.42C223.875 297.873 224.103 296.496 224.56 295.289C225.017 294.07 225.638 293.039 226.423 292.195C227.209 291.352 228.099 290.713 229.095 290.279C230.091 289.846 231.123 289.629 232.189 289.629C233.548 289.629 234.72 289.863 235.705 290.332C236.701 290.801 237.515 291.457 238.148 292.301C238.781 293.133 239.25 294.117 239.554 295.254C239.859 296.379 240.011 297.609 240.011 298.945V300.404H225.808V297.75H236.759V297.504C236.713 296.66 236.537 295.84 236.232 295.043C235.939 294.246 235.47 293.59 234.826 293.074C234.181 292.559 233.302 292.301 232.189 292.301C231.451 292.301 230.771 292.459 230.15 292.775C229.529 293.08 228.996 293.537 228.55 294.146C228.105 294.756 227.759 295.5 227.513 296.379C227.267 297.258 227.144 298.271 227.144 299.42V300.158C227.144 301.061 227.267 301.91 227.513 302.707C227.771 303.492 228.14 304.184 228.621 304.781C229.113 305.379 229.705 305.848 230.396 306.188C231.099 306.527 231.896 306.697 232.787 306.697C233.935 306.697 234.908 306.463 235.705 305.994C236.502 305.525 237.199 304.898 237.796 304.113L239.765 305.678C239.355 306.299 238.834 306.891 238.201 307.453C237.568 308.016 236.789 308.473 235.863 308.824C234.949 309.176 233.865 309.352 232.611 309.352Z" fill="#1E1E1E"/>
</g>
<defs>
<linearGradient id="paint0_linear_82_210" x1="24" y1="24" x2="1023" y2="579.5" gradientUnits="userSpaceOnUse">
<stop/>
<stop offset="0.5" stop-color="#101010"/>
<stop offset="1"/>
</linearGradient>
<linearGradient id="paint1_linear_82_210" x1="24" y1="24" x2="1023" y2="579.5" gradientUnits="userSpaceOnUse">
<stop/>
<stop offset="0.5" stop-color="#101010"/>
<stop offset="1"/>
</linearGradient>
<linearGradient id="paint2_linear_82_210" x1="44" y1="40" x2="994.5" y2="610" gradientUnits="userSpaceOnUse">
<stop stop-color="#404040"/>
<stop offset="1" stop-color="#A6A6A6"/>
</linearGradient>
<linearGradient id="paint3_linear_82_210" x1="952.936" y1="344.29" x2="945.719" y2="256.623" gradientUnits="userSpaceOnUse">
<stop stop-color="#D7FFAF"/>
<stop offset="0.589182" stop-color="#8BDFD7"/>
<stop offset="1" stop-color="#3FBFFF"/>
</linearGradient>
<linearGradient id="paint4_linear_82_210" x1="943.524" y1="320.071" x2="987.016" y2="284.333" gradientUnits="userSpaceOnUse">
<stop stop-color="#9BFF37"/>
<stop offset="1" stop-color="#47C2FA"/>
</linearGradient>
<linearGradient id="paint5_linear_82_210" x1="1008.59" y1="316.459" x2="1001.37" y2="228.792" gradientUnits="userSpaceOnUse">
<stop stop-color="#D7FFAF"/>
<stop offset="0.589182" stop-color="#8BDFD7"/>
<stop offset="1" stop-color="#3FBFFF"/>
</linearGradient>
<linearGradient id="paint6_linear_82_210" x1="999.179" y1="292.24" x2="1042.67" y2="256.502" gradientUnits="userSpaceOnUse">
<stop stop-color="#9BFF37"/>
<stop offset="1" stop-color="#47C2FA"/>
</linearGradient>
<linearGradient id="paint7_linear_82_210" x1="1058.24" y1="294.004" x2="1051.02" y2="206.337" gradientUnits="userSpaceOnUse">
<stop stop-color="#D7FFAF"/>
<stop offset="0.589182" stop-color="#8BDFD7"/>
<stop offset="1" stop-color="#3FBFFF"/>
</linearGradient>
<linearGradient id="paint8_linear_82_210" x1="1048.83" y1="269.785" x2="1092.32" y2="234.047" gradientUnits="userSpaceOnUse">
<stop stop-color="#9BFF37"/>
<stop offset="1" stop-color="#47C2FA"/>
</linearGradient>
<linearGradient id="paint9_linear_82_210" x1="466.271" y1="593.75" x2="553.416" y2="581.78" gradientUnits="userSpaceOnUse">
<stop stop-color="#D7FFAF"/>
<stop offset="0.589182" stop-color="#8BDFD7"/>
<stop offset="1" stop-color="#3FBFFF"/>
</linearGradient>
<linearGradient id="paint10_linear_82_210" x1="489.943" y1="583.036" x2="527.991" y2="624.522" gradientUnits="userSpaceOnUse">
<stop stop-color="#9BFF37"/>
<stop offset="1" stop-color="#47C2FA"/>
</linearGradient>
<linearGradient id="paint11_linear_82_210" x1="497.085" y1="647.81" x2="584.231" y2="635.84" gradientUnits="userSpaceOnUse">
<stop stop-color="#D7FFAF"/>
<stop offset="0.589182" stop-color="#8BDFD7"/>
<stop offset="1" stop-color="#3FBFFF"/>
</linearGradient>
<linearGradient id="paint12_linear_82_210" x1="520.757" y1="637.096" x2="558.806" y2="678.582" gradientUnits="userSpaceOnUse">
<stop stop-color="#9BFF37"/>
<stop offset="1" stop-color="#47C2FA"/>
</linearGradient>
<linearGradient id="paint13_linear_82_210" x1="662.271" y1="-26.2498" x2="749.416" y2="-38.2205" gradientUnits="userSpaceOnUse">
<stop stop-color="#D7FFAF"/>
<stop offset="0.589182" stop-color="#8BDFD7"/>
<stop offset="1" stop-color="#3FBFFF"/>
</linearGradient>
<linearGradient id="paint14_linear_82_210" x1="685.943" y1="-36.9638" x2="723.991" y2="4.52155" gradientUnits="userSpaceOnUse">
<stop stop-color="#9BFF37"/>
<stop offset="1" stop-color="#47C2FA"/>
</linearGradient>
<linearGradient id="paint15_linear_82_210" x1="693.085" y1="27.8102" x2="780.231" y2="15.8396" gradientUnits="userSpaceOnUse">
<stop stop-color="#D7FFAF"/>
<stop offset="0.589182" stop-color="#8BDFD7"/>
<stop offset="1" stop-color="#3FBFFF"/>
</linearGradient>
<linearGradient id="paint16_linear_82_210" x1="716.757" y1="17.0962" x2="754.806" y2="58.5816" gradientUnits="userSpaceOnUse">
<stop stop-color="#9BFF37"/>
<stop offset="1" stop-color="#47C2FA"/>
</linearGradient>
<linearGradient id="paint17_linear_82_210" x1="718.205" y1="76.1632" x2="805.35" y2="64.1926" gradientUnits="userSpaceOnUse">
<stop stop-color="#D7FFAF"/>
<stop offset="0.589182" stop-color="#8BDFD7"/>
<stop offset="1" stop-color="#3FBFFF"/>
</linearGradient>
<linearGradient id="paint18_linear_82_210" x1="741.876" y1="65.4493" x2="779.925" y2="106.935" gradientUnits="userSpaceOnUse">
<stop stop-color="#9BFF37"/>
<stop offset="1" stop-color="#47C2FA"/>
</linearGradient>
<linearGradient id="paint19_linear_82_210" x1="91.5358" y1="109.456" x2="92.5697" y2="62.9788" gradientUnits="userSpaceOnUse">
<stop stop-color="#D7FFAF"/>
<stop offset="0.460602" stop-color="#8BDFD7"/>
<stop offset="1" stop-color="#3FBFFF"/>
</linearGradient>
<linearGradient id="paint20_linear_82_210" x1="115.625" y1="97.6759" x2="119.444" y2="61.7805" gradientUnits="userSpaceOnUse">
<stop stop-color="#9BFF37"/>
<stop offset="1" stop-color="#47C2FA"/>
</linearGradient>
<linearGradient id="paint21_linear_82_210" x1="115.155" y1="68.1507" x2="81.0298" y2="44.0654" gradientUnits="userSpaceOnUse">
<stop stop-color="#D7FFAF"/>
<stop offset="0.440209" stop-color="#8BDFD7"/>
<stop offset="1" stop-color="#3FBFFF"/>
</linearGradient>
<linearGradient id="paint22_linear_82_210" x1="104.25" y1="66.1637" x2="73.399" y2="82.2184" gradientUnits="userSpaceOnUse">
<stop stop-color="#47C2FA"/>
<stop offset="1" stop-color="#9BFF37"/>
</linearGradient>
</defs>
</svg>
