<svg viewBox="0 0 1025 593" fill="none" xmlns="http://www.w3.org/2000/svg">
<rect x="1" y="1" width="1023" height="591" rx="51" fill="url(#paint0_linear_69_76)" stroke="#404040" stroke-width="2"/>
<mask id="mask0_69_76" style="mask-type:alpha" maskUnits="userSpaceOnUse" x="0" y="0">
<rect x="1" y="1" width="1023" height="591" rx="51" fill="url(#paint1_linear_69_76)" stroke="#404040" stroke-width="2"/>
</mask>
<g mask="url(#mask0_69_76)">
<path opacity="0.2" d="M418.492 542.609H418.617V543.836H418.492C417.727 543.836 417.086 543.961 416.57 544.211C416.055 544.456 415.646 544.786 415.344 545.203C415.042 545.615 414.823 546.078 414.688 546.594C414.557 547.109 414.492 547.633 414.492 548.164V549.836C414.492 550.341 414.552 550.789 414.672 551.18C414.792 551.565 414.956 551.891 415.164 552.156C415.372 552.422 415.607 552.622 415.867 552.758C416.133 552.893 416.409 552.961 416.695 552.961C417.029 552.961 417.326 552.898 417.586 552.773C417.846 552.643 418.065 552.464 418.242 552.234C418.424 552 418.562 551.724 418.656 551.406C418.75 551.089 418.797 550.74 418.797 550.359C418.797 550.021 418.755 549.695 418.672 549.383C418.589 549.065 418.461 548.784 418.289 548.539C418.117 548.289 417.901 548.094 417.641 547.953C417.385 547.807 417.081 547.734 416.727 547.734C416.326 547.734 415.951 547.833 415.602 548.031C415.258 548.224 414.974 548.479 414.75 548.797C414.531 549.109 414.406 549.451 414.375 549.82L413.609 549.812C413.682 549.229 413.818 548.732 414.016 548.32C414.219 547.904 414.469 547.565 414.766 547.305C415.068 547.039 415.404 546.846 415.773 546.727C416.148 546.602 416.544 546.539 416.961 546.539C417.529 546.539 418.018 546.646 418.43 546.859C418.841 547.073 419.18 547.359 419.445 547.719C419.711 548.073 419.906 548.474 420.031 548.922C420.161 549.365 420.227 549.82 420.227 550.289C420.227 550.826 420.151 551.328 420 551.797C419.849 552.266 419.622 552.677 419.32 553.031C419.023 553.385 418.656 553.661 418.219 553.859C417.781 554.057 417.273 554.156 416.695 554.156C416.081 554.156 415.544 554.031 415.086 553.781C414.628 553.526 414.247 553.188 413.945 552.766C413.643 552.344 413.417 551.875 413.266 551.359C413.115 550.844 413.039 550.32 413.039 549.789V549.109C413.039 548.307 413.12 547.521 413.281 546.75C413.443 545.979 413.721 545.281 414.117 544.656C414.518 544.031 415.073 543.534 415.781 543.164C416.49 542.794 417.393 542.609 418.492 542.609ZM428.387 550.383H429.887C429.809 551.102 429.604 551.745 429.27 552.312C428.937 552.88 428.466 553.331 427.856 553.664C427.247 553.992 426.486 554.156 425.575 554.156C424.908 554.156 424.302 554.031 423.755 553.781C423.213 553.531 422.747 553.177 422.356 552.719C421.966 552.255 421.664 551.701 421.45 551.055C421.242 550.404 421.137 549.68 421.137 548.883V547.75C421.137 546.953 421.242 546.232 421.45 545.586C421.664 544.935 421.968 544.378 422.364 543.914C422.765 543.451 423.247 543.094 423.809 542.844C424.372 542.594 425.005 542.469 425.708 542.469C426.567 542.469 427.294 542.63 427.887 542.953C428.481 543.276 428.942 543.724 429.27 544.297C429.604 544.865 429.809 545.523 429.887 546.273H428.387C428.315 545.742 428.179 545.286 427.981 544.906C427.783 544.521 427.502 544.224 427.137 544.016C426.773 543.807 426.296 543.703 425.708 543.703C425.203 543.703 424.757 543.799 424.372 543.992C423.992 544.185 423.671 544.458 423.411 544.812C423.156 545.167 422.963 545.591 422.833 546.086C422.703 546.581 422.637 547.13 422.637 547.734V548.883C422.637 549.44 422.695 549.964 422.809 550.453C422.929 550.943 423.109 551.372 423.348 551.742C423.588 552.112 423.893 552.404 424.262 552.617C424.632 552.826 425.07 552.93 425.575 552.93C426.216 552.93 426.726 552.828 427.106 552.625C427.486 552.422 427.773 552.13 427.966 551.75C428.164 551.37 428.304 550.914 428.387 550.383ZM437.205 551.125C437.205 550.859 437.163 550.625 437.08 550.422C437.002 550.214 436.861 550.026 436.658 549.859C436.46 549.693 436.184 549.534 435.83 549.383C435.481 549.232 435.038 549.078 434.502 548.922C433.939 548.755 433.431 548.57 432.978 548.367C432.525 548.159 432.137 547.922 431.814 547.656C431.491 547.391 431.244 547.086 431.072 546.742C430.9 546.398 430.814 546.005 430.814 545.562C430.814 545.12 430.905 544.711 431.087 544.336C431.27 543.961 431.53 543.635 431.869 543.359C432.212 543.078 432.621 542.859 433.095 542.703C433.569 542.547 434.098 542.469 434.681 542.469C435.535 542.469 436.259 542.633 436.853 542.961C437.452 543.284 437.908 543.708 438.22 544.234C438.533 544.755 438.689 545.312 438.689 545.906H437.189C437.189 545.479 437.098 545.102 436.916 544.773C436.733 544.44 436.457 544.18 436.087 543.992C435.718 543.799 435.249 543.703 434.681 543.703C434.145 543.703 433.702 543.784 433.353 543.945C433.004 544.107 432.744 544.326 432.572 544.602C432.405 544.878 432.322 545.193 432.322 545.547C432.322 545.786 432.371 546.005 432.47 546.203C432.574 546.396 432.733 546.576 432.947 546.742C433.166 546.909 433.442 547.062 433.775 547.203C434.114 547.344 434.517 547.479 434.986 547.609C435.632 547.792 436.189 547.995 436.658 548.219C437.127 548.443 437.512 548.695 437.814 548.977C438.121 549.253 438.348 549.568 438.494 549.922C438.645 550.271 438.72 550.667 438.72 551.109C438.72 551.573 438.627 551.992 438.439 552.367C438.252 552.742 437.983 553.062 437.634 553.328C437.285 553.594 436.866 553.799 436.377 553.945C435.892 554.086 435.351 554.156 434.752 554.156C434.226 554.156 433.707 554.083 433.197 553.938C432.692 553.792 432.231 553.573 431.814 553.281C431.403 552.99 431.072 552.63 430.822 552.203C430.577 551.771 430.455 551.271 430.455 550.703H431.955C431.955 551.094 432.03 551.43 432.181 551.711C432.332 551.987 432.538 552.216 432.798 552.398C433.064 552.581 433.364 552.716 433.697 552.805C434.035 552.888 434.387 552.93 434.752 552.93C435.278 552.93 435.723 552.857 436.087 552.711C436.452 552.565 436.728 552.357 436.916 552.086C437.108 551.815 437.205 551.495 437.205 551.125ZM441.577 547.602H442.608C443.113 547.602 443.53 547.518 443.858 547.352C444.191 547.18 444.439 546.948 444.6 546.656C444.767 546.359 444.85 546.026 444.85 545.656C444.85 545.219 444.777 544.852 444.631 544.555C444.485 544.258 444.267 544.034 443.975 543.883C443.683 543.732 443.314 543.656 442.866 543.656C442.459 543.656 442.1 543.737 441.788 543.898C441.48 544.055 441.238 544.279 441.061 544.57C440.889 544.862 440.803 545.206 440.803 545.602H439.358C439.358 545.023 439.504 544.497 439.795 544.023C440.087 543.549 440.496 543.172 441.022 542.891C441.553 542.609 442.168 542.469 442.866 542.469C443.553 542.469 444.155 542.591 444.67 542.836C445.186 543.076 445.587 543.435 445.873 543.914C446.16 544.388 446.303 544.979 446.303 545.688C446.303 545.974 446.235 546.281 446.1 546.609C445.97 546.932 445.764 547.234 445.483 547.516C445.207 547.797 444.847 548.029 444.405 548.211C443.962 548.388 443.431 548.477 442.811 548.477H441.577V547.602ZM441.577 548.789V547.922H442.811C443.535 547.922 444.134 548.008 444.608 548.18C445.082 548.352 445.454 548.581 445.725 548.867C446.001 549.154 446.194 549.469 446.303 549.812C446.418 550.151 446.475 550.49 446.475 550.828C446.475 551.359 446.384 551.831 446.202 552.242C446.024 552.654 445.772 553.003 445.444 553.289C445.121 553.576 444.741 553.792 444.303 553.938C443.866 554.083 443.389 554.156 442.873 554.156C442.379 554.156 441.913 554.086 441.475 553.945C441.043 553.805 440.66 553.602 440.327 553.336C439.993 553.065 439.733 552.734 439.545 552.344C439.358 551.948 439.264 551.497 439.264 550.992H440.709C440.709 551.388 440.795 551.734 440.967 552.031C441.144 552.328 441.394 552.56 441.717 552.727C442.045 552.888 442.431 552.969 442.873 552.969C443.316 552.969 443.696 552.893 444.014 552.742C444.337 552.586 444.584 552.352 444.756 552.039C444.933 551.727 445.022 551.333 445.022 550.859C445.022 550.385 444.923 549.997 444.725 549.695C444.527 549.388 444.246 549.161 443.881 549.016C443.522 548.865 443.097 548.789 442.608 548.789H441.577ZM455.019 542.625V543.438L450.308 554H448.784L453.487 543.812H447.331V542.625H455.019ZM457.305 552.789H457.453C458.286 552.789 458.964 552.672 459.484 552.438C460.005 552.203 460.406 551.888 460.688 551.492C460.969 551.096 461.161 550.651 461.266 550.156C461.37 549.656 461.422 549.143 461.422 548.617V546.875C461.422 546.359 461.362 545.901 461.242 545.5C461.128 545.099 460.966 544.763 460.758 544.492C460.555 544.221 460.323 544.016 460.062 543.875C459.802 543.734 459.526 543.664 459.234 543.664C458.901 543.664 458.602 543.732 458.336 543.867C458.076 543.997 457.854 544.182 457.672 544.422C457.495 544.661 457.359 544.943 457.266 545.266C457.172 545.589 457.125 545.94 457.125 546.32C457.125 546.659 457.167 546.987 457.25 547.305C457.333 547.622 457.461 547.909 457.633 548.164C457.805 548.419 458.018 548.622 458.273 548.773C458.534 548.919 458.839 548.992 459.188 548.992C459.51 548.992 459.812 548.93 460.094 548.805C460.38 548.674 460.633 548.5 460.852 548.281C461.076 548.057 461.253 547.805 461.383 547.523C461.518 547.242 461.596 546.948 461.617 546.641H462.305C462.305 547.073 462.219 547.5 462.047 547.922C461.88 548.339 461.646 548.719 461.344 549.062C461.042 549.406 460.688 549.682 460.281 549.891C459.875 550.094 459.432 550.195 458.953 550.195C458.391 550.195 457.904 550.086 457.492 549.867C457.081 549.648 456.742 549.357 456.477 548.992C456.216 548.628 456.021 548.221 455.891 547.773C455.766 547.32 455.703 546.862 455.703 546.398C455.703 545.857 455.779 545.349 455.93 544.875C456.081 544.401 456.305 543.984 456.602 543.625C456.898 543.26 457.266 542.977 457.703 542.773C458.146 542.57 458.656 542.469 459.234 542.469C459.885 542.469 460.44 542.599 460.898 542.859C461.357 543.12 461.729 543.469 462.016 543.906C462.307 544.344 462.521 544.836 462.656 545.383C462.792 545.93 462.859 546.492 462.859 547.07V547.594C462.859 548.182 462.82 548.781 462.742 549.391C462.669 549.995 462.526 550.573 462.312 551.125C462.104 551.677 461.799 552.172 461.398 552.609C460.997 553.042 460.474 553.385 459.828 553.641C459.188 553.891 458.396 554.016 457.453 554.016H457.305V552.789ZM471.239 550.922C471.239 551.615 471.078 552.203 470.755 552.688C470.437 553.167 470.005 553.531 469.458 553.781C468.916 554.031 468.304 554.156 467.622 554.156C466.94 554.156 466.325 554.031 465.778 553.781C465.231 553.531 464.799 553.167 464.481 552.688C464.164 552.203 464.005 551.615 464.005 550.922C464.005 550.469 464.091 550.055 464.263 549.68C464.44 549.299 464.687 548.969 465.005 548.688C465.328 548.406 465.708 548.19 466.145 548.039C466.588 547.883 467.075 547.805 467.606 547.805C468.304 547.805 468.927 547.94 469.473 548.211C470.02 548.477 470.45 548.844 470.763 549.312C471.08 549.781 471.239 550.318 471.239 550.922ZM469.786 550.891C469.786 550.469 469.695 550.096 469.513 549.773C469.33 549.445 469.075 549.19 468.747 549.008C468.419 548.826 468.039 548.734 467.606 548.734C467.164 548.734 466.781 548.826 466.458 549.008C466.14 549.19 465.893 549.445 465.716 549.773C465.539 550.096 465.45 550.469 465.45 550.891C465.45 551.328 465.536 551.703 465.708 552.016C465.885 552.323 466.135 552.56 466.458 552.727C466.786 552.888 467.174 552.969 467.622 552.969C468.07 552.969 468.455 552.888 468.778 552.727C469.101 552.56 469.348 552.323 469.52 552.016C469.697 551.703 469.786 551.328 469.786 550.891ZM470.973 545.586C470.973 546.138 470.828 546.635 470.536 547.078C470.244 547.521 469.846 547.87 469.341 548.125C468.835 548.38 468.263 548.508 467.622 548.508C466.971 548.508 466.39 548.38 465.88 548.125C465.374 547.87 464.979 547.521 464.692 547.078C464.406 546.635 464.263 546.138 464.263 545.586C464.263 544.924 464.406 544.362 464.692 543.898C464.984 543.435 465.382 543.081 465.888 542.836C466.393 542.591 466.968 542.469 467.614 542.469C468.265 542.469 468.843 542.591 469.348 542.836C469.854 543.081 470.249 543.435 470.536 543.898C470.828 544.362 470.973 544.924 470.973 545.586ZM469.528 545.609C469.528 545.229 469.447 544.893 469.286 544.602C469.124 544.31 468.901 544.081 468.614 543.914C468.328 543.742 467.994 543.656 467.614 543.656C467.234 543.656 466.901 543.737 466.614 543.898C466.333 544.055 466.111 544.279 465.95 544.57C465.794 544.862 465.716 545.208 465.716 545.609C465.716 546 465.794 546.341 465.95 546.633C466.111 546.924 466.335 547.151 466.622 547.312C466.908 547.474 467.242 547.555 467.622 547.555C468.002 547.555 468.333 547.474 468.614 547.312C468.901 547.151 469.124 546.924 469.286 546.633C469.447 546.341 469.528 546 469.528 545.609ZM476.314 552.273L479.666 542.625H481.298L477.088 554H475.923L476.314 552.273ZM473.181 542.625L476.502 552.273L476.916 554H475.752L471.548 542.625H473.181ZM488.092 551.125C488.092 550.859 488.051 550.625 487.967 550.422C487.889 550.214 487.748 550.026 487.545 549.859C487.347 549.693 487.071 549.534 486.717 549.383C486.368 549.232 485.926 549.078 485.389 548.922C484.827 548.755 484.319 548.57 483.866 548.367C483.412 548.159 483.024 547.922 482.702 547.656C482.379 547.391 482.131 547.086 481.959 546.742C481.787 546.398 481.702 546.005 481.702 545.562C481.702 545.12 481.793 544.711 481.975 544.336C482.157 543.961 482.418 543.635 482.756 543.359C483.1 543.078 483.509 542.859 483.983 542.703C484.457 542.547 484.985 542.469 485.569 542.469C486.423 542.469 487.147 542.633 487.741 542.961C488.34 543.284 488.795 543.708 489.108 544.234C489.42 544.755 489.577 545.312 489.577 545.906H488.077C488.077 545.479 487.985 545.102 487.803 544.773C487.621 544.44 487.345 544.18 486.975 543.992C486.605 543.799 486.136 543.703 485.569 543.703C485.032 543.703 484.59 543.784 484.241 543.945C483.892 544.107 483.631 544.326 483.459 544.602C483.293 544.878 483.209 545.193 483.209 545.547C483.209 545.786 483.259 546.005 483.358 546.203C483.462 546.396 483.621 546.576 483.834 546.742C484.053 546.909 484.329 547.062 484.662 547.203C485.001 547.344 485.405 547.479 485.873 547.609C486.519 547.792 487.077 547.995 487.545 548.219C488.014 548.443 488.399 548.695 488.702 548.977C489.009 549.253 489.235 549.568 489.381 549.922C489.532 550.271 489.608 550.667 489.608 551.109C489.608 551.573 489.514 551.992 489.327 552.367C489.139 552.742 488.871 553.062 488.522 553.328C488.173 553.594 487.754 553.799 487.264 553.945C486.78 554.086 486.238 554.156 485.639 554.156C485.113 554.156 484.595 554.083 484.084 553.938C483.579 553.792 483.118 553.573 482.702 553.281C482.29 552.99 481.959 552.63 481.709 552.203C481.465 551.771 481.342 551.271 481.342 550.703H482.842C482.842 551.094 482.918 551.43 483.069 551.711C483.22 551.987 483.426 552.216 483.686 552.398C483.952 552.581 484.251 552.716 484.584 552.805C484.923 552.888 485.274 552.93 485.639 552.93C486.165 552.93 486.61 552.857 486.975 552.711C487.34 552.565 487.616 552.357 487.803 552.086C487.996 551.815 488.092 551.495 488.092 551.125ZM492.347 542.625V554H490.839V542.625H492.347ZM497.961 552.273L501.312 542.625H502.945L498.734 554H497.57L497.961 552.273ZM494.828 542.625L498.148 552.273L498.562 554H497.398L493.195 542.625H494.828ZM505.184 542.625V554H503.677V542.625H505.184ZM512.052 542.625L507.325 547.93L504.669 550.688L504.419 549.078L506.419 546.875L510.239 542.625H512.052ZM510.598 554L506.387 548.453L507.286 547.258L512.395 554H510.598ZM517.134 543.633L513.369 554H511.83L516.166 542.625H517.158L517.134 543.633ZM520.291 554L516.517 543.633L516.494 542.625H517.486L521.838 554H520.291ZM520.095 549.789V551.023H513.705V549.789H520.095ZM526.756 549.539H523.717V548.312H526.756C527.345 548.312 527.821 548.219 528.186 548.031C528.551 547.844 528.816 547.583 528.983 547.25C529.155 546.917 529.241 546.536 529.241 546.109C529.241 545.719 529.155 545.352 528.983 545.008C528.816 544.664 528.551 544.388 528.186 544.18C527.821 543.966 527.345 543.859 526.756 543.859H524.069V554H522.561V542.625H526.756C527.616 542.625 528.342 542.773 528.936 543.07C529.53 543.367 529.98 543.779 530.287 544.305C530.595 544.826 530.748 545.422 530.748 546.094C530.748 546.823 530.595 547.445 530.287 547.961C529.98 548.477 529.53 548.87 528.936 549.141C528.342 549.406 527.616 549.539 526.756 549.539ZM535.527 552.273L538.878 542.625H540.511L536.3 554H535.136L535.527 552.273ZM532.394 542.625L535.714 552.273L536.128 554H534.964L530.761 542.625H532.394ZM549.992 542.625V554H548.477L542.75 545.227V554H541.242V542.625H542.75L548.5 551.422V542.625H549.992ZM556.216 543.633L552.45 554H550.911L555.247 542.625H556.239L556.216 543.633ZM559.372 554L555.598 543.633L555.575 542.625H556.567L560.919 554H559.372ZM559.177 549.789V551.023H552.786V549.789H559.177ZM568.009 542.625H569.509V550.32C569.509 551.174 569.319 551.885 568.939 552.453C568.559 553.021 568.054 553.448 567.423 553.734C566.798 554.016 566.119 554.156 565.384 554.156C564.614 554.156 563.916 554.016 563.291 553.734C562.671 553.448 562.179 553.021 561.814 552.453C561.455 551.885 561.275 551.174 561.275 550.32V542.625H562.767V550.32C562.767 550.914 562.877 551.404 563.095 551.789C563.314 552.174 563.619 552.461 564.009 552.648C564.405 552.836 564.864 552.93 565.384 552.93C565.91 552.93 566.369 552.836 566.759 552.648C567.155 552.461 567.462 552.174 567.681 551.789C567.9 551.404 568.009 550.914 568.009 550.32V542.625ZM579.483 548.336V552.5C579.342 552.708 579.118 552.943 578.811 553.203C578.504 553.458 578.079 553.682 577.538 553.875C577.001 554.062 576.308 554.156 575.459 554.156C574.767 554.156 574.129 554.036 573.545 553.797C572.967 553.552 572.465 553.198 572.038 552.734C571.616 552.266 571.288 551.698 571.053 551.031C570.824 550.359 570.709 549.599 570.709 548.75V547.867C570.709 547.018 570.808 546.26 571.006 545.594C571.209 544.927 571.506 544.362 571.897 543.898C572.288 543.43 572.767 543.076 573.334 542.836C573.902 542.591 574.553 542.469 575.288 542.469C576.157 542.469 576.884 542.62 577.467 542.922C578.056 543.219 578.514 543.63 578.842 544.156C579.176 544.682 579.389 545.281 579.483 545.953H577.975C577.907 545.542 577.772 545.167 577.569 544.828C577.371 544.49 577.087 544.219 576.717 544.016C576.347 543.807 575.871 543.703 575.288 543.703C574.761 543.703 574.306 543.799 573.92 543.992C573.535 544.185 573.217 544.461 572.967 544.82C572.717 545.18 572.53 545.615 572.405 546.125C572.285 546.635 572.225 547.211 572.225 547.852V548.75C572.225 549.406 572.301 549.992 572.452 550.508C572.608 551.023 572.829 551.464 573.116 551.828C573.402 552.188 573.743 552.461 574.139 552.648C574.54 552.836 574.983 552.93 575.467 552.93C576.004 552.93 576.439 552.885 576.772 552.797C577.105 552.703 577.366 552.594 577.553 552.469C577.741 552.339 577.884 552.216 577.983 552.102V549.555H575.35V548.336H579.483ZM588.159 542.625V543.438L583.448 554H581.925L586.628 543.812H580.472V542.625H588.159ZM596.18 550.922C596.18 551.615 596.018 552.203 595.695 552.688C595.378 553.167 594.945 553.531 594.398 553.781C593.857 554.031 593.245 554.156 592.562 554.156C591.88 554.156 591.266 554.031 590.719 553.781C590.172 553.531 589.74 553.167 589.422 552.688C589.104 552.203 588.945 551.615 588.945 550.922C588.945 550.469 589.031 550.055 589.203 549.68C589.38 549.299 589.628 548.969 589.945 548.688C590.268 548.406 590.648 548.19 591.086 548.039C591.529 547.883 592.016 547.805 592.547 547.805C593.245 547.805 593.867 547.94 594.414 548.211C594.961 548.477 595.391 548.844 595.703 549.312C596.021 549.781 596.18 550.318 596.18 550.922ZM594.727 550.891C594.727 550.469 594.635 550.096 594.453 549.773C594.271 549.445 594.016 549.19 593.688 549.008C593.359 548.826 592.979 548.734 592.547 548.734C592.104 548.734 591.721 548.826 591.398 549.008C591.081 549.19 590.833 549.445 590.656 549.773C590.479 550.096 590.391 550.469 590.391 550.891C590.391 551.328 590.477 551.703 590.648 552.016C590.826 552.323 591.076 552.56 591.398 552.727C591.727 552.888 592.115 552.969 592.562 552.969C593.01 552.969 593.396 552.888 593.719 552.727C594.042 552.56 594.289 552.323 594.461 552.016C594.638 551.703 594.727 551.328 594.727 550.891ZM595.914 545.586C595.914 546.138 595.768 546.635 595.477 547.078C595.185 547.521 594.786 547.87 594.281 548.125C593.776 548.38 593.203 548.508 592.562 548.508C591.911 548.508 591.331 548.38 590.82 548.125C590.315 547.87 589.919 547.521 589.633 547.078C589.346 546.635 589.203 546.138 589.203 545.586C589.203 544.924 589.346 544.362 589.633 543.898C589.924 543.435 590.323 543.081 590.828 542.836C591.333 542.591 591.909 542.469 592.555 542.469C593.206 542.469 593.784 542.591 594.289 542.836C594.794 543.081 595.19 543.435 595.477 543.898C595.768 544.362 595.914 544.924 595.914 545.586ZM594.469 545.609C594.469 545.229 594.388 544.893 594.227 544.602C594.065 544.31 593.841 544.081 593.555 543.914C593.268 543.742 592.935 543.656 592.555 543.656C592.174 543.656 591.841 543.737 591.555 543.898C591.273 544.055 591.052 544.279 590.891 544.57C590.734 544.862 590.656 545.208 590.656 545.609C590.656 546 590.734 546.341 590.891 546.633C591.052 546.924 591.276 547.151 591.562 547.312C591.849 547.474 592.182 547.555 592.562 547.555C592.943 547.555 593.273 547.474 593.555 547.312C593.841 547.151 594.065 546.924 594.227 546.633C594.388 546.341 594.469 546 594.469 545.609ZM598.645 552.789H598.794C599.627 552.789 600.304 552.672 600.825 552.438C601.346 552.203 601.747 551.888 602.028 551.492C602.309 551.096 602.502 550.651 602.606 550.156C602.71 549.656 602.762 549.143 602.762 548.617V546.875C602.762 546.359 602.703 545.901 602.583 545.5C602.468 545.099 602.307 544.763 602.098 544.492C601.895 544.221 601.664 544.016 601.403 543.875C601.143 543.734 600.867 543.664 600.575 543.664C600.242 543.664 599.942 543.732 599.677 543.867C599.416 543.997 599.195 544.182 599.012 544.422C598.835 544.661 598.7 544.943 598.606 545.266C598.512 545.589 598.466 545.94 598.466 546.32C598.466 546.659 598.507 546.987 598.591 547.305C598.674 547.622 598.802 547.909 598.973 548.164C599.145 548.419 599.359 548.622 599.614 548.773C599.874 548.919 600.179 548.992 600.528 548.992C600.851 548.992 601.153 548.93 601.434 548.805C601.721 548.674 601.973 548.5 602.192 548.281C602.416 548.057 602.593 547.805 602.723 547.523C602.859 547.242 602.937 546.948 602.958 546.641H603.645C603.645 547.073 603.559 547.5 603.387 547.922C603.221 548.339 602.986 548.719 602.684 549.062C602.382 549.406 602.028 549.682 601.622 549.891C601.216 550.094 600.773 550.195 600.294 550.195C599.731 550.195 599.244 550.086 598.833 549.867C598.421 549.648 598.083 549.357 597.817 548.992C597.557 548.628 597.361 548.221 597.231 547.773C597.106 547.32 597.044 546.862 597.044 546.398C597.044 545.857 597.119 545.349 597.27 544.875C597.421 544.401 597.645 543.984 597.942 543.625C598.239 543.26 598.606 542.977 599.044 542.773C599.486 542.57 599.997 542.469 600.575 542.469C601.226 542.469 601.781 542.599 602.239 542.859C602.697 543.12 603.07 543.469 603.356 543.906C603.648 544.344 603.861 544.836 603.997 545.383C604.132 545.93 604.2 546.492 604.2 547.07V547.594C604.2 548.182 604.161 548.781 604.083 549.391C604.01 549.995 603.867 550.573 603.653 551.125C603.445 551.677 603.14 552.172 602.739 552.609C602.338 553.042 601.815 553.385 601.169 553.641C600.528 553.891 599.736 554.016 598.794 554.016H598.645V552.789ZM612.759 542.625V543.438L608.048 554H606.525L611.228 543.812H605.072V542.625H612.759Z" fill="#CCCCCC"/>
<path opacity="0.12" d="M772.54 295.165C772.54 281.607 770.603 269.132 766.729 257.738C762.856 246.231 757.159 236.262 749.64 227.831C742.234 219.4 733.062 212.849 722.125 208.178C711.188 203.393 698.712 201 684.698 201C670.685 201 658.266 203.393 647.442 208.178C636.619 212.849 627.504 219.4 620.099 227.831C612.693 236.262 607.053 246.231 603.18 257.738C599.306 269.132 597.369 281.607 597.369 295.165V298.754C597.369 312.198 599.306 324.674 603.18 336.181C607.053 347.574 612.693 357.543 620.099 366.088C627.618 374.519 636.79 381.07 647.613 385.741C658.551 390.412 671.026 392.748 685.04 392.748C699.054 392.748 711.472 390.412 722.296 385.741C733.119 381.07 742.234 374.519 749.64 366.088C757.159 357.543 762.856 347.574 766.729 336.181C770.603 324.674 772.54 312.198 772.54 298.754V295.165ZM722.15 295.165C722.15 288.177 721.505 281.597 720.219 275.422L719.953 274.192L719.949 274.173C718.686 267.96 716.686 262.461 713.961 257.665L713.399 256.703L713.394 256.692C710.511 251.593 706.699 247.62 701.954 244.751C697.242 241.902 691.505 240.452 684.698 240.452C677.896 240.452 672.161 241.899 667.45 244.745C662.816 247.614 658.998 251.59 655.998 256.699L655.999 256.7C653.099 261.72 650.967 267.54 649.618 274.173V274.176C648.266 280.71 647.588 287.706 647.588 295.165V298.754C647.588 305.962 648.184 312.712 649.373 319.006L649.618 320.259C650.965 326.881 653.092 332.693 655.985 337.708C658.885 342.433 662.607 346.157 667.155 348.896L667.599 349.159C672.312 351.899 678.11 353.296 685.04 353.296V354.296C677.976 354.296 671.995 352.872 667.096 350.023C662.197 347.175 658.209 343.244 655.133 338.231C652.171 333.104 650.006 327.18 648.639 320.458C647.271 313.736 646.588 306.501 646.588 298.754V295.165C646.588 287.646 647.271 280.582 648.639 273.974C650.006 267.252 652.171 261.327 655.133 256.2C658.209 250.959 662.14 246.858 666.925 243.896C671.824 240.933 677.748 239.452 684.698 239.452C691.648 239.452 697.573 240.933 702.472 243.896C707.371 246.858 711.301 250.959 714.264 256.2C717.34 261.327 719.562 267.252 720.929 273.974C722.41 280.582 723.15 287.646 723.15 295.165V298.754C723.15 306.501 722.41 313.736 720.929 320.458C719.562 327.18 717.397 333.104 714.435 338.231C711.472 343.244 707.542 347.175 702.643 350.023C697.743 352.872 691.876 354.296 685.04 354.296V353.296C691.736 353.296 697.422 351.902 702.14 349.159C706.887 346.399 710.696 342.593 713.573 337.723C716.471 332.705 718.601 326.888 719.949 320.259L719.95 320.251L719.952 320.243C721.416 313.6 722.15 306.438 722.15 298.754V295.165ZM773.54 298.754C773.54 312.295 771.589 324.88 767.677 336.5L767.676 336.503C763.884 347.654 758.36 357.468 751.099 365.934L750.391 366.748C742.882 375.296 733.645 381.932 722.692 386.659C711.722 391.394 699.165 393.748 685.04 393.748C671.356 393.748 659.092 391.539 648.264 387.098L647.221 386.661L647.217 386.659C636.608 382.08 627.555 375.711 620.071 367.549L619.353 366.754L619.348 366.748L619.343 366.743C612.081 358.365 606.503 348.639 602.604 337.577L602.233 336.503L602.232 336.5C598.321 324.88 596.369 312.295 596.369 298.754V295.165C596.369 281.511 598.32 268.925 602.233 257.416C606.146 245.795 611.848 235.708 619.348 227.171C626.854 218.625 636.089 211.989 647.038 207.263L648.071 206.815C658.797 202.264 671.012 200 684.698 200C698.822 200 711.435 202.411 722.517 207.258C733.581 211.983 742.877 218.618 750.386 227.165C758.001 235.703 763.762 245.792 767.676 257.416C771.589 268.925 773.54 281.511 773.54 295.165V298.754Z" fill="#3D3D3D"/>
<path opacity="0.12" d="M594.703 291.576C594.703 278.018 592.937 265.714 589.405 254.662C585.873 243.497 580.632 233.926 573.683 225.951C566.847 217.976 558.359 211.824 548.219 207.494C538.079 203.165 526.458 201 513.355 201C499.911 201 487.835 203.336 477.125 208.007C466.415 212.564 457.301 219.115 449.781 227.66C442.376 236.205 436.679 246.288 432.691 257.909C428.704 269.53 426.71 282.348 426.71 296.361V303.197C426.71 315.502 428.818 327.123 433.033 338.061C437.249 348.884 443.287 358.397 451.148 366.601C459.124 374.804 468.808 381.241 480.201 385.912C491.594 390.469 504.469 392.748 518.824 392.748C530.787 392.748 541.44 391.153 550.782 387.963C560.125 384.659 568.1 380.443 574.708 375.316C581.43 370.189 586.728 364.835 590.602 359.252L566.676 333.275C561.093 340.339 554.428 345.637 546.681 349.169C539.047 352.587 530.787 354.296 521.9 354.296V353.296C530.653 353.296 538.77 351.614 546.266 348.259C553.86 344.797 560.402 339.602 565.892 332.655L566.617 331.736L591.88 359.164L591.423 359.822C587.478 365.507 582.103 370.932 575.32 376.105L575.321 376.106C568.615 381.31 560.54 385.572 551.115 388.905L551.105 388.909C541.64 392.141 530.875 393.748 518.824 393.748C504.815 393.748 492.174 391.594 480.915 387.267L479.83 386.841L479.822 386.837C468.671 382.265 459.123 376.012 451.193 368.071L450.432 367.298L450.427 367.293C442.721 359.252 436.748 349.967 432.507 339.445L432.102 338.424L432.101 338.42C427.839 327.362 425.71 315.619 425.71 303.197V296.361C425.71 282.253 427.717 269.324 431.745 257.585C435.771 245.853 441.529 235.655 449.025 227.005L449.03 226.999C456.649 218.341 465.885 211.704 476.726 207.09L477.747 206.653C488.344 202.211 500.218 200 513.355 200C526.568 200 538.326 202.183 548.611 206.574C558.882 210.96 567.496 217.2 574.436 225.294C581.484 233.383 586.789 243.077 590.357 254.357C593.926 265.522 595.703 277.932 595.703 291.576V313.084H477.767C478.269 316.679 479.052 320.11 480.121 323.379C482.248 329.535 485.206 334.832 488.986 339.282C492.878 343.73 497.545 347.176 502.998 349.624C508.548 352.065 514.843 353.296 521.9 353.296V354.296C514.723 354.296 508.285 353.043 502.589 350.536C497.006 348.03 492.221 344.498 488.233 339.94C484.36 335.383 481.34 329.971 479.176 323.705C477.972 320.028 477.125 316.154 476.628 312.084H594.703V291.576ZM545.339 275.512C545.339 269.009 544.185 263.225 541.898 258.14L541.674 257.649L541.668 257.638L541.663 257.626C539.347 252.332 535.828 248.156 531.096 245.075C526.402 242.019 520.341 240.452 512.843 240.452C506.498 240.452 501.102 241.842 496.615 244.578C492.099 247.332 488.396 251.193 485.511 256.188C482.724 261.208 480.592 267.145 479.129 274.011C478.851 275.402 478.603 276.822 478.382 278.271H545.339V275.512ZM546.339 279.271H477.224C477.487 277.402 477.795 275.579 478.15 273.803C479.632 266.853 481.796 260.814 484.645 255.688C487.607 250.561 491.424 246.573 496.095 243.725C500.766 240.876 506.349 239.452 512.843 239.452C520.476 239.452 526.743 241.047 531.642 244.237C536.541 247.427 540.187 251.757 542.579 257.226C545.086 262.58 546.339 268.676 546.339 275.512V279.271Z" fill="#3D3D3D"/>
<path opacity="0.12" d="M363.229 271.239C363.229 263.361 362.166 257.294 360.118 252.96L359.917 252.546C357.739 248.191 354.554 245.178 350.349 243.453L350.334 243.447L350.32 243.441C346.156 241.578 340.95 240.623 334.664 240.623C328.189 240.623 322.604 241.906 317.875 244.436C313.239 246.976 309.371 250.509 306.269 255.05C305.543 256.124 304.861 257.247 304.219 258.415V390.33H253V203.418H301.067L302.667 223.947C309.019 216.312 316.526 210.464 325.183 206.417C334.216 202.133 344.276 200 355.343 200C363.825 200 371.627 201.189 378.741 203.58L379.428 203.815C386.752 206.373 393.038 210.447 398.275 216.03C403.648 221.637 407.705 229.021 410.475 238.136C413.361 247.261 414.79 258.36 414.79 271.41V390.33H363.229V271.239ZM254 389.33H303.219V258.159C303.911 256.884 304.651 255.661 305.44 254.491C308.631 249.82 312.618 246.174 317.403 243.554C322.302 240.933 328.056 239.623 334.664 239.623C341.044 239.623 346.399 240.591 350.729 242.528C355.172 244.351 358.533 247.541 360.812 252.099C363.09 256.656 364.229 263.036 364.229 271.239V389.33H413.79V271.41C413.79 258.422 412.366 247.427 409.518 238.427C406.783 229.426 402.796 222.191 397.555 216.723C392.428 211.254 386.275 207.266 379.098 204.76C371.92 202.253 364.002 201 355.343 201C344.405 201 334.493 203.108 325.606 207.323C316.834 211.425 309.257 217.406 302.877 225.268C302.535 225.682 302.199 226.102 301.865 226.526L300.143 204.418H254V389.33Z" fill="#3D3D3D"/>
<g opacity="0.16">
<path d="M938.551 273.813C948.338 256.219 970.534 249.891 988.128 259.678L945.082 337.058C935.296 354.651 913.099 360.98 895.506 351.193L938.551 273.813Z" fill="url(#paint2_linear_69_76)"/>
<path d="M938.551 273.813C948.338 256.219 970.534 249.891 988.128 259.678L945.082 337.058C935.296 354.651 913.099 360.98 895.506 351.193L938.551 273.813Z" fill="url(#paint3_linear_69_76)"/>
<path d="M994.206 245.982C1003.99 228.388 1026.19 222.06 1043.78 231.847L1000.74 309.227C990.95 326.82 968.754 333.149 951.161 323.362L994.206 245.982Z" fill="url(#paint4_linear_69_76)"/>
<path d="M994.206 245.982C1003.99 228.388 1026.19 222.06 1043.78 231.847L1000.74 309.227C990.95 326.82 968.754 333.149 951.161 323.362L994.206 245.982Z" fill="url(#paint5_linear_69_76)"/>
<path d="M1043.85 223.527C1053.64 205.933 1075.84 199.605 1093.43 209.392L1050.38 286.772C1040.6 304.366 1018.4 310.694 1000.81 300.907L1043.85 223.527Z" fill="url(#paint6_linear_69_76)"/>
<path d="M1043.85 223.527C1053.64 205.933 1075.84 199.605 1093.43 209.392L1050.38 286.772C1040.6 304.366 1018.4 310.694 1000.81 300.907L1043.85 223.527Z" fill="url(#paint7_linear_69_76)"/>
</g>
<g opacity="0.16">
<path d="M229.176 585.007C238.963 567.414 261.159 561.086 278.752 570.873L235.707 648.253C225.92 665.846 203.724 672.175 186.131 662.388L229.176 585.007Z" fill="url(#paint8_linear_69_76)"/>
<path d="M229.176 585.007C238.963 567.414 261.159 561.086 278.752 570.873L235.707 648.253C225.92 665.846 203.724 672.175 186.131 662.388L229.176 585.007Z" fill="url(#paint9_linear_69_76)"/>
<path d="M284.831 557.176C294.618 539.583 316.814 533.255 334.407 543.041L291.362 620.422C281.575 638.015 259.379 644.344 241.786 634.557L284.831 557.176Z" fill="url(#paint10_linear_69_76)"/>
<path d="M284.831 557.176C294.618 539.583 316.814 533.255 334.407 543.041L291.362 620.422C281.575 638.015 259.379 644.344 241.786 634.557L284.831 557.176Z" fill="url(#paint11_linear_69_76)"/>
<path d="M334.477 534.722C344.264 517.128 366.46 510.8 384.054 520.587L341.008 597.967C331.222 615.56 309.025 621.889 291.432 612.102L334.477 534.722Z" fill="url(#paint12_linear_69_76)"/>
<path d="M334.477 534.722C344.264 517.128 366.46 510.8 384.054 520.587L341.008 597.967C331.222 615.56 309.025 621.889 291.432 612.102L334.477 534.722Z" fill="url(#paint13_linear_69_76)"/>
</g>
<g opacity="0.16">
<path d="M34.8624 251.557C52.9616 260.373 60.4869 282.192 51.6706 300.292L-27.9347 261.515C-46.0339 252.699 -53.5592 230.879 -44.7429 212.78L34.8624 251.557Z" fill="url(#paint14_linear_69_76)"/>
<path d="M34.8624 251.557C52.9616 260.373 60.4869 282.192 51.6706 300.292L-27.9347 261.515C-46.0339 252.699 -53.5592 230.879 -44.7429 212.78L34.8624 251.557Z" fill="url(#paint15_linear_69_76)"/>
<path d="M65.6767 305.617C83.7759 314.433 91.3012 336.252 82.4849 354.352L2.87963 315.575C-15.2196 306.759 -22.7449 284.94 -13.9286 266.84L65.6767 305.617Z" fill="url(#paint16_linear_69_76)"/>
<path d="M65.6767 305.617C83.7759 314.433 91.3012 336.252 82.4849 354.352L2.87963 315.575C-15.2196 306.759 -22.7449 284.94 -13.9286 266.84L65.6767 305.617Z" fill="url(#paint17_linear_69_76)"/>
<path d="M90.7962 353.97C108.895 362.786 116.421 384.605 107.604 402.704L27.9991 363.928C9.89991 355.112 2.37461 333.292 11.1909 315.193L90.7962 353.97Z" fill="url(#paint18_linear_69_76)"/>
<path d="M90.7962 353.97C108.895 362.786 116.421 384.605 107.604 402.704L27.9991 363.928C9.89991 355.112 2.37461 333.292 11.1909 315.193L90.7962 353.97Z" fill="url(#paint19_linear_69_76)"/>
</g>
<g opacity="0.16">
<path d="M731.862 -44.4433C749.961 -35.627 757.487 -13.8077 748.67 4.29157L669.065 -34.4849C650.966 -43.3012 643.441 -65.1205 652.257 -83.2198L731.862 -44.4433Z" fill="url(#paint20_linear_69_76)"/>
<path d="M731.862 -44.4433C749.961 -35.627 757.487 -13.8077 748.67 4.29157L669.065 -34.4849C650.966 -43.3012 643.441 -65.1205 652.257 -83.2198L731.862 -44.4433Z" fill="url(#paint21_linear_69_76)"/>
<path d="M762.677 9.61676C780.776 18.4331 788.301 40.2524 779.485 58.3516L699.88 19.5752C681.78 10.7589 674.255 -11.0605 683.071 -29.1597L762.677 9.61676Z" fill="url(#paint22_linear_69_76)"/>
<path d="M762.677 9.61676C780.776 18.4331 788.301 40.2524 779.485 58.3516L699.88 19.5752C681.78 10.7589 674.255 -11.0605 683.071 -29.1597L762.677 9.61676Z" fill="url(#paint23_linear_69_76)"/>
<path d="M787.796 57.9695C805.896 66.7858 813.421 88.6052 804.605 106.704L724.999 67.9279C706.9 59.1116 699.375 37.2923 708.191 19.1931L787.796 57.9695Z" fill="url(#paint24_linear_69_76)"/>
<path d="M787.796 57.9695C805.896 66.7858 813.421 88.6052 804.605 106.704L724.999 67.9279C706.9 59.1116 699.375 37.2923 708.191 19.1931L787.796 57.9695Z" fill="url(#paint25_linear_69_76)"/>
</g>
<path d="M492.076 293.386C496.093 271.683 516.658 257.4 538.01 261.482L525.254 330.4C521.237 352.103 500.672 366.386 479.32 362.303L492.076 293.386Z" fill="url(#paint26_linear_69_76)"/>
<path d="M472.2 230C454.969 230 441 244.198 441 261.712L552.8 261.712C570.031 261.712 584 247.514 584 230L472.2 230Z" fill="url(#paint27_linear_69_76)"/>
<path d="M472.2 230C454.969 230 441 244.198 441 261.712L552.8 261.712C570.031 261.712 584 247.514 584 230L472.2 230Z" fill="url(#paint28_linear_69_76)" fill-opacity="0.2"/>
</g>
<defs>
<linearGradient id="paint0_linear_69_76" x1="24" y1="24" x2="1023" y2="579.5" gradientUnits="userSpaceOnUse">
<stop stop-color="white"/>
<stop offset="0.5" stop-color="#F2F2F2"/>
<stop offset="1" stop-color="white"/>
</linearGradient>
<linearGradient id="paint1_linear_69_76" x1="24" y1="24" x2="1023" y2="579.5" gradientUnits="userSpaceOnUse">
<stop stop-color="white"/>
<stop offset="0.5" stop-color="#E3E3E3"/>
<stop offset="1" stop-color="white"/>
</linearGradient>
<linearGradient id="paint2_linear_69_76" x1="952.936" y1="344.29" x2="945.719" y2="256.623" gradientUnits="userSpaceOnUse">
<stop stop-color="#D7FFAF"/>
<stop offset="0.589182" stop-color="#8BDFD7"/>
<stop offset="1" stop-color="#3FBFFF"/>
</linearGradient>
<linearGradient id="paint3_linear_69_76" x1="943.524" y1="320.071" x2="987.016" y2="284.333" gradientUnits="userSpaceOnUse">
<stop stop-color="#9BFF37"/>
<stop offset="1" stop-color="#47C2FA"/>
</linearGradient>
<linearGradient id="paint4_linear_69_76" x1="1008.59" y1="316.459" x2="1001.37" y2="228.792" gradientUnits="userSpaceOnUse">
<stop stop-color="#D7FFAF"/>
<stop offset="0.589182" stop-color="#8BDFD7"/>
<stop offset="1" stop-color="#3FBFFF"/>
</linearGradient>
<linearGradient id="paint5_linear_69_76" x1="999.179" y1="292.24" x2="1042.67" y2="256.502" gradientUnits="userSpaceOnUse">
<stop stop-color="#9BFF37"/>
<stop offset="1" stop-color="#47C2FA"/>
</linearGradient>
<linearGradient id="paint6_linear_69_76" x1="1058.24" y1="294.004" x2="1051.02" y2="206.337" gradientUnits="userSpaceOnUse">
<stop stop-color="#D7FFAF"/>
<stop offset="0.589182" stop-color="#8BDFD7"/>
<stop offset="1" stop-color="#3FBFFF"/>
</linearGradient>
<linearGradient id="paint7_linear_69_76" x1="1048.83" y1="269.785" x2="1092.32" y2="234.047" gradientUnits="userSpaceOnUse">
<stop stop-color="#9BFF37"/>
<stop offset="1" stop-color="#47C2FA"/>
</linearGradient>
<linearGradient id="paint8_linear_69_76" x1="243.561" y1="655.485" x2="236.344" y2="567.818" gradientUnits="userSpaceOnUse">
<stop stop-color="#D7FFAF"/>
<stop offset="0.589182" stop-color="#8BDFD7"/>
<stop offset="1" stop-color="#3FBFFF"/>
</linearGradient>
<linearGradient id="paint9_linear_69_76" x1="234.149" y1="631.266" x2="277.641" y2="595.528" gradientUnits="userSpaceOnUse">
<stop stop-color="#9BFF37"/>
<stop offset="1" stop-color="#47C2FA"/>
</linearGradient>
<linearGradient id="paint10_linear_69_76" x1="299.216" y1="627.654" x2="291.998" y2="539.987" gradientUnits="userSpaceOnUse">
<stop stop-color="#D7FFAF"/>
<stop offset="0.589182" stop-color="#8BDFD7"/>
<stop offset="1" stop-color="#3FBFFF"/>
</linearGradient>
<linearGradient id="paint11_linear_69_76" x1="289.804" y1="603.435" x2="333.296" y2="567.697" gradientUnits="userSpaceOnUse">
<stop stop-color="#9BFF37"/>
<stop offset="1" stop-color="#47C2FA"/>
</linearGradient>
<linearGradient id="paint12_linear_69_76" x1="348.862" y1="605.199" x2="341.645" y2="517.532" gradientUnits="userSpaceOnUse">
<stop stop-color="#D7FFAF"/>
<stop offset="0.589182" stop-color="#8BDFD7"/>
<stop offset="1" stop-color="#3FBFFF"/>
</linearGradient>
<linearGradient id="paint13_linear_69_76" x1="339.45" y1="580.98" x2="382.942" y2="545.242" gradientUnits="userSpaceOnUse">
<stop stop-color="#9BFF37"/>
<stop offset="1" stop-color="#47C2FA"/>
</linearGradient>
<linearGradient id="paint14_linear_69_76" x1="-34.7293" y1="269.75" x2="52.4162" y2="257.78" gradientUnits="userSpaceOnUse">
<stop stop-color="#D7FFAF"/>
<stop offset="0.589182" stop-color="#8BDFD7"/>
<stop offset="1" stop-color="#3FBFFF"/>
</linearGradient>
<linearGradient id="paint15_linear_69_76" x1="-11.0574" y1="259.036" x2="26.9915" y2="300.522" gradientUnits="userSpaceOnUse">
<stop stop-color="#9BFF37"/>
<stop offset="1" stop-color="#47C2FA"/>
</linearGradient>
<linearGradient id="paint16_linear_69_76" x1="-3.91492" y1="323.81" x2="83.2306" y2="311.84" gradientUnits="userSpaceOnUse">
<stop stop-color="#D7FFAF"/>
<stop offset="0.589182" stop-color="#8BDFD7"/>
<stop offset="1" stop-color="#3FBFFF"/>
</linearGradient>
<linearGradient id="paint17_linear_69_76" x1="19.7569" y1="313.096" x2="57.8058" y2="354.582" gradientUnits="userSpaceOnUse">
<stop stop-color="#9BFF37"/>
<stop offset="1" stop-color="#47C2FA"/>
</linearGradient>
<linearGradient id="paint18_linear_69_76" x1="21.2046" y1="372.163" x2="108.35" y2="360.192" gradientUnits="userSpaceOnUse">
<stop stop-color="#D7FFAF"/>
<stop offset="0.589182" stop-color="#8BDFD7"/>
<stop offset="1" stop-color="#3FBFFF"/>
</linearGradient>
<linearGradient id="paint19_linear_69_76" x1="44.8764" y1="361.449" x2="82.9253" y2="402.934" gradientUnits="userSpaceOnUse">
<stop stop-color="#9BFF37"/>
<stop offset="1" stop-color="#47C2FA"/>
</linearGradient>
<linearGradient id="paint20_linear_69_76" x1="662.271" y1="-26.2498" x2="749.416" y2="-38.2205" gradientUnits="userSpaceOnUse">
<stop stop-color="#D7FFAF"/>
<stop offset="0.589182" stop-color="#8BDFD7"/>
<stop offset="1" stop-color="#3FBFFF"/>
</linearGradient>
<linearGradient id="paint21_linear_69_76" x1="685.942" y1="-36.9638" x2="723.991" y2="4.52155" gradientUnits="userSpaceOnUse">
<stop stop-color="#9BFF37"/>
<stop offset="1" stop-color="#47C2FA"/>
</linearGradient>
<linearGradient id="paint22_linear_69_76" x1="693.085" y1="27.8102" x2="780.231" y2="15.8396" gradientUnits="userSpaceOnUse">
<stop stop-color="#D7FFAF"/>
<stop offset="0.589182" stop-color="#8BDFD7"/>
<stop offset="1" stop-color="#3FBFFF"/>
</linearGradient>
<linearGradient id="paint23_linear_69_76" x1="716.757" y1="17.0962" x2="754.806" y2="58.5816" gradientUnits="userSpaceOnUse">
<stop stop-color="#9BFF37"/>
<stop offset="1" stop-color="#47C2FA"/>
</linearGradient>
<linearGradient id="paint24_linear_69_76" x1="718.205" y1="76.163" x2="805.35" y2="64.1923" gradientUnits="userSpaceOnUse">
<stop stop-color="#D7FFAF"/>
<stop offset="0.589182" stop-color="#8BDFD7"/>
<stop offset="1" stop-color="#3FBFFF"/>
</linearGradient>
<linearGradient id="paint25_linear_69_76" x1="741.877" y1="65.449" x2="779.925" y2="106.934" gradientUnits="userSpaceOnUse">
<stop stop-color="#9BFF37"/>
<stop offset="1" stop-color="#47C2FA"/>
</linearGradient>
<linearGradient id="paint26_linear_69_76" x1="501.233" y1="338.79" x2="518.463" y2="272.957" gradientUnits="userSpaceOnUse">
<stop stop-color="#9BFF37"/>
<stop offset="0.460602" stop-color="#00D7C2"/>
<stop offset="1" stop-color="#0BAEFF"/>
</linearGradient>
<linearGradient id="paint27_linear_69_76" x1="545.433" y1="256.867" x2="485.01" y2="214.41" gradientUnits="userSpaceOnUse">
<stop stop-color="#80FF00"/>
<stop offset="0.440209" stop-color="#00FFE7"/>
<stop offset="1" stop-color="#00AAFF"/>
</linearGradient>
<linearGradient id="paint28_linear_69_76" x1="526.182" y1="253.344" x2="471.613" y2="281.614" gradientUnits="userSpaceOnUse">
<stop stop-color="#47C2FA"/>
<stop offset="1"/>
</linearGradient>
</defs>
</svg>
